<svg width="46" height="80" viewBox="0 0 46 80" fill="none" xmlns="http://www.w3.org/2000/svg">
<path d="M24.3538 56.7797L24.4372 78.3331C24.4372 79.2499 23.7037 80 22.7869 80H22.7703C21.8534 80 21.1033 79.2666 21.1033 78.3497L21.02 56.7797C9.30146 55.9796 0 46.178 0 34.2595C0 33.3427 0.750118 32.5925 1.66693 32.5925C9.83488 32.5925 17.0027 36.9432 20.9866 43.4609L20.9366 31.6924C17.036 27.4584 14.919 22.0075 14.9857 16.2566C15.0357 10.2724 17.3861 4.67148 21.6034 0.487483C21.7576 0.332953 21.9408 0.210355 22.1424 0.126706C22.3441 0.0430567 22.5603 0 22.7786 0C22.9969 0 23.2131 0.0430567 23.4147 0.126706C23.6164 0.210355 23.7996 0.332953 23.9538 0.487483C28.1596 4.661 30.5393 10.3316 30.5715 16.2566V16.4567C30.5715 22.3076 28.3378 27.8418 24.2705 32.0925L24.3205 43.5776C28.2711 36.9932 35.4723 32.5925 43.6902 32.5925C44.607 32.5925 45.3571 33.3427 45.3571 34.2595C45.3571 46.178 36.0723 55.9796 24.3538 56.7797Z" fill="#FFC83E"/>
<path d="M16.7968 31.9097C13.4046 27.3673 11.5877 21.9248 11.651 16.2189C11.6677 14.4469 11.8644 12.705 12.2244 11.0097C9.02378 9.35103 5.47108 8.48659 1.86615 8.48933C0.932668 8.48933 0.199219 9.22277 0.199219 10.1563C0.199219 20.5029 7.25033 29.2693 16.7968 31.9097ZM33.9045 16.4572C33.9045 22.0815 32.0809 27.4473 28.7554 31.9097C38.3069 29.2726 45.373 20.5045 45.373 10.1563C45.373 9.22277 44.6229 8.48933 43.7061 8.48933C40.0322 8.48933 36.4983 9.3728 33.3294 11.0164C33.6953 12.7302 33.8879 14.4765 33.9045 16.2289V16.4572Z" fill="#2B59FF"/>
</svg>
