<svg width="70" height="80" viewBox="0 0 70 80" fill="none" xmlns="http://www.w3.org/2000/svg">
<path d="M64.551 57.4163C61.0677 65.2163 56.9843 71.183 52.451 75.1331C55.5343 69.3997 57.101 61.833 57.101 52.4996C57.101 39.0328 50.3009 24.1827 44.4342 13.8327C54.2676 5.66597 63.4344 0.465935 63.8677 0.215933C64.3177 -0.0507351 64.8844 -0.0674022 65.3677 0.149266C65.851 0.365934 66.201 0.782603 66.3177 1.29927C66.6177 2.73261 73.9177 36.3662 64.551 57.4163ZM7.28401 52.4996C7.28401 61.283 8.66735 68.4997 11.384 74.0831C8.40069 71.1164 5.31733 66.783 2.90065 60.483C-4.01606 42.4829 3.56732 14.7494 3.88399 13.5827C3.95293 13.3313 4.07989 13.0996 4.25465 12.9061C4.42941 12.7127 4.64711 12.563 4.89025 12.4689C5.13339 12.3749 5.39519 12.3393 5.65462 12.3648C5.91405 12.3903 6.16387 12.4764 6.38401 12.616C6.61734 12.766 10.984 15.566 16.5507 20.1161C11.7507 29.6828 7.28401 41.5162 7.28401 52.4996Z" fill="#2B59FF"/>
<path d="M33.5345 2.94952C32.9011 2.09951 31.4845 2.09951 30.8511 2.94952C30.0178 4.06619 10.6177 30.5163 10.6177 52.4998C10.6177 65.2999 13.6177 74.4 19.5677 79.5833C19.8677 79.85 20.2511 80 20.6511 80H32.1845C31.2678 80 30.5178 79.25 30.5178 78.3333V72.0166L23.0344 64.5499C22.3844 63.8999 22.3844 62.8499 23.0344 62.1832C23.7011 61.5332 24.7511 61.5332 25.4011 62.1832L30.5178 67.2999V44.1164L23.0344 36.6497C22.8799 36.4955 22.7573 36.3124 22.6737 36.1108C22.5901 35.9091 22.547 35.693 22.547 35.4747C22.547 35.2564 22.5901 35.0403 22.6737 34.8387C22.7573 34.637 22.8799 34.4539 23.0344 34.2997C23.1882 34.1415 23.3722 34.0157 23.5754 33.9297C23.7787 33.8438 23.9971 33.7996 24.2178 33.7996C24.4384 33.7996 24.6568 33.8438 24.8601 33.9297C25.0634 34.0157 25.2473 34.1415 25.4011 34.2997L30.5178 39.4164V33.583C30.5178 32.6664 31.2678 31.9164 32.1845 31.9164C33.1011 31.9164 33.8512 32.6664 33.8512 33.583V53.7665L38.9845 48.6331C39.1387 48.4786 39.3219 48.356 39.5235 48.2724C39.7251 48.1888 39.9412 48.1457 40.1595 48.1457C40.3778 48.1457 40.5939 48.1888 40.7956 48.2724C40.9972 48.356 41.1803 48.4786 41.3345 48.6331C41.9845 49.2998 41.9845 50.3498 41.3345 50.9998L33.8512 58.4832V78.3333C33.8512 79.25 33.1011 80 32.1845 80H43.7179C44.1179 80 44.5179 79.85 44.8179 79.5833C50.7513 74.4 53.7679 65.2999 53.7679 52.4998C53.7679 30.5163 34.3512 4.06619 33.5345 2.94952Z" fill="#FFC83E"/>
</svg>
