<svg width="38" height="44" viewBox="0 0 38 44" fill="none" xmlns="http://www.w3.org/2000/svg">
<path d="M14.1117 39.7046C15.1258 40.9601 16.5911 41.7688 18.1939 41.9576C19.7968 42.1464 21.4098 41.7002 22.6878 40.7146C23.0798 40.4226 23.4319 40.0826 23.7359 39.7046M2.0015 25.5744V25.1364C2.06719 23.8379 2.48325 22.5814 3.20552 21.5003C4.40685 20.203 5.23237 18.6031 5.59356 16.8722C5.59356 15.5402 5.59356 14.1882 5.70956 12.8542C6.30957 6.43607 12.6557 2 18.9218 2H19.0778C25.3439 2 31.69 6.43607 32.312 12.8542C32.428 14.1882 32.312 15.5402 32.408 16.8722C32.7736 18.6064 33.5976 20.2108 34.794 21.5183C35.5241 22.5943 35.9401 23.8464 35.9981 25.1384V25.5564C36.0421 27.2964 35.4421 28.9944 34.31 30.3365C32.802 31.9099 30.7748 32.8833 28.6039 33.0765C22.2138 33.7625 15.7657 33.7625 9.37562 33.0765C7.20718 32.8747 5.18281 31.9026 3.66953 30.3365C2.5584 29.0024 1.9661 27.3122 2.0015 25.5764V25.5744Z" stroke="#001C80" stroke-width="4" stroke-linecap="round" stroke-linejoin="round"/>
</svg>
