<svg width="42" height="44" viewBox="0 0 42 44" fill="none" xmlns="http://www.w3.org/2000/svg">
<path fill-rule="evenodd" clip-rule="evenodd" d="M38.4751 13.1248L37.1787 10.8773C36.6525 9.96423 35.7857 9.29703 34.7683 9.02202C33.751 8.74701 32.6661 8.88663 31.7515 9.41026V9.41026C31.3025 9.67501 30.8056 9.84855 30.2893 9.92092C29.7731 9.9933 29.2476 9.96308 28.7431 9.83202C28.2385 9.70095 27.7648 9.4716 27.3491 9.15713C26.9333 8.84265 26.5837 8.44921 26.3203 7.99938C25.9789 7.42246 25.7958 6.76564 25.7896 6.09531V6.09531C25.8049 5.56281 25.7132 5.03265 25.5199 4.53624C25.3266 4.03984 25.0356 3.58728 24.6642 3.20539C24.2928 2.8235 23.8485 2.52004 23.3576 2.31298C22.8668 2.10593 22.3394 1.9995 21.8067 2H19.1972C18.6755 2.00027 18.1589 2.10357 17.6772 2.30398C17.1955 2.50439 16.7582 2.79796 16.3902 3.16783C16.0223 3.53771 15.731 3.97661 15.5331 4.45935C15.3353 4.94208 15.2347 5.45914 15.2371 5.98086V5.98086C15.2224 7.02688 14.7964 8.02505 14.0515 8.7595C13.3065 9.49394 12.3024 9.90563 11.2563 9.90553C10.5849 9.89842 9.92725 9.71392 9.35012 9.37072V9.37072C8.43556 8.84709 7.35067 8.70747 6.33333 8.98248C5.31598 9.2575 4.44919 9.92469 3.92301 10.8378L2.53085 13.1248C2.00566 14.0371 1.86319 15.1202 2.13462 16.1373C2.40605 17.1544 3.06928 18.0226 3.97919 18.5519V18.5519C4.58465 18.9012 5.08745 19.4038 5.43704 20.009C5.78663 20.6143 5.97068 21.301 5.97068 22C5.97068 22.699 5.78663 23.3857 5.43704 23.991C5.08745 24.5963 4.58465 25.0988 3.97919 25.4481V25.4481C3.06999 25.9739 2.40672 26.8391 2.13514 27.8536C1.86355 28.8681 2.00589 29.949 2.53085 30.8586V30.8586L3.84601 33.1248C4.10028 33.5835 4.44268 33.9874 4.85354 34.3134C5.26439 34.6393 5.73561 34.8809 6.24012 35.0242C6.74462 35.1675 7.27247 35.2096 7.79333 35.1483C8.31419 35.087 8.81779 34.9233 9.27521 34.6667C9.72498 34.4043 10.2223 34.2336 10.7384 34.1643C11.2545 34.0951 11.7792 34.1288 12.2822 34.2635C12.7853 34.3981 13.2566 34.6311 13.6692 34.9489C14.0817 35.2667 14.4272 35.663 14.6857 36.1151C15.027 36.6915 15.2101 37.3491 15.2163 38.0191C15.2163 40.2187 16.9997 42 19.1972 42H21.8067C23.9979 42 25.7771 40.2312 25.7896 38.0379C25.7871 37.5144 25.8884 36.9956 26.0876 36.5115C26.2868 36.0274 26.5799 35.5876 26.9501 35.2175C27.3202 34.8473 27.76 34.5542 28.2441 34.355C28.7282 34.1558 29.247 34.0545 29.7705 34.057C30.4385 34.0757 31.094 34.2589 31.6745 34.5897C32.5868 35.1158 33.6703 35.2589 34.6878 34.9879C35.7054 34.7168 36.5741 34.0536 37.1037 33.1435L38.4751 30.8565C38.7376 30.4054 38.9084 29.9069 38.9777 29.3895C39.047 28.8722 39.0134 28.3463 38.8788 27.842C38.7442 27.3377 38.5113 26.8649 38.1935 26.4509C37.8757 26.0369 37.4791 25.6897 37.0267 25.4294V25.4294C36.5738 25.1691 36.1768 24.8218 35.8586 24.4074C35.5404 23.9931 35.3073 23.5199 35.1727 23.0151C35.038 22.5103 35.0046 21.9839 35.0742 21.4661C35.1439 20.9483 35.3152 20.4494 35.5784 19.9981C35.9238 19.3967 36.4233 18.8973 37.0267 18.5519C37.9322 18.0226 38.5922 17.1575 38.8634 16.1444C39.1346 15.1314 38.995 14.0522 38.4751 13.1414V13.1414V13.1248V13.1248Z" stroke="#FD4C5C" stroke-width="4" stroke-linecap="round" stroke-linejoin="round"/>
<path d="M20.5127 27.4841C23.5422 27.4841 25.9981 25.0282 25.9981 21.9987C25.9981 18.9692 23.5422 16.5133 20.5127 16.5133C17.4832 16.5133 15.0273 18.9692 15.0273 21.9987C15.0273 25.0282 17.4832 27.4841 20.5127 27.4841Z" stroke="#FD4C5C" stroke-width="4" stroke-linecap="round" stroke-linejoin="round"/>
</svg>
