<svg width="40" height="40" viewBox="0 0 40 40" fill="none" xmlns="http://www.w3.org/2000/svg">
<path d="M14.2281 7.32935C14.5119 7.29602 14.7703 7.4349 14.8983 7.64931L14.9561 7.76833C14.9825 7.82269 15.0019 7.88056 15.0135 7.93927L15.5648 16.1482L15.5648 16.1495L15.8379 20.2676C15.8455 20.8327 15.9376 21.3926 16.1083 21.9282L16.1287 21.9924L16.1548 22.0544C16.7363 23.4367 18.1216 24.2948 19.6091 24.2335L19.6272 24.2328L19.6452 24.2316L32.913 23.3646C33.0908 23.368 33.2547 23.4371 33.3748 23.5514L33.3803 23.5565C33.4699 23.641 33.5323 23.7515 33.5594 23.8727L33.5664 23.963C33.0198 30.8626 27.9293 36.6328 20.9871 38.1299L20.987 38.1299C14.0069 39.6357 6.86461 36.4496 3.43075 30.3376C2.44677 28.5745 1.8307 26.6301 1.61982 24.622L1.61658 24.5912L1.61207 24.5605C1.52806 23.9891 1.49117 23.4118 1.50178 22.8343L1.50205 22.8194L1.50203 22.8046C1.49112 15.37 6.77615 8.90876 14.2281 7.32935Z" stroke="#FFC83E" stroke-width="3"/>
<path d="M21.6713 1.50014L21.6861 1.50081L21.701 1.50119C29.9833 1.7137 36.9321 7.57062 38.4476 15.4727L38.4378 15.4959L38.4452 15.8198L38.4489 15.9771C38.4448 15.9894 38.4383 16.0009 38.4297 16.0109L38.4279 16.013C38.4108 16.033 38.3889 16.0482 38.3644 16.0572L38.2728 16.0697L22.9663 17.0622L22.9405 17.0639L22.9147 17.0665C22.8688 17.071 22.8224 17.0661 22.7786 17.0518C22.7347 17.0376 22.6942 17.0144 22.6598 16.9838L22.658 16.9823C22.6183 16.9471 22.5901 16.9011 22.5767 16.8502L21.5536 1.61281L21.5546 1.58367C21.5549 1.57431 21.5571 1.5651 21.5611 1.55661C21.565 1.54811 21.5706 1.5405 21.5776 1.53421L21.5782 1.53362C21.6036 1.51061 21.6371 1.49858 21.6713 1.50014Z" stroke="#FFC83E" stroke-width="3"/>
</svg>
