<svg width="40" height="40" viewBox="0 0 40 40" fill="none" xmlns="http://www.w3.org/2000/svg">
<mask id="path-1-inside-1" fill="white">
<path d="M28.1523 0H34.9223C35.5919 0.00262087 36.2545 0.137148 36.8721 0.395896C37.4898 0.654644 38.0504 1.03254 38.522 1.50801C38.9935 1.98347 39.3668 2.54718 39.6204 3.16694C39.8741 3.78669 40.0032 4.45035 40.0003 5.12V11.95C40.0032 12.6196 39.8741 13.2833 39.6204 13.9031C39.3668 14.5228 38.9935 15.0865 38.522 15.562C38.0504 16.0375 37.4898 16.4154 36.8721 16.6741C36.2545 16.9329 35.5919 17.0674 34.9223 17.07H28.1523C27.4826 17.0674 26.82 16.9329 26.2024 16.6741C25.5848 16.4154 25.0241 16.0375 24.5526 15.562C24.081 15.0865 23.7077 14.5228 23.4541 13.9031C23.2004 13.2833 23.0714 12.6196 23.0743 11.95V5.12C23.0714 4.45035 23.2004 3.78669 23.4541 3.16694C23.7077 2.54718 24.081 1.98347 24.5526 1.50801C25.0241 1.03254 25.5848 0.654644 26.2024 0.395896C26.82 0.137148 27.4826 0.00262087 28.1523 0Z"/>
</mask>
<path d="M34.9223 0L34.9379 -3.99997L34.9301 -4H34.9223V0ZM40.0003 5.12L36.0003 5.10271L36.0003 5.11135V5.12H40.0003ZM40.0003 11.95H36.0003V11.9586L36.0003 11.9673L40.0003 11.95ZM34.9223 17.07V21.07H34.9301L34.9379 21.07L34.9223 17.07ZM28.1523 17.07L28.1366 21.07L28.1444 21.07H28.1523V17.07ZM23.0743 11.95L27.0742 11.9673L27.0743 11.9586V11.95H23.0743ZM23.0743 5.12H27.0743V5.11135L27.0742 5.10271L23.0743 5.12ZM28.1523 4H34.9223V-4H28.1523V4ZM34.9066 3.99997C35.0508 4.00053 35.1935 4.02951 35.3266 4.08524L38.4177 -3.29344C37.3154 -3.75521 36.133 -3.99529 34.9379 -3.99997L34.9066 3.99997ZM35.3266 4.08524C35.4596 4.14096 35.5803 4.22236 35.6819 4.32476L41.362 -1.30875C40.5205 -2.15727 39.52 -2.83168 38.4177 -3.29344L35.3266 4.08524ZM35.6819 4.32476C35.7835 4.42717 35.8639 4.54858 35.9185 4.68206L43.3224 1.65181C42.8697 0.545785 42.2036 -0.460225 41.362 -1.30875L35.6819 4.32476ZM35.9185 4.68206C35.9731 4.81554 36.0009 4.95848 36.0003 5.10271L44.0002 5.13729C44.0054 3.94222 43.7751 2.75785 43.3224 1.65181L35.9185 4.68206ZM36.0003 5.12V11.95H44.0003V5.12H36.0003ZM36.0003 11.9673C36.0009 12.1115 35.9731 12.2545 35.9185 12.3879L43.3224 15.4182C43.7751 14.3122 44.0054 13.1278 44.0002 11.9327L36.0003 11.9673ZM35.9185 12.3879C35.8639 12.5214 35.7835 12.6428 35.6819 12.7452L41.362 18.3787C42.2036 17.5302 42.8697 16.5242 43.3224 15.4182L35.9185 12.3879ZM35.6819 12.7452C35.5803 12.8476 35.4596 12.929 35.3266 12.9848L38.4177 20.3634C39.52 19.9017 40.5205 19.2273 41.362 18.3787L35.6819 12.7452ZM35.3266 12.9848C35.1936 13.0405 35.0508 13.0695 34.9066 13.07L34.9379 21.07C36.133 21.0653 37.3154 20.8252 38.4177 20.3634L35.3266 12.9848ZM34.9223 13.07H28.1523V21.07H34.9223V13.07ZM28.1679 13.07C28.0237 13.0695 27.881 13.0405 27.748 12.9848L24.6568 20.3634C25.7591 20.8252 26.9415 21.0653 28.1366 21.07L28.1679 13.07ZM27.748 12.9848C27.6149 12.929 27.4942 12.8476 27.3926 12.7452L21.7125 18.3787C22.5541 19.2273 23.5546 19.9017 24.6568 20.3634L27.748 12.9848ZM27.3926 12.7452C27.2911 12.6428 27.2107 12.5214 27.156 12.3879L19.7521 15.4182C20.2048 16.5242 20.871 17.5302 21.7125 18.3787L27.3926 12.7452ZM27.156 12.3879C27.1014 12.2545 27.0736 12.1115 27.0742 11.9673L19.0743 11.9327C19.0691 13.1278 19.2995 14.3122 19.7521 15.4182L27.156 12.3879ZM27.0743 11.95V5.12H19.0743V11.95H27.0743ZM27.0742 5.10271C27.0736 4.95848 27.1014 4.81554 27.156 4.68206L19.7521 1.65181C19.2995 2.75785 19.0691 3.94222 19.0743 5.13729L27.0742 5.10271ZM27.156 4.68206C27.2107 4.54858 27.2911 4.42717 27.3926 4.32476L21.7125 -1.30875C20.871 -0.46023 20.2048 0.545779 19.7521 1.65181L27.156 4.68206ZM27.3926 4.32476C27.4942 4.22236 27.6149 4.14096 27.748 4.08524L24.6568 -3.29344C23.5546 -2.83168 22.5541 -2.15727 21.7125 -1.30875L27.3926 4.32476ZM27.748 4.08524C27.881 4.02951 28.0237 4.00053 28.1679 3.99997L28.1366 -3.99997C26.9415 -3.99529 25.7591 -3.75521 24.6568 -3.29344L27.748 4.08524Z" fill="#00BB98" mask="url(#path-1-inside-1)"/>
<path d="M11.3334 24.93L11.8402 24.932C12.2472 24.9336 12.6498 25.0153 13.0251 25.1726C13.4005 25.3298 13.7412 25.5595 14.0277 25.8484C14.3143 26.1373 14.5411 26.4799 14.6953 26.8565C14.8494 27.2331 14.9278 27.6364 14.9261 28.0434H14.9261V28.052L14.926 34.88L14.9261 34.8879C14.9293 35.7098 14.606 36.4994 14.0271 37.083C13.4492 37.6657 12.6639 37.9954 11.8433 38H5.08447C4.67853 37.998 4.27694 37.9162 3.90249 37.7594C3.52698 37.6021 3.18614 37.3724 2.89941 37.0835C2.61268 36.7945 2.38567 36.4518 2.23136 36.0751C2.07704 35.6984 1.99844 35.295 2.00006 34.8879V34.88L2.00008 28.05L2.00004 28.0414C1.99828 27.6344 2.07671 27.2311 2.23085 26.8545C2.38499 26.4779 2.61182 26.1353 2.89839 25.8464C3.18495 25.5575 3.52563 25.3278 3.90097 25.1706C4.27525 25.0138 4.67669 24.932 5.08247 24.93H11.3334ZM34.4074 24.93L34.9142 24.932C35.3212 24.9336 35.7238 25.0153 36.0991 25.1726C36.4745 25.3298 36.8152 25.5595 37.1017 25.8484C37.3883 26.1373 37.6151 26.4799 37.7693 26.8565C37.9234 27.2331 38.0018 27.6364 38.0001 28.0434V28.052L38 34.88L38.0001 34.8879C38.0033 35.7098 37.68 36.4994 37.1011 37.083C36.5232 37.6657 35.7379 37.9954 34.9173 38H28.1568C27.3362 37.9954 26.5509 37.6657 25.973 37.083C25.3942 36.4994 25.0708 35.7098 25.0741 34.8879V34.88L25.0741 28.05L25.074 28.0414C25.0723 27.6344 25.1507 27.2311 25.3049 26.8545C25.459 26.4779 25.6858 26.1353 25.9724 25.8464C26.259 25.5575 26.5996 25.3278 26.975 25.1706C27.3493 25.0138 27.7507 24.932 28.1565 24.93H34.4074ZM14.9261 5.11135H14.9261V5.12V11.95H14.926L14.9261 11.9586C14.9278 12.3656 14.8494 12.7689 14.6953 13.1455C14.5411 13.5221 14.3143 13.8647 14.0277 14.1536C13.7412 14.4425 13.4005 14.6722 13.0251 14.8294C12.6509 14.9862 12.2494 15.068 11.8436 15.07H5.08401C4.67792 15.0682 4.27613 14.9865 3.90153 14.8297C3.52597 14.6724 3.18509 14.4427 2.89838 14.1536C2.61168 13.8645 2.38476 13.5218 2.23061 13.1449C2.07647 12.7681 1.99812 12.3646 2.00003 11.9574H2.00006V11.948V5.12H2.00008L2.00004 5.11135C1.99828 4.70442 2.07671 4.30112 2.23085 3.9245C2.38499 3.54788 2.61183 3.20532 2.89839 2.91638C3.18495 2.62745 3.52563 2.3978 3.90097 2.24057C4.27526 2.08377 4.67669 2.00204 5.08247 2H11.8436C12.2494 2.00204 12.6509 2.08377 13.0251 2.24057C13.4005 2.3978 13.7412 2.62745 14.0277 2.91639C14.3143 3.20532 14.5411 3.54788 14.6953 3.9245C14.8494 4.30112 14.9278 4.70441 14.9261 5.11135Z" stroke="#00BB98" stroke-width="4"/>
</svg>
