<svg width="44" height="40" viewBox="0 0 44 40" fill="none" xmlns="http://www.w3.org/2000/svg">
<path d="M33.7577 13.5662L24.8845 20.7089C24.0699 21.3485 23.0643 21.6962 22.0286 21.6962C20.993 21.6962 19.9873 21.3485 19.1728 20.7089L10.2246 13.5662" stroke="#781BFF" stroke-width="4" stroke-linecap="round" stroke-linejoin="round"/>
<path fill-rule="evenodd" clip-rule="evenodd" d="M12.167 2H31.7773C34.6061 2.0312 37.2955 3.2272 39.2237 5.3072C40.1788 6.3393 40.9155 7.55379 41.3894 8.87774C41.8634 10.2017 42.0649 11.6078 41.9818 13.0115V26.5898C42.0649 27.9935 41.8634 29.3996 41.3894 30.7236C40.9155 32.0475 40.1788 33.262 39.2237 34.2941C38.2723 35.3223 37.1213 36.1458 35.841 36.7144C34.5608 37.2831 33.178 37.5848 31.7773 37.6013H12.167C6.09344 37.6013 2 32.6613 2 26.5898V13.0115C2 6.94 6.09344 2 12.167 2Z" stroke="#781BFF" stroke-width="4" stroke-linecap="round" stroke-linejoin="round"/>
</svg>
