<svg width="20" height="20" viewBox="0 0 20 20" fill="none" xmlns="http://www.w3.org/2000/svg">
<path opacity="0.4" d="M14.676 0H5.333C1.93 0 0 1.929 0 5.333V14.667C0 18.07 1.929 20 5.333 20H14.676C18.08 20 20 18.071 20 14.667V5.333C20 1.93 18.08 0 14.676 0Z" fill="#00BB98"/>
<path d="M5.369 7.36911C5.14859 7.3707 4.9378 7.45957 4.78279 7.61627C4.62779 7.77296 4.5412 7.9847 4.542 8.20511V15.0751C4.542 15.2955 4.62955 15.5069 4.78539 15.6627C4.94123 15.8186 5.1526 15.9061 5.373 15.9061C5.59339 15.9061 5.80476 15.8186 5.9606 15.6627C6.11645 15.5069 6.204 15.2955 6.204 15.0751V8.20511C6.20413 8.09537 6.18263 7.98669 6.14072 7.88526C6.09882 7.78384 6.03734 7.69167 5.95979 7.61403C5.88224 7.53639 5.79014 7.47479 5.68877 7.43277C5.5874 7.39074 5.47874 7.36911 5.369 7.36911ZM10.035 4.08911C9.81477 4.09096 9.60423 4.17995 9.44944 4.33662C9.29465 4.49328 9.2082 4.70487 9.209 4.92511V15.0751C9.209 15.2955 9.29655 15.5069 9.45239 15.6627C9.60824 15.8186 9.8196 15.9061 10.04 15.9061C10.2604 15.9061 10.4718 15.8186 10.6276 15.6627C10.7834 15.5069 10.871 15.2955 10.871 15.0751V4.92611C10.8711 4.81629 10.8496 4.70752 10.8076 4.60603C10.7657 4.50454 10.7041 4.41233 10.6264 4.33468C10.5488 4.25702 10.4566 4.19545 10.3551 4.15348C10.2536 4.11151 10.1448 4.08998 10.035 4.09011V4.08911ZM14.64 10.9971C14.5303 10.997 14.4216 11.0185 14.3202 11.0604C14.2187 11.1023 14.1266 11.1638 14.0489 11.2413C13.9713 11.3189 13.9097 11.411 13.8677 11.5123C13.8256 11.6137 13.804 11.7224 13.804 11.8321V15.0771C13.804 15.2976 13.8916 15.5091 14.0475 15.6651C14.2035 15.821 14.415 15.9086 14.6355 15.9086C14.856 15.9086 15.0675 15.821 15.2235 15.6651C15.3794 15.5091 15.467 15.2976 15.467 15.0771V11.8301C15.4675 11.6099 15.3808 11.3984 15.2258 11.2419C15.0709 11.0854 14.8602 10.9967 14.64 10.9951" fill="#00BB98"/>
</svg>
