<svg width="20" height="20" viewBox="0 0 20 20" fill="none" xmlns="http://www.w3.org/2000/svg">
<path opacity="0.4" d="M14.676 0H5.333C1.93 0 0 1.929 0 5.333V14.667C0 18.07 1.929 20 5.333 20H14.676C18.08 20 20 18.071 20 14.667V5.333C20 1.93 18.08 0 14.676 0Z" fill="#00BB98"/>
<path d="M5.369 7.36899C5.14859 7.37058 4.9378 7.45945 4.78279 7.61614C4.62779 7.77284 4.5412 7.98458 4.542 8.20499V15.075C4.542 15.2954 4.62955 15.5068 4.78539 15.6626C4.94123 15.8184 5.1526 15.906 5.373 15.906C5.59339 15.906 5.80476 15.8184 5.9606 15.6626C6.11645 15.5068 6.204 15.2954 6.204 15.075V8.20499C6.20413 8.09525 6.18263 7.98656 6.14072 7.88514C6.09882 7.78372 6.03734 7.69155 5.95979 7.61391C5.88224 7.53627 5.79014 7.47467 5.68877 7.43265C5.5874 7.39062 5.47874 7.36899 5.369 7.36899ZM10.035 4.08899C9.81477 4.09084 9.60423 4.17983 9.44944 4.33649C9.29465 4.49316 9.2082 4.70475 9.209 4.92499V15.075C9.209 15.2954 9.29655 15.5068 9.45239 15.6626C9.60824 15.8184 9.8196 15.906 10.04 15.906C10.2604 15.906 10.4718 15.8184 10.6276 15.6626C10.7834 15.5068 10.871 15.2954 10.871 15.075V4.92599C10.8711 4.81617 10.8496 4.7074 10.8076 4.60591C10.7657 4.50442 10.7041 4.41221 10.6264 4.33455C10.5488 4.2569 10.4566 4.19532 10.3551 4.15336C10.2536 4.11139 10.1448 4.08986 10.035 4.08999V4.08899ZM14.64 10.997C14.5303 10.9969 14.4216 11.0184 14.3202 11.0603C14.2187 11.1022 14.1266 11.1637 14.0489 11.2412C13.9713 11.3188 13.9097 11.4108 13.8677 11.5122C13.8256 11.6136 13.804 11.7223 13.804 11.832V15.077C13.804 15.2975 13.8916 15.509 14.0475 15.6649C14.2035 15.8209 14.415 15.9085 14.6355 15.9085C14.856 15.9085 15.0675 15.8209 15.2235 15.6649C15.3794 15.509 15.467 15.2975 15.467 15.077V11.83C15.4675 11.6098 15.3808 11.3983 15.2258 11.2418C15.0709 11.0853 14.8602 10.9966 14.64 10.995" fill="#00BB98"/>
</svg>
