<svg width="30" height="40" viewBox="0 0 30 40" fill="none" xmlns="http://www.w3.org/2000/svg">
<path d="M23.7985 3.31124C22.1264 1.93602 20.1684 0.951432 18.0673 0.429308C15.9662 -0.0928165 13.7751 -0.139305 11.6538 0.293235C8.82915 0.863787 6.23769 2.26053 4.20816 4.30624C2.17864 6.35195 0.802523 8.95443 0.254424 11.7835C-0.145831 13.9047 -0.073098 16.088 0.467434 18.1779C1.00797 20.2677 2.00298 22.2126 3.38151 23.8737C4.66087 25.3173 5.39418 27.1635 5.45412 29.0915V34.5458C5.45412 35.9923 6.02876 37.3796 7.05163 38.4025C8.07449 39.4254 9.46179 40 10.9083 40H18.1806C19.6272 40 21.0145 39.4254 22.0374 38.4025C23.0602 37.3796 23.6349 35.9923 23.6349 34.5458V29.437C23.6959 27.3083 24.4779 25.2635 25.8529 23.6373C28.2621 20.6571 29.3977 16.8465 29.0131 13.0336C28.6284 9.22077 26.7544 5.7138 23.7985 3.27488V3.31124ZM19.9987 34.5458C19.9987 35.028 19.8072 35.4904 19.4662 35.8313C19.1253 36.1723 18.6628 36.3638 18.1806 36.3638H10.9083C10.4262 36.3638 9.96373 36.1723 9.62277 35.8313C9.28182 35.4904 9.09027 35.028 9.09027 34.5458V32.7277H19.9987V34.5458ZM23.0349 21.3829C21.2068 23.5511 20.1403 26.2591 19.9987 29.0915H16.3626V23.6373C16.3626 23.1551 16.171 22.6927 15.8301 22.3517C15.4891 22.0108 15.0267 21.8192 14.5445 21.8192C14.0623 21.8192 13.5999 22.0108 13.2589 22.3517C12.918 22.6927 12.7264 23.1551 12.7264 23.6373V29.0915H9.09027C9.0423 26.3064 8.01205 23.6278 6.18135 21.5284C4.9735 20.0812 4.16127 18.3457 3.82387 16.4911C3.48647 14.6365 3.63541 12.7262 4.25617 10.9463C4.87692 9.16643 5.94831 7.5778 7.36587 6.33529C8.78342 5.09279 10.4988 4.23882 12.3446 3.85666C13.931 3.53003 15.5702 3.56076 17.1432 3.9466C18.7162 4.33245 20.1836 5.06373 21.4387 6.08736C22.6939 7.11098 23.7054 8.40127 24.3997 9.86453C25.094 11.3278 25.4538 12.9273 25.4529 14.5469C25.4664 17.0375 24.6113 19.4548 23.0349 21.3829Z" fill="#377CFD"/>
</svg>
