<svg width="40" height="40" viewBox="0 0 40 40" fill="none" xmlns="http://www.w3.org/2000/svg">
<path d="M30.1195 40H6.02391C4.42627 40 2.89406 39.3653 1.76436 38.2356C0.63466 37.1059 0 35.5737 0 33.9761V13.8964C0 12.2988 0.63466 10.7665 1.76436 9.63685C2.89406 8.50714 4.42627 7.87249 6.02391 7.87249H8.03188C8.06565 6.17101 8.63899 4.52423 9.6692 3.16968C10.6994 1.81512 12.1333 0.822801 13.7639 0.335839C15.3946 -0.151123 17.1377 -0.107555 18.742 0.460258C20.3463 1.02807 21.7288 2.09078 22.6901 3.49511C23.5905 4.7785 24.0806 6.30479 24.0956 7.87249H30.1195C30.6521 7.87249 31.1628 8.08404 31.5394 8.46061C31.916 8.83717 32.1275 9.34791 32.1275 9.88045V15.9044C33.829 15.9381 35.4758 16.5115 36.8303 17.5417C38.1849 18.5719 39.1772 20.0057 39.6642 21.6364C40.1511 23.267 40.1076 25.0102 39.5397 26.6145C38.9719 28.2188 37.9092 29.6013 36.5049 30.5625C35.2215 31.463 33.6952 31.9531 32.1275 31.9681V37.992C32.1275 38.5246 31.916 39.0353 31.5394 39.4119C31.1628 39.7884 30.6521 40 30.1195 40ZM6.02391 11.8884C5.49136 11.8884 4.98063 12.1 4.60406 12.4765C4.22749 12.8531 4.01594 13.3638 4.01594 13.8964V33.9761C4.01594 34.5086 4.22749 35.0194 4.60406 35.3959C4.98063 35.7725 5.49136 35.9841 6.02391 35.9841H28.1116V29.5987C28.1098 29.2768 28.1856 28.9591 28.3323 28.6725C28.4791 28.386 28.6926 28.1389 28.9549 27.9522C29.2164 27.7657 29.5188 27.6447 29.8368 27.5993C30.1547 27.5538 30.4789 27.5854 30.7822 27.6911C31.3544 27.9246 31.9777 28.0048 32.5904 27.9238C33.2031 27.8428 33.7841 27.6034 34.276 27.2293C34.7657 26.9307 35.1857 26.5307 35.5078 26.0562C35.8299 25.5817 36.0467 25.0437 36.1435 24.4784C36.2209 23.9082 36.1749 23.3281 36.0086 22.7773C35.8423 22.2264 35.5596 21.7178 35.1796 21.2857C34.6657 20.6615 33.9659 20.2177 33.1821 20.019C32.3983 19.8204 31.5715 19.8772 30.8223 20.1813C30.5191 20.2871 30.1949 20.3186 29.8769 20.2732C29.559 20.2278 29.2566 20.1068 28.9951 19.9203C28.7328 19.7336 28.5193 19.4865 28.3725 19.1999C28.2257 18.9134 28.15 18.5957 28.1517 18.2738V11.8884H21.7262C21.3962 11.9071 21.0667 11.8441 20.7669 11.7049C20.4671 11.5656 20.2063 11.3546 20.0077 11.0904C19.8091 10.8262 19.6787 10.517 19.6282 10.1904C19.5777 9.86373 19.6087 9.52966 19.7183 9.21782C19.9517 8.64557 20.0319 8.02233 19.9509 7.40962C19.8699 6.7969 19.6305 6.2159 19.2564 5.72396C18.96 5.22029 18.554 4.78979 18.0685 4.46434C17.5831 4.1389 17.0306 3.92687 16.4521 3.84394C15.8735 3.76102 15.2838 3.80934 14.7264 3.98531C14.1691 4.16129 13.6585 4.46042 13.2325 4.86053C12.8369 5.25292 12.5273 5.72334 12.3233 6.24188C12.1193 6.76042 12.0255 7.31572 12.0478 7.87249C12.0525 8.33306 12.1409 8.78893 12.3089 9.21782C12.415 9.52147 12.4467 9.84617 12.4012 10.1646C12.3556 10.483 12.2343 10.7859 12.0473 11.0476C11.8604 11.3093 11.6133 11.5223 11.3268 11.6687C11.0404 11.815 10.7229 11.8904 10.4013 11.8884H6.02391Z" fill="#377CFD"/>
</svg>
