<svg width="40" height="40" viewBox="0 0 40 40" fill="none" xmlns="http://www.w3.org/2000/svg">
<path d="M18.1818 14.5455H25.4545C25.9368 14.5455 26.3992 14.3539 26.7402 14.0129C27.0812 13.6719 27.2727 13.2095 27.2727 12.7273C27.2727 12.2451 27.0812 11.7826 26.7402 11.4416C26.3992 11.1006 25.9368 10.9091 25.4545 10.9091H21.8182V9.09091C21.8182 8.6087 21.6266 8.14623 21.2857 7.80526C20.9447 7.46428 20.4822 7.27273 20 7.27273C19.5178 7.27273 19.0553 7.46428 18.7144 7.80526C18.3734 8.14623 18.1818 8.6087 18.1818 9.09091V10.9091C16.7352 10.9091 15.3478 11.4838 14.3249 12.5067C13.302 13.5296 12.7273 14.917 12.7273 16.3636C12.7273 17.8103 13.302 19.1977 14.3249 20.2206C15.3478 21.2435 16.7352 21.8182 18.1818 21.8182H21.8182C22.3004 21.8182 22.7629 22.0097 23.1038 22.3507C23.4448 22.6917 23.6364 23.1541 23.6364 23.6364C23.6364 24.1186 23.4448 24.581 23.1038 24.922C22.7629 25.263 22.3004 25.4545 21.8182 25.4545H14.5455C14.0632 25.4545 13.6008 25.6461 13.2598 25.9871C12.9188 26.3281 12.7273 26.7905 12.7273 27.2727C12.7273 27.7549 12.9188 28.2174 13.2598 28.5584C13.6008 28.8993 14.0632 29.0909 14.5455 29.0909H18.1818V30.9091C18.1818 31.3913 18.3734 31.8538 18.7144 32.1947C19.0553 32.5357 19.5178 32.7273 20 32.7273C20.4822 32.7273 20.9447 32.5357 21.2857 32.1947C21.6266 31.8538 21.8182 31.3913 21.8182 30.9091V29.0909C23.2648 29.0909 24.6522 28.5162 25.6751 27.4933C26.6981 26.4704 27.2727 25.083 27.2727 23.6364C27.2727 22.1897 26.6981 20.8023 25.6751 19.7794C24.6522 18.7565 23.2648 18.1818 21.8182 18.1818H18.1818C17.6996 18.1818 17.2372 17.9903 16.8962 17.6493C16.5552 17.3083 16.3636 16.8458 16.3636 16.3636C16.3636 15.8814 16.5552 15.419 16.8962 15.078C17.2372 14.737 17.6996 14.5455 18.1818 14.5455ZM20 0C16.0444 0 12.1776 1.17298 8.8886 3.37061C5.59962 5.56823 3.03617 8.69181 1.52242 12.3463C0.00866576 16.0009 -0.387401 20.0222 0.384303 23.9018C1.15601 27.7814 3.06082 31.3451 5.85787 34.1421C8.65492 36.9392 12.2186 38.844 16.0982 39.6157C19.9778 40.3874 23.9992 39.9913 27.6537 38.4776C31.3082 36.9638 34.4318 34.4004 36.6294 31.1114C38.827 27.8224 40 23.9556 40 20C40 14.6957 37.8929 9.60859 34.1421 5.85786C30.3914 2.10714 25.3043 0 20 0ZM20 36.3636C16.7636 36.3636 13.5998 35.4039 10.9089 33.6059C8.21787 31.8078 6.1205 29.2522 4.88198 26.2621C3.64345 23.272 3.3194 19.9818 3.95079 16.8076C4.58219 13.6334 6.14067 10.7177 8.42917 8.42916C10.7177 6.14066 13.6334 4.58218 16.8076 3.95079C19.9819 3.31939 23.272 3.64345 26.2621 4.88197C29.2522 6.12049 31.8078 8.21786 33.6059 10.9088C35.4039 13.5998 36.3636 16.7636 36.3636 20C36.3636 24.3399 34.6396 28.5021 31.5708 31.5708C28.5021 34.6396 24.3399 36.3636 20 36.3636Z" fill="#377CFD"/>
</svg>
