<svg width="32" height="34" viewBox="0 0 32 34" fill="none" xmlns="http://www.w3.org/2000/svg">
<path fill-rule="evenodd" clip-rule="evenodd" d="M29.642 10.772L28.6697 9.08646C28.2751 8.40164 27.625 7.90124 26.862 7.69498C26.0989 7.48873 25.2853 7.59344 24.5994 7.98616V7.98616C24.2626 8.18473 23.8899 8.31488 23.5027 8.36916C23.1155 8.42344 22.7214 8.40078 22.343 8.30248C21.9646 8.20418 21.6093 8.03217 21.2975 7.79631C20.9857 7.56045 20.7235 7.26538 20.5259 6.928C20.2699 6.49531 20.1326 6.0027 20.1279 5.49995V5.49995C20.1394 5.10057 20.0706 4.70296 19.9256 4.33065C19.7806 3.95835 19.5624 3.61893 19.2838 3.33251C19.0053 3.04609 18.6721 2.81849 18.3039 2.6632C17.9358 2.50792 17.5403 2.42809 17.1407 2.42847H15.1836C14.7923 2.42867 14.4049 2.50615 14.0436 2.65645C13.6824 2.80676 13.3543 3.02693 13.0784 3.30434C12.8024 3.58175 12.584 3.91092 12.4356 4.27298C12.2871 4.63503 12.2117 5.02282 12.2136 5.41411V5.41411C12.2025 6.19863 11.883 6.94725 11.3243 7.49809C10.7656 8.04892 10.0125 8.35769 9.22791 8.35761C8.72435 8.35228 8.23114 8.21391 7.7983 7.95651V7.95651C7.11237 7.56378 6.29871 7.45907 5.5357 7.66533C4.77269 7.87159 4.1226 8.37199 3.72796 9.05681L2.68385 10.772C2.28995 11.4563 2.1831 12.2686 2.38667 13.0315C2.59024 13.7943 3.08766 14.4454 3.7701 14.8424V14.8424C4.22419 15.1044 4.60129 15.4813 4.86349 15.9353C5.12568 16.3892 5.26372 16.9042 5.26372 17.4285C5.26372 17.9527 5.12568 18.4677 4.86349 18.9217C4.60129 19.3757 4.22419 19.7526 3.7701 20.0146V20.0146C3.0882 20.4089 2.59074 21.0578 2.38706 21.8187C2.18337 22.5796 2.29012 23.3902 2.68385 24.0724V24.0724L3.67022 25.772C3.86092 26.1161 4.11771 26.419 4.42586 26.6635C4.734 26.908 5.08742 27.0891 5.4658 27.1966C5.84417 27.3041 6.24006 27.3357 6.6307 27.2897C7.02135 27.2437 7.39905 27.1209 7.74211 26.9285C8.07944 26.7317 8.45241 26.6036 8.8395 26.5517C9.22659 26.4998 9.62012 26.5251 9.99739 26.6261C10.3747 26.7271 10.7282 26.9018 11.0376 27.1401C11.347 27.3785 11.6061 27.6757 11.8 28.0148C12.0559 28.4471 12.1933 28.9403 12.1979 29.4428C12.1979 31.0925 13.5355 32.4285 15.1836 32.4285H17.1407C18.7841 32.4285 20.1186 31.1019 20.1279 29.4569C20.1261 29.0643 20.202 28.6752 20.3514 28.3121C20.5008 27.949 20.7206 27.6192 20.9982 27.3416C21.2759 27.0639 21.6057 26.8441 21.9688 26.6947C22.3319 26.5453 22.721 26.4694 23.1136 26.4712C23.6146 26.4853 24.1062 26.6226 24.5416 26.8708C25.2258 27.2653 26.0384 27.3727 26.8016 27.1694C27.5647 26.9661 28.2163 26.4687 28.6135 25.7861L29.642 24.0709C29.8389 23.7325 29.967 23.3586 30.019 22.9706C30.071 22.5826 30.0458 22.1882 29.9448 21.8099C29.8439 21.4317 29.6692 21.0772 29.4308 20.7666C29.1925 20.4561 28.8951 20.1958 28.5558 20.0005V20.0005C28.216 19.8053 27.9183 19.5448 27.6796 19.234C27.441 18.9233 27.2662 18.5684 27.1652 18.1898C27.0642 17.8112 27.0392 17.4164 27.0914 17.028C27.1436 16.6397 27.2721 16.2655 27.4695 15.9271C27.7286 15.476 28.1032 15.1014 28.5558 14.8424C29.2348 14.4455 29.7298 13.7966 29.9332 13.0368C30.1366 12.277 30.032 11.4676 29.642 10.7845V10.7845V10.772V10.772Z" stroke="#FD4C5C" stroke-width="3" stroke-linecap="round" stroke-linejoin="round"/>
<path d="M16.1703 21.5415C18.4424 21.5415 20.2843 19.6996 20.2843 17.4275C20.2843 15.1554 18.4424 13.3135 16.1703 13.3135C13.8982 13.3135 12.0563 15.1554 12.0563 17.4275C12.0563 19.6996 13.8982 21.5415 16.1703 21.5415Z" stroke="#FD4C5C" stroke-width="3" stroke-linecap="round" stroke-linejoin="round"/>
</svg>
