<svg width="23" height="30" viewBox="0 0 23 30" fill="none" xmlns="http://www.w3.org/2000/svg">
<path d="M18.5989 2.48343C17.3448 1.45202 15.8763 0.713574 14.3005 0.321981C12.7247 -0.0696124 11.0813 -0.104478 9.49032 0.219927C7.37186 0.64784 5.42827 1.69539 3.90612 3.22968C2.38398 4.76396 1.35189 6.71582 0.940818 8.8376C0.640627 10.4285 0.695177 12.066 1.10058 13.6334C1.50597 15.2008 2.25224 16.6594 3.28614 17.9053C4.24565 18.988 4.79564 20.3726 4.84059 21.8187V25.9093C4.84059 26.9942 5.27157 28.0347 6.03872 28.8019C6.80587 29.569 7.84635 30 8.93126 30H14.3855C15.4704 30 16.5109 29.569 17.278 28.8019C18.0452 28.0347 18.4762 26.9942 18.4762 25.9093V22.0777C18.5219 20.4812 19.1084 18.9476 20.1397 17.728C21.9466 15.4928 22.7983 12.6349 22.5098 9.77522C22.2213 6.91558 20.8158 4.28535 18.5989 2.45616V2.48343ZM15.749 25.9093C15.749 26.271 15.6054 26.6178 15.3497 26.8735C15.0939 27.1292 14.7471 27.2729 14.3855 27.2729H8.93126C8.56962 27.2729 8.2228 27.1292 7.96708 26.8735C7.71136 26.6178 7.5677 26.271 7.5677 25.9093V24.5458H15.749V25.9093ZM18.0262 16.0372C16.6551 17.6634 15.8552 19.6943 15.749 21.8187H13.0219V17.728C13.0219 17.3664 12.8783 17.0195 12.6226 16.7638C12.3668 16.5081 12.02 16.3644 11.6584 16.3644C11.2967 16.3644 10.9499 16.5081 10.6942 16.7638C10.4385 17.0195 10.2948 17.3664 10.2948 17.728V21.8187H7.5677C7.53173 19.7298 6.75904 17.7208 5.38601 16.1463C4.48012 15.0609 3.87095 13.7593 3.6179 12.3683C3.36485 10.9774 3.47656 9.54463 3.94213 8.20973C4.40769 6.87483 5.21123 5.68335 6.2744 4.75147C7.33756 3.81959 8.62407 3.17912 10.0085 2.8925C11.1982 2.64753 12.4276 2.67057 13.6074 2.95995C14.7872 3.24934 15.8877 3.7978 16.829 4.56552C17.7704 5.33324 18.529 6.30095 19.0498 7.3984C19.5705 8.49584 19.8404 9.69548 19.8397 10.9102C19.8498 12.7781 19.2085 14.5911 18.0262 16.0372Z" fill="#FFC83E"/>
</svg>
