<svg width="34" height="32" viewBox="0 0 34 32" fill="none" xmlns="http://www.w3.org/2000/svg">
<path d="M25.8181 11.1752L19.1631 16.5322C18.5522 17.012 17.798 17.2727 17.0212 17.2727C16.2445 17.2727 15.4902 17.012 14.8793 16.5322L8.16821 11.1752" stroke="#2B59FF" stroke-width="4" stroke-linecap="round" stroke-linejoin="round"/>
<path fill-rule="evenodd" clip-rule="evenodd" d="M9.62528 2.5H24.333C26.4546 2.5234 28.4716 3.4204 29.9178 4.9804C30.6341 5.75448 31.1866 6.66534 31.5421 7.6583C31.8975 8.65126 32.0486 9.70582 31.9863 10.7586V20.9423C32.0486 21.9952 31.8975 23.0497 31.5421 24.0427C31.1866 25.0356 30.6341 25.9465 29.9178 26.7206C29.2042 27.4917 28.341 28.1094 27.3808 28.5358C26.4206 28.9623 25.3835 29.1886 24.333 29.201H9.62528C5.07008 29.201 2 25.496 2 20.9423V10.7586C2 6.205 5.07008 2.5 9.62528 2.5Z" stroke="#2B59FF" stroke-width="4" stroke-linecap="round" stroke-linejoin="round"/>
</svg>
