<svg width="31" height="28" viewBox="0 0 31 28" fill="none" xmlns="http://www.w3.org/2000/svg">
<path d="M18.2377 22.0094L16.5878 23.655V16.5456C16.5878 15.8431 16.0175 15.2729 15.3118 15.2729C14.6062 15.2729 14.0358 15.8431 14.0358 16.5456V23.655L12.386 22.0094C11.8871 21.5118 11.0806 21.5118 10.5817 22.0094C10.0828 22.507 10.0828 23.3114 10.5817 23.809L14.4085 27.6259C14.5259 27.7443 14.6675 27.8372 14.8245 27.9021C14.9802 27.9657 15.146 28.0001 15.3119 28.0001C15.4778 28.0001 15.6437 27.9657 15.7993 27.9021C15.9563 27.8372 16.0979 27.7443 16.2153 27.6259L20.0421 23.809C20.541 23.3114 20.541 22.507 20.0421 22.0094C19.5431 21.5117 18.7366 21.5117 18.2377 22.0094Z" fill="#FFC83E"/>
<path d="M26.7236 9.19411C26.1405 4.81594 22.121 0 17.2874 0C14.6959 0 12.0609 1.27019 10.3013 3.30777C9.73854 3.10284 9.14262 2.99725 8.53528 2.99725C5.78549 2.99725 3.53203 5.15832 3.39422 7.86795C1.36278 9.17376 0 11.5856 0 13.9999C0 15.5119 0.50273 17.1893 1.37935 18.6008C2.54051 20.4729 4.67021 21.6362 6.93642 21.6362H7.88834C8.07592 21.1067 8.3681 20.618 8.7777 20.2095C9.49995 19.4878 10.462 19.0908 11.4841 19.0908V16.5453C11.4841 14.4402 13.2004 12.7271 15.3122 12.7271C17.4227 12.7271 19.1402 14.4402 19.1402 16.5453V19.0908C20.1611 19.0908 21.1231 19.4878 21.8466 20.2095C22.2562 20.618 22.5472 21.1067 22.736 21.6362H24.072C27.3833 21.6362 30.2428 19.1773 30.5822 16.0375C30.6103 15.7868 30.6244 15.531 30.6244 15.2727C30.6244 12.3505 29.1238 10.0634 26.7236 9.19411Z" fill="#FFC83E"/>
</svg>
