<svg width="56" height="80" viewBox="0 0 56 80" fill="none" xmlns="http://www.w3.org/2000/svg">
<path d="M55.9989 43.6492C55.9989 53.0823 46.0491 60.9488 32.9994 62.5821V55.6489L39.5826 49.2157C41.5492 47.2824 41.5826 44.1158 39.6493 42.1325C39.1854 41.6566 38.6307 41.2786 38.018 41.021C37.4054 40.7633 36.7473 40.6312 36.0827 40.6326C34.9493 40.6326 33.8827 41.0326 32.9994 41.7325V24.7995C32.9994 22.0496 30.7494 19.7996 27.9995 19.7996C25.2329 19.7996 22.9996 22.0496 22.9996 24.7995V26.6328C22.1162 25.9495 21.0496 25.5495 19.9163 25.5495C18.5663 25.5495 17.2997 26.0828 16.3497 27.0495C14.4164 29.0328 14.4497 32.1994 16.4164 34.116L22.9996 40.5659V62.5655C9.94981 60.9488 0 53.0823 0 43.6492C0 39.5659 1.8833 35.5993 5.33323 32.3161C4.44409 30.6013 3.98104 28.6977 3.98326 26.7662C3.98326 21.8329 7.01654 17.3997 11.5331 15.5497C11.5165 15.4164 11.5164 15.2664 11.5164 15.1164C11.5164 6.78321 18.2997 0 26.6162 0C34.9493 0 41.7325 6.78321 41.7325 15.1164C41.7325 15.2664 41.7325 15.4164 41.7159 15.5497C46.2325 17.3997 49.2657 21.8329 49.2657 26.7662C49.2657 28.0495 49.0491 29.3328 48.6324 30.5994C53.399 34.1494 55.9989 38.7326 55.9989 43.6492Z" fill="#FFC83E"/>
<path d="M37.2443 46.829C37.5604 46.5198 37.7406 46.0977 37.7455 45.6556C37.7503 45.2135 37.5794 44.7876 37.2702 44.4715C36.961 44.1555 36.5389 43.9752 36.0968 43.9704C35.6547 43.9655 35.2288 44.1365 34.9127 44.4457L29.6661 49.5856V24.7977C29.6661 24.3557 29.4905 23.9318 29.178 23.6192C28.8654 23.3067 28.4415 23.1311 27.9995 23.1311C27.5575 23.1311 27.1336 23.3067 26.821 23.6192C26.5085 23.9318 26.3329 24.3557 26.3329 24.7977V34.4976L21.0863 29.3593C20.7703 29.0501 20.3443 28.8791 19.9022 28.884C19.4601 28.8888 19.038 29.0691 18.7288 29.3852C18.4197 29.7012 18.2487 30.1271 18.2535 30.5692C18.2584 31.0113 18.4386 31.4334 18.7547 31.7426L26.3329 39.1608V78.3334C26.3329 78.7754 26.5085 79.1993 26.821 79.5119C27.1336 79.8244 27.5575 80 27.9995 80C28.4415 80 28.8654 79.8244 29.178 79.5119C29.4905 79.1993 29.6661 78.7754 29.6661 78.3334V54.2505L37.246 46.829H37.2443Z" fill="#2B59FF"/>
</svg>
