<svg width="18" height="15" viewBox="0 0 18 15" fill="none" xmlns="http://www.w3.org/2000/svg">
<path fill-rule="evenodd" clip-rule="evenodd" d="M18 7.5C18 7.78411 17.8871 8.05658 17.6862 8.25747C17.4853 8.45837 17.2129 8.57123 16.9288 8.57123L4.51743 8.57123L9.11731 13.169C9.31846 13.3701 9.43147 13.6429 9.43147 13.9274C9.43147 14.2119 9.31846 14.4847 9.11731 14.6858C8.91616 14.887 8.64335 15 8.35888 15C8.07441 15 7.80159 14.887 7.60044 14.6858L1.17303 8.25843C1.07327 8.15892 0.994121 8.04071 0.940117 7.91057C0.886114 7.78042 0.858314 7.6409 0.858314 7.5C0.858314 7.35909 0.886114 7.21957 0.940117 7.08943C0.994121 6.95928 1.07327 6.84107 1.17303 6.74156L7.60044 0.314147C7.80159 0.112998 8.07441 -5.36442e-06 8.35888 -5.36442e-06C8.64335 -5.36442e-06 8.91616 0.112998 9.11731 0.314147C9.31846 0.515297 9.43147 0.788114 9.43147 1.07258C9.43147 1.35705 9.31846 1.62987 9.11731 1.83102L4.51743 6.42876L16.9288 6.42876C17.2129 6.42876 17.4853 6.54162 17.6862 6.74252C17.8871 6.94341 18 7.21589 18 7.5Z" fill=""/>
</svg>
