<svg width="590" height="620" viewBox="0 0 590 620" fill="none" xmlns="http://www.w3.org/2000/svg">
<path opacity="0.05" fill-rule="evenodd" clip-rule="evenodd" d="M283.815 12.4146C342.617 14.075 402.696 1.07968 455.321 27.3657C513.709 56.5301 576.182 100.361 588.285 164.495C600.258 227.935 535.692 277.41 513.983 338.21C493.236 396.318 503.371 464.072 464.276 511.807C418.805 567.326 355.436 614.725 283.815 619.245C210.587 623.867 139.609 585.788 86.0085 535.681C36.2487 489.165 10.3193 422.724 1.35794 355.2C-6.52573 295.796 21.7339 241.269 39.3338 183.987C57.3012 125.509 55.0488 52.6189 105.124 17.477C155.123 -17.6112 222.757 10.6905 283.815 12.4146Z" fill="#00BB98"/>
</svg>
