<svg width="524" height="579" viewBox="0 0 524 579" fill="none" xmlns="http://www.w3.org/2000/svg">
<path opacity="0.05" fill-rule="evenodd" clip-rule="evenodd" d="M459.501 249.516C469.754 300.909 521.271 342.978 510.311 394.225C498.762 448.225 451.576 489.039 402.756 514.846C353.755 540.749 296.698 544.69 241.943 536.09C187.526 527.542 133.715 507.265 96.4168 466.729C60.1354 427.299 52.4734 372.105 42.5968 319.44C32.5104 265.656 14.9337 208.597 38.7696 159.34C62.6983 109.891 117.105 85.3532 166.998 62.3651C214.625 40.4209 265.348 23.4386 317.234 31.0369C369.205 38.6477 423.782 60.1508 452.444 104.167C479.577 145.835 449.773 200.753 459.501 249.516Z" fill="#781BFF"/>
</svg>
