<svg width="34" height="31" viewBox="0 0 34 31" fill="none" xmlns="http://www.w3.org/2000/svg">
<path d="M25.8172 10.6765L19.1625 16.0334C18.5516 16.5131 17.7974 16.7738 17.0206 16.7738C16.2439 16.7738 15.4897 16.5131 14.8788 16.0334L8.16797 10.6765" stroke="white" stroke-width="3" stroke-linecap="round" stroke-linejoin="round"/>
<path fill-rule="evenodd" clip-rule="evenodd" d="M9.625 2H24.3321C26.4537 2.0234 28.4707 2.92037 29.9167 4.48031C30.633 5.25436 31.1855 6.16519 31.541 7.15811C31.8964 8.15104 32.0475 9.20556 31.9852 10.2583V20.4417C32.0475 21.4944 31.8964 22.549 31.541 23.5419C31.1855 24.5348 30.633 25.4456 29.9167 26.2197C29.2032 26.9908 28.34 27.6084 27.3798 28.0349C26.4197 28.4613 25.3827 28.6876 24.3321 28.7H9.625C5.06997 28.7 2 24.9951 2 20.4417V10.2583C2 5.70487 5.06997 2 9.625 2Z" stroke="white" stroke-width="3" stroke-linecap="round" stroke-linejoin="round"/>
</svg>
