<svg width="24" height="33" viewBox="0 0 24 33" fill="none" xmlns="http://www.w3.org/2000/svg">
<path d="M19.6338 2.73177C18.2543 1.59722 16.6389 0.784931 14.9055 0.354179C13.1721 -0.0765736 11.3644 -0.114926 9.61435 0.241919C7.28405 0.712625 5.14609 1.86493 3.47173 3.55265C1.79737 5.24036 0.662082 7.3874 0.2099 9.72136C-0.12031 11.4713 -0.0603058 13.2726 0.385633 14.9968C0.831572 16.7209 1.65246 18.3254 2.78975 19.6958C3.84521 20.8868 4.4502 22.4099 4.49965 24.0005V28.5003C4.49965 29.6937 4.97373 30.8382 5.81759 31.6821C6.66145 32.5259 7.80598 33 8.99938 33H14.999C16.1924 33 17.337 32.5259 18.1808 31.6821C19.0247 30.8382 19.4988 29.6937 19.4988 28.5003V24.2855C19.5491 22.5294 20.1943 20.8424 21.3287 19.5008C23.3162 17.0421 24.2531 13.8983 23.9358 10.7527C23.6184 7.60714 22.0724 4.71389 19.6338 2.70178V2.73177ZM16.4989 28.5003C16.4989 28.8981 16.3409 29.2796 16.0596 29.5609C15.7783 29.8422 15.3968 30.0002 14.999 30.0002H8.99938C8.60158 30.0002 8.22007 29.8422 7.93879 29.5609C7.6575 29.2796 7.49947 28.8981 7.49947 28.5003V27.0004H16.4989V28.5003ZM19.0038 17.6409C17.4956 19.4297 16.6157 21.6637 16.4989 24.0005H13.4991V19.5008C13.4991 19.103 13.3411 18.7215 13.0598 18.4402C12.7785 18.1589 12.397 18.0009 11.9992 18.0009C11.6014 18.0009 11.2199 18.1589 10.9386 18.4402C10.6573 18.7215 10.4993 19.103 10.4993 19.5008V24.0005H7.49947C7.4599 21.7028 6.60994 19.4929 5.09961 17.7609C4.10313 16.567 3.43305 15.1352 3.15469 13.6052C2.87634 12.0751 2.99921 10.4991 3.51134 9.0307C4.02346 7.56231 4.90736 6.25168 6.07684 5.22662C7.24632 4.20155 8.66147 3.49703 10.1843 3.18175C11.4931 2.91228 12.8454 2.93763 14.1431 3.25595C15.4409 3.57427 16.6514 4.17758 17.6869 5.02207C18.7225 5.86656 19.5569 6.93104 20.1297 8.13823C20.7026 9.34542 20.9994 10.665 20.9987 12.0012C21.0098 14.0559 20.3044 16.0502 19.0038 17.6409Z" fill="white"/>
</svg>
