<svg width="29" height="34" viewBox="0 0 29 34" fill="none" xmlns="http://www.w3.org/2000/svg">
<path d="M11.0838 30.2785C11.8444 31.2201 12.9433 31.8266 14.1454 31.9682C15.3476 32.1098 16.5574 31.7752 17.5159 31.036C17.8099 30.817 18.0739 30.562 18.3019 30.2785M2.00112 19.6808V19.3523C2.05039 18.3784 2.36244 17.4361 2.90414 16.6252C3.80513 15.6522 4.42428 14.4523 4.69517 13.1542C4.69517 12.1552 4.69517 11.1412 4.78217 10.1406C5.23218 5.32706 9.99176 2 14.6913 2H14.8083C19.5079 2 24.2675 5.32706 24.734 10.1406C24.821 11.1412 24.734 12.1552 24.806 13.1542C25.0802 14.4548 25.6982 15.6581 26.5955 16.6387C27.143 17.4458 27.455 18.3848 27.4985 19.3538V19.6673C27.5315 20.9723 27.0815 22.2458 26.2325 23.2524C25.1015 24.4324 23.5811 25.1625 21.953 25.3074C17.1604 25.8219 12.3243 25.8219 7.53172 25.3074C5.90538 25.156 4.38711 24.427 3.25215 23.2524C2.4188 22.2518 1.97458 20.9841 2.00112 19.6823V19.6808Z" stroke="white" stroke-width="3" stroke-linecap="round" stroke-linejoin="round"/>
</svg>
