<svg width="26" height="26" viewBox="0 0 26 26" fill="none" xmlns="http://www.w3.org/2000/svg">
<mask id="path-1-inside-1" fill="white">
<path d="M18.2988 0H22.6993C23.1346 0.00170356 23.5652 0.089146 23.9667 0.257332C24.3682 0.425519 24.7326 0.671154 25.0391 0.980205C25.3456 1.28926 25.5882 1.65567 25.7531 2.05851C25.918 2.46135 26.0019 2.89273 26 3.328V7.7675C26.0019 8.20277 25.918 8.63415 25.7531 9.03699C25.5882 9.43983 25.3456 9.80624 25.0391 10.1153C24.7326 10.4243 24.3682 10.67 23.9667 10.8382C23.5652 11.0064 23.1346 11.0938 22.6993 11.0955H18.2988C17.8635 11.0938 17.4328 11.0064 17.0314 10.8382C16.6299 10.67 16.2655 10.4243 15.959 10.1153C15.6525 9.80624 15.4098 9.43983 15.245 9.03699C15.0801 8.63415 14.9962 8.20277 14.9981 7.7675V3.328C14.9962 2.89273 15.0801 2.46135 15.245 2.05851C15.4098 1.65567 15.6525 1.28926 15.959 0.980205C16.2655 0.671154 16.6299 0.425519 17.0314 0.257332C17.4328 0.089146 17.8635 0.00170356 18.2988 0Z"/>
</mask>
<path d="M22.6993 0L22.7071 -2H22.6993V0ZM26 3.328L24 3.31935V3.328H26ZM26 7.7675H24L24 7.77615L26 7.7675ZM22.6993 11.0955V13.0955L22.7071 13.0955L22.6993 11.0955ZM18.2988 11.0955L18.291 13.0955H18.2988V11.0955ZM14.9981 7.7675L16.9981 7.77615V7.7675H14.9981ZM14.9981 3.328H16.9981L16.9981 3.31935L14.9981 3.328ZM18.2988 2H22.6993V-2H18.2988V2ZM22.6915 1.99998C22.864 2.00066 23.0348 2.03533 23.1939 2.102L24.7395 -1.58734C24.0957 -1.85703 23.4051 -1.99725 22.7071 -1.99998L22.6915 1.99998ZM23.1939 2.102C23.3531 2.16868 23.4975 2.26606 23.6191 2.38858L26.4591 -0.428172C25.9676 -0.923753 25.3833 -1.31764 24.7395 -1.58734L23.1939 2.102ZM23.6191 2.38858C23.7406 2.5111 23.8368 2.65637 23.9021 2.81607L27.6041 1.30095C27.3397 0.65497 26.9506 0.0674083 26.4591 -0.428172L23.6191 2.38858ZM23.9021 2.81607C23.9675 2.97577 24.0007 3.14679 24 3.31935L28 3.33665C28.003 2.63866 27.8685 1.94693 27.6041 1.30095L23.9021 2.81607ZM24 3.328V7.7675H28V3.328H24ZM24 7.77615C24.0007 7.94871 23.9675 8.11973 23.9021 8.27943L27.6041 9.79455C27.8685 9.14857 28.003 8.45683 28 7.75885L24 7.77615ZM23.9021 8.27943C23.8368 8.43913 23.7406 8.5844 23.6191 8.70692L26.4591 11.5237C26.9506 11.0281 27.3397 10.4405 27.6041 9.79455L23.9021 8.27943ZM23.6191 8.70692C23.4975 8.82944 23.3531 8.92682 23.1939 8.9935L24.7395 12.6828C25.3833 12.4131 25.9676 12.0193 26.4591 11.5237L23.6191 8.70692ZM23.1939 8.9935C23.0348 9.06017 22.864 9.09484 22.6915 9.09551L22.7071 13.0955C23.4051 13.0928 24.0957 12.9525 24.7395 12.6828L23.1939 8.9935ZM22.6993 9.0955H18.2988V13.0955H22.6993V9.0955ZM18.3066 9.09551C18.134 9.09484 17.9633 9.06017 17.8041 8.9935L16.2586 12.6828C16.9024 12.9525 17.593 13.0928 18.291 13.0955L18.3066 9.09551ZM17.8041 8.9935C17.645 8.92682 17.5005 8.82944 17.379 8.70692L14.539 11.5237C15.0305 12.0193 15.6148 12.4131 16.2586 12.6828L17.8041 8.9935ZM17.379 8.70692C17.2575 8.58439 17.1613 8.43913 17.0959 8.27943L13.394 9.79455C13.6584 10.4405 14.0474 11.0281 14.539 11.5237L17.379 8.70692ZM17.0959 8.27943C17.0306 8.11973 16.9973 7.94871 16.9981 7.77615L12.9981 7.75885C12.9951 8.45683 13.1296 9.14857 13.394 9.79455L17.0959 8.27943ZM16.9981 7.7675V3.328H12.9981V7.7675H16.9981ZM16.9981 3.31935C16.9973 3.14679 17.0306 2.97577 17.0959 2.81607L13.394 1.30095C13.1296 1.94693 12.9951 2.63866 12.9981 3.33665L16.9981 3.31935ZM17.0959 2.81607C17.1613 2.65637 17.2575 2.51111 17.379 2.38858L14.539 -0.428172C14.0474 0.0674059 13.6584 0.654967 13.394 1.30095L17.0959 2.81607ZM17.379 2.38858C17.5005 2.26606 17.645 2.16868 17.8041 2.102L16.2586 -1.58734C15.6148 -1.31764 15.0305 -0.923753 14.539 -0.428172L17.379 2.38858ZM17.8041 2.102C17.9633 2.03533 18.134 2.00066 18.3066 1.99998L18.291 -1.99998C17.593 -1.99725 16.9024 -1.85703 16.2586 -1.58734L17.8041 2.102Z" fill="white" mask="url(#path-1-inside-1)"/>
<path d="M7.36733 15.9045L7.69732 15.9058C8.00124 15.907 8.30194 15.968 8.58226 16.0855C8.86257 16.2029 9.11701 16.3744 9.33103 16.5902C9.54504 16.806 9.71445 17.0618 9.82957 17.3431C9.94469 17.6244 10.0033 17.9256 10.0019 18.2295V18.2338L10.0019 22.672L10.0019 22.6759C10.0044 23.2898 9.76289 23.8794 9.33064 24.3152C8.89887 24.7506 8.31203 24.9968 7.69894 25H3.30418C3.00077 24.9986 2.70059 24.9375 2.42073 24.8203C2.14031 24.7029 1.88578 24.5314 1.67165 24.3155C1.45753 24.0997 1.28801 23.8439 1.17277 23.5625C1.05753 23.2812 0.998835 22.9799 1.00004 22.6759V22.672L1.00005 18.2325L1.00003 18.2282C0.998714 17.9243 1.05729 17.6231 1.17241 17.3418C1.28753 17.0605 1.45693 16.8047 1.67095 16.5889C1.88497 16.3731 2.1394 16.2016 2.41971 16.0842L2.03332 15.1618L2.41972 16.0842C2.69948 15.967 2.99956 15.9059 3.30287 15.9045H7.36733ZM22.3654 15.9045L22.6954 15.9058C22.9993 15.907 23.3 15.968 23.5804 16.0855C23.8607 16.2029 24.1151 16.3744 24.3291 16.5902C24.5431 16.806 24.7125 17.0618 24.8277 17.3431C24.9428 17.6244 25.0014 17.9256 25 18.2295V18.2338L25 22.672L25 22.6759C25.0025 23.2898 24.761 23.8794 24.3287 24.3152C23.897 24.7506 23.3101 24.9968 22.697 25H18.3011C17.688 24.9968 17.1012 24.7506 16.6694 24.3152C16.2372 23.8794 15.9957 23.2898 15.9981 22.6759V22.672L15.9981 18.2325L15.9981 18.2282C15.9968 17.9243 16.0554 17.6231 16.1705 17.3418C16.2856 17.0605 16.455 16.8047 16.6691 16.5889C16.8831 16.3731 17.1375 16.2016 17.4178 16.0842C17.6976 15.967 17.9977 15.9059 18.301 15.9045H22.3654ZM10.0019 3.32368H10.0019V3.328L10.0019 7.7675L10.0019 7.77182C10.0033 8.07574 9.94469 8.37694 9.82957 8.65821C9.71445 8.93948 9.54504 9.19532 9.33103 9.41111C9.11701 9.62689 8.86257 9.7984 8.58226 9.91583C8.30249 10.033 8.00241 10.0941 7.6991 10.0955H3.30407C3.0005 10.0942 2.70015 10.0332 2.42013 9.916L2.04474 10.8126L2.42013 9.916C2.13965 9.79857 1.88507 9.627 1.67095 9.4111C1.45682 9.19521 1.28735 8.93923 1.17223 8.65779C1.05711 8.37635 0.998592 8.07498 1.00003 7.77091H1.00004V7.7662V3.328H1.00005L1.00003 3.32368C0.998714 3.01976 1.05729 2.71856 1.17241 2.43729C1.28753 2.15602 1.45693 1.90018 1.67095 1.68439C1.88497 1.46861 2.1394 1.2971 2.41971 1.17967C2.69948 1.06246 2.99956 1.00142 3.30288 1H7.6991C8.00241 1.00142 8.30249 1.06246 8.58226 1.17967C8.86257 1.2971 9.11701 1.46861 9.33102 1.68439C9.54504 1.90018 9.71445 2.15602 9.82957 2.43729C9.94469 2.71856 10.0033 3.01976 10.0019 3.32368Z" stroke="white" stroke-width="2"/>
</svg>
