<svg width="32" height="34" viewBox="0 0 32 34" fill="none" xmlns="http://www.w3.org/2000/svg">
<path fill-rule="evenodd" clip-rule="evenodd" d="M29.3563 10.3436L28.384 8.658C27.9894 7.97317 27.3393 7.47278 26.5763 7.26652C25.8132 7.06026 24.9996 7.16497 24.3137 7.5577V7.5577C23.9769 7.75626 23.6042 7.88641 23.217 7.94069C22.8298 7.99497 22.4357 7.97231 22.0573 7.87401C21.6789 7.77571 21.3236 7.6037 21.0118 7.36784C20.7 7.13198 20.4378 6.83691 20.2402 6.49953C19.9842 6.06684 19.8469 5.57423 19.8422 5.07148V5.07148C19.8537 4.67211 19.7849 4.27449 19.6399 3.90218C19.4949 3.52988 19.2767 3.19046 18.9981 2.90404C18.7196 2.61762 18.3864 2.39003 18.0182 2.23474C17.6501 2.07945 17.2546 1.99963 16.855 2H14.8979C14.5066 2.0002 14.1192 2.07768 13.7579 2.22799C13.3967 2.37829 13.0686 2.59847 12.7927 2.87587C12.5167 3.15328 12.2983 3.48246 12.1499 3.84451C12.0014 4.20656 11.926 4.59436 11.9278 4.98564V4.98564C11.9168 5.77016 11.5973 6.51879 11.0386 7.06962C10.4799 7.62046 9.7268 7.92922 8.94221 7.92914C8.43864 7.92382 7.94543 7.78544 7.51259 7.52804V7.52804C6.82667 7.13532 6.013 7.03061 5.24999 7.23686C4.48699 7.44312 3.8369 7.94352 3.44226 8.62834L2.39814 10.3436C2.00424 11.0278 1.89739 11.8402 2.10096 12.603C2.30454 13.3658 2.80196 14.0169 3.4844 14.4139V14.4139C3.93849 14.6759 4.31559 15.0528 4.57778 15.5068C4.83997 15.9608 4.97801 16.4758 4.97801 17C4.97801 17.5242 4.83997 18.0393 4.57778 18.4932C4.31559 18.9472 3.93849 19.3241 3.4844 19.5861V19.5861C2.8025 19.9804 2.30504 20.6293 2.10135 21.3902C1.89767 22.1511 2.00442 22.9617 2.39814 23.644V23.644L3.38451 25.3436C3.57521 25.6876 3.83201 25.9905 4.14015 26.235C4.4483 26.4795 4.80171 26.6607 5.18009 26.7681C5.55847 26.8756 5.95435 26.9072 6.345 26.8612C6.73564 26.8152 7.11335 26.6925 7.45641 26.5001C7.79374 26.3032 8.16671 26.1752 8.5538 26.1233C8.94088 26.0713 9.33442 26.0966 9.71169 26.1976C10.089 26.2986 10.4425 26.4733 10.7519 26.7117C11.0613 26.95 11.3204 27.2473 11.5143 27.5863C11.7702 28.0186 11.9076 28.5118 11.9122 29.0144C11.9122 30.664 13.2498 32 14.8979 32H16.855C18.4984 32 19.8329 30.6734 19.8422 29.0284C19.8404 28.6358 19.9163 28.2467 20.0657 27.8837C20.2151 27.5206 20.4349 27.1907 20.7125 26.9131C20.9902 26.6355 21.32 26.4156 21.6831 26.2662C22.0462 26.1169 22.4353 26.0409 22.8279 26.0428C23.3288 26.0568 23.8205 26.1942 24.2559 26.4423C24.9401 26.8368 25.7527 26.9442 26.5159 26.7409C27.279 26.5376 27.9306 26.0402 28.3278 25.3576L29.3563 23.6424C29.5532 23.3041 29.6813 22.9301 29.7333 22.5421C29.7853 22.1541 29.7601 21.7597 29.6591 21.3815C29.5582 21.0032 29.3835 20.6487 29.1451 20.3382C28.9067 20.0276 28.6094 19.7673 28.2701 19.5721V19.5721C27.9303 19.3768 27.6326 19.1163 27.3939 18.8056C27.1553 18.4948 26.9805 18.1399 26.8795 17.7613C26.7785 17.3827 26.7534 16.9879 26.8057 16.5996C26.8579 16.2112 26.9864 15.8371 27.1838 15.4986C27.4429 15.0476 27.8175 14.673 28.2701 14.4139C28.9491 14.017 29.4441 13.3681 29.6475 12.6083C29.8509 11.8485 29.7463 11.0391 29.3563 10.3561V10.3561V10.3436V10.3436Z" stroke="white" stroke-width="3" stroke-linecap="round" stroke-linejoin="round"/>
<path d="M15.8845 21.1131C18.1567 21.1131 19.9986 19.2712 19.9986 16.999C19.9986 14.7269 18.1567 12.885 15.8845 12.885C13.6124 12.885 11.7705 14.7269 11.7705 16.999C11.7705 19.2712 13.6124 21.1131 15.8845 21.1131Z" stroke="white" stroke-width="3" stroke-linecap="round" stroke-linejoin="round"/>
</svg>
