<svg width="12" height="9" viewBox="0 0 12 9" fill="none" xmlns="http://www.w3.org/2000/svg">
<path d="M11.0429 0.237875C10.9682 0.162501 10.8792 0.102674 10.7812 0.0618468C10.6832 0.0210197 10.5781 0 10.472 0C10.3658 0 10.2607 0.0210197 10.1627 0.0618468C10.0647 0.102674 9.97576 0.162501 9.901 0.237875L3.90986 6.23706L1.39278 3.71193C1.31516 3.63695 1.22353 3.57799 1.12312 3.53842C1.02271 3.49886 0.915498 3.47945 0.807593 3.48132C0.699688 3.48318 0.593207 3.50629 0.49423 3.5493C0.395253 3.59232 0.305718 3.65442 0.230737 3.73204C0.155757 3.80966 0.096799 3.90129 0.0572302 4.00169C0.0176613 4.1021 -0.0017439 4.20931 0.000122974 4.31722C0.00198985 4.42512 0.0250922 4.53161 0.0681105 4.63058C0.111129 4.72956 0.173221 4.8191 0.250842 4.89408L3.33889 7.98213C3.41365 8.0575 3.50259 8.11733 3.60059 8.15815C3.69859 8.19898 3.8037 8.22 3.90986 8.22C4.01602 8.22 4.12113 8.19898 4.21913 8.15815C4.31712 8.11733 4.40607 8.0575 4.48083 7.98213L11.0429 1.42002C11.1246 1.34471 11.1897 1.25332 11.2343 1.15159C11.2788 1.04986 11.3018 0.940006 11.3018 0.828947C11.3018 0.717889 11.2788 0.608033 11.2343 0.506305C11.1897 0.404577 11.1246 0.31318 11.0429 0.237875Z" fill="white"/>
</svg>
