<svg width="65" height="60" viewBox="0 0 65 60" fill="none" xmlns="http://www.w3.org/2000/svg">
<path d="M58.9351 5.35706H61.0779V20.3568H58.9351V5.35706Z" fill="#0455BF"/>
<path d="M58.9351 5.35706H60.0065V20.3568H58.9351V5.35706Z" fill="#004787"/>
<path d="M63.2206 35.3566H56.7921C56.508 35.3566 56.2354 35.2437 56.0345 35.0428C55.8336 34.8418 55.7207 34.5693 55.7207 34.2851V21.4282C55.7207 21.1441 55.8336 20.8715 56.0345 20.6706C56.2354 20.4697 56.508 20.3568 56.7921 20.3568H63.2206C63.5047 20.3568 63.7773 20.4697 63.9782 20.6706C64.1791 20.8715 64.292 21.1441 64.292 21.4282V34.2851C64.292 34.5693 64.1791 34.8418 63.9782 35.0428C63.7773 35.2437 63.5047 35.3566 63.2206 35.3566Z" fill="#F74E0C"/>
<path d="M64.292 33.2137C62.5871 33.2137 60.9519 32.5365 59.7464 31.3309C58.5408 30.1253 57.8635 28.4902 57.8635 26.7853V20.3568H56.7921C56.508 20.3568 56.2354 20.4697 56.0345 20.6706C55.8336 20.8715 55.7207 21.1441 55.7207 21.4282V34.2851C55.7207 34.5693 55.8336 34.8418 56.0345 35.0428C56.2354 35.2437 56.508 35.3566 56.7921 35.3566H63.2206C63.5047 35.3566 63.7773 35.2437 63.9782 35.0428C64.1791 34.8418 64.292 34.5693 64.292 34.2851V33.2137Z" fill="#CC2600"/>
<path d="M52.5062 25.7139H16.0782C15.7941 25.7139 15.5216 25.601 15.3206 25.4C15.1197 25.1991 15.0068 24.9266 15.0068 24.6424V5.35706C15.0068 5.0729 15.1197 4.80038 15.3206 4.59945C15.5216 4.39853 15.7941 4.28564 16.0782 4.28564H52.5062C52.7904 4.28564 53.0629 4.39853 53.2638 4.59945C53.4647 4.80038 53.5776 5.0729 53.5776 5.35706V24.6424C53.5776 24.9266 53.4647 25.1991 53.2638 25.4C53.0629 25.601 52.7904 25.7139 52.5062 25.7139Z" fill="#0455BF"/>
<path d="M36.435 23.571C31.3202 23.571 26.4149 21.5392 22.7982 17.9225C19.1815 14.3058 17.1497 9.40045 17.1497 4.28564H16.0782C15.7941 4.28564 15.5216 4.39853 15.3206 4.59945C15.1197 4.80038 15.0068 5.0729 15.0068 5.35706V24.6424C15.0068 24.9266 15.1197 25.1991 15.3206 25.4C15.5216 25.601 15.7941 25.7139 16.0782 25.7139H52.5062C52.7904 25.7139 53.0629 25.601 53.2638 25.4C53.4647 25.1991 53.5776 24.9266 53.5776 24.6424V23.571H36.435Z" fill="#004787"/>
<path d="M62.149 6.42846H6.43567C6.15151 6.42846 5.879 6.31558 5.67807 6.11465C5.47714 5.91373 5.36426 5.64121 5.36426 5.35705V1.07141C5.36426 0.787255 5.47714 0.514738 5.67807 0.313809C5.879 0.112881 6.15151 0 6.43567 0H62.149C62.4332 0 62.7057 0.112881 62.9066 0.313809C63.1075 0.514738 63.2204 0.787255 63.2204 1.07141V5.35705C63.2204 5.64121 63.1075 5.91373 62.9066 6.11465C62.7057 6.31558 62.4332 6.42846 62.149 6.42846Z" fill="#0455BF"/>
<path d="M8.57849 4.28564C8.29433 4.28564 8.02182 4.17276 7.82089 3.97183C7.61996 3.7709 7.50708 3.49839 7.50708 3.21423V0H6.43567C6.15151 0 5.879 0.112881 5.67807 0.313809C5.47714 0.514738 5.36426 0.787255 5.36426 1.07141V5.35705C5.36426 5.64121 5.47714 5.91373 5.67807 6.11465C5.879 6.31558 6.15151 6.42846 6.43567 6.42846H62.149C62.4332 6.42846 62.7057 6.31558 62.9066 6.11465C63.1075 5.91373 63.2204 5.64121 63.2204 5.35705V4.28564H8.57849Z" fill="#004787"/>
<path d="M60.0064 55.7134H10.7216C9.82324 55.7121 8.93511 55.523 8.1142 55.1582C7.29329 54.7934 6.55775 54.261 5.95481 53.5951C5.35186 52.9292 4.89484 52.1445 4.6131 51.2916C4.33135 50.4386 4.23111 49.5361 4.3188 48.6421C4.52482 47.0313 5.31512 45.5522 6.53966 44.4857C7.76421 43.4192 9.33775 42.8394 10.9615 42.8564H60.0064C60.2906 42.8564 60.5631 42.9693 60.764 43.1702C60.965 43.3712 61.0779 43.6437 61.0779 43.9278V54.642C61.0779 54.9261 60.965 55.1986 60.764 55.3996C60.5631 55.6005 60.2906 55.7134 60.0064 55.7134ZM43.8067 36.428H4.29309C4.00893 36.428 3.73642 36.3151 3.53549 36.1142C3.33456 35.9132 3.22168 35.6407 3.22168 35.3566V28.9281C3.22168 28.6439 3.33456 28.3714 3.53549 28.1705C3.73642 27.9696 4.00893 27.8567 4.29309 27.8567H43.9353C44.5698 27.8565 45.1965 27.9971 45.77 28.2686C46.3435 28.54 46.8496 28.9354 47.2518 29.4262C47.6539 29.917 47.9421 30.491 48.0954 31.1067C48.2487 31.7224 48.2634 32.3645 48.1384 32.9866C47.9282 33.9739 47.3809 34.8572 46.5905 35.4851C45.8002 36.1131 44.816 36.4464 43.8067 36.428Z" fill="#FDFEFF"/>
<path d="M61.0776 59.999H11.0642C8.30479 60.0365 5.63336 59.0286 3.58636 57.1778C1.53937 55.327 0.2684 52.7702 0.0286717 50.021C-0.0755436 48.5534 0.125834 47.0803 0.620074 45.6945C1.11431 44.3088 1.89067 43.0407 2.90005 41.9704C3.90294 40.9002 5.11416 40.0466 6.45922 39.462C7.80428 38.8773 9.25473 38.574 10.7214 38.5708H61.0776C61.9301 38.5708 62.7477 38.9094 63.3505 39.5122C63.9532 40.115 64.2919 40.9326 64.2919 41.785C64.2871 42.636 63.9469 43.4508 63.3452 44.0526C62.7434 44.6543 61.9286 44.9945 61.0776 44.9993H10.9571C9.86498 44.9802 8.80383 45.3623 7.97453 46.0731C7.14524 46.784 6.60536 47.7742 6.45714 48.8563C6.39611 49.4529 6.46193 50.0555 6.65028 50.6248C6.83862 51.1941 7.14523 51.7171 7.54997 52.1595C7.95157 52.6021 8.44099 52.9562 8.98702 53.1991C9.53305 53.4421 10.1237 53.5686 10.7214 53.5705H61.0776C61.9301 53.5705 62.7477 53.9092 63.3505 54.512C63.9532 55.1148 64.2919 55.9323 64.2919 56.7848C64.2871 57.6358 63.9469 58.4506 63.3452 59.0523C62.7434 59.6541 61.9286 59.9942 61.0776 59.999Z" fill="#FEBC00"/>
<path d="M63.2204 57.8563H13.207C10.4476 57.8938 7.77616 56.8859 5.72917 55.0351C3.68218 53.1843 2.41121 50.6275 2.17148 47.8783C1.99054 45.3276 2.7362 42.7973 4.27144 40.7523C2.84051 41.8146 1.70126 43.2213 0.959504 44.8417C0.217749 46.4622 -0.102447 48.2438 0.0286562 50.0211C0.268385 52.7703 1.53936 55.3271 3.58635 57.1779C5.63334 59.0288 8.30477 60.0366 11.0642 59.9991H61.0776C61.7671 59.9982 62.4378 59.7746 62.99 59.3617C63.5421 58.9487 63.9461 58.3685 64.1419 57.7074C63.8436 57.8016 63.5332 57.8518 63.2204 57.8563Z" fill="#EDAA03"/>
<path d="M43.6779 40.7136H4.29284C3.44038 40.7136 2.62283 40.375 2.02004 39.7722C1.41725 39.1694 1.07861 38.3519 1.07861 37.4994C1.0834 36.6484 1.42357 35.8336 2.02532 35.2319C2.62708 34.6301 3.44185 34.2899 4.29284 34.2852H43.8065C44.316 34.2987 44.8148 34.1374 45.2199 33.8281C45.6249 33.5187 45.9119 33.0799 46.0329 32.5848C46.0987 32.2726 46.0941 31.9497 46.0192 31.6396C45.9444 31.3294 45.8012 31.0399 45.6002 30.7921C45.3991 30.5444 45.1453 30.3447 44.8572 30.2075C44.5692 30.0704 44.2541 29.9993 43.935 29.9995H4.29284C3.44038 29.9995 2.62283 29.6609 2.02004 29.0581C1.41725 28.4553 1.07861 27.6377 1.07861 26.7853C1.0834 25.9343 1.42357 25.1195 2.02532 24.5178C2.62708 23.916 3.44185 23.5758 4.29284 23.571H43.935C45.155 23.5722 46.3607 23.8335 47.4717 24.3375C48.5827 24.8415 49.5734 25.5766 50.3778 26.4939C51.1822 27.4111 51.7817 28.4893 52.1363 29.6566C52.491 30.8239 52.5927 32.0534 52.4345 33.263C52.1268 35.3557 51.069 37.2652 49.458 38.6358C47.8471 40.0065 45.7928 40.745 43.6779 40.7136Z" fill="#F74E0C"/>
<path d="M50.373 26.4887C49.9168 25.9738 49.4003 25.5158 48.8344 25.1248C50.0455 26.8757 50.5646 29.0133 50.2915 31.1247C49.9829 33.2165 48.9246 35.125 47.3137 36.4948C45.7029 37.8646 43.6492 38.6024 41.5349 38.571H2.14983C1.83726 38.5665 1.52709 38.5156 1.22949 38.4199C1.42571 39.0807 1.82964 39.6607 2.38139 40.0739C2.93314 40.487 3.60335 40.7114 4.29265 40.7138H43.6777C45.7926 40.7451 47.8469 40.0067 49.4578 38.636C51.0688 37.2653 52.1266 35.3559 52.4343 33.2632C52.5915 32.0524 52.489 30.8219 52.1335 29.6538C51.7781 28.4857 51.1779 27.4067 50.373 26.4887Z" fill="#CC2600"/>
<path d="M31.0781 31.0709H42.8636V33.2137H31.0781V31.0709ZM39.6494 48.2135H61.0776V50.3563H39.6494V48.2135ZM35.3638 48.2135H37.5066V50.3563H35.3638V48.2135ZM26.7925 31.0709H28.9353V33.2137H26.7925V31.0709Z" fill="#DFEAEF"/>
</svg>
