<svg width="60" height="60" viewBox="0 0 60 60" fill="none" xmlns="http://www.w3.org/2000/svg">
<path d="M45 60H15C14.2044 60 13.4413 59.6839 12.8787 59.1213C12.3161 58.5587 12 57.7957 12 57V3C12 2.20435 12.3161 1.44129 12.8787 0.87868C13.4413 0.316071 14.2044 0 15 0H45C45.7957 0 46.5587 0.316071 47.1213 0.87868C47.6839 1.44129 48 2.20435 48 3V57C48 57.7957 47.6839 58.5587 47.1213 59.1213C46.5587 59.6839 45.7957 60 45 60Z" fill="#FDFEFF"/>
<path d="M32 19H48V42H41.414L35.707 47.707C35.5195 47.8946 35.2652 47.9999 35 48C34.8685 48.0004 34.7383 47.9746 34.617 47.924C34.4343 47.8483 34.2782 47.72 34.1684 47.5556C34.0585 47.3911 34 47.1978 34 47V42H32C31.7348 42 31.4804 41.8946 31.2929 41.7071C31.1054 41.5196 31 41.2652 31 41V20C31 19.7348 31.1054 19.4804 31.2929 19.2929C31.4804 19.1054 31.7348 19 32 19ZM14 57V3C14 2.20435 14.3161 1.44129 14.8787 0.87868C15.4413 0.316071 16.2044 0 17 0H15C14.2044 0 13.4413 0.316071 12.8787 0.87868C12.3161 1.44129 12 2.20435 12 3V57C12 57.7957 12.3161 58.5587 12.8787 59.1213C13.4413 59.6839 14.2044 60 15 60H17C16.2044 60 15.4413 59.6839 14.8787 59.1213C14.3161 58.5587 14 57.7957 14 57Z" fill="#DFEAEF"/>
<path d="M37 46C36.8685 46.0004 36.7383 45.9746 36.617 45.924C36.4343 45.8483 36.2782 45.72 36.1684 45.5556C36.0585 45.3911 36 45.1978 36 45L35.984 40H34C33.7348 40 33.4804 39.8946 33.2929 39.7071C33.1054 39.5196 33 39.2652 33 39V18C33 17.7348 33.1054 17.4804 33.2929 17.2929C33.4804 17.1054 33.7348 17 34 17H59C59.2652 17 59.5196 17.1054 59.7071 17.2929C59.8946 17.4804 60 17.7348 60 18V39C60 39.2652 59.8946 39.5196 59.7071 39.7071C59.5196 39.8946 59.2652 40 59 40H43.414L37.707 45.707C37.5195 45.8946 37.2652 45.9999 37 46Z" fill="#F74E0C"/>
<path d="M46 60H14C13.4696 60 12.9609 59.7893 12.5858 59.4142C12.2107 59.0391 12 58.5304 12 58V48H48V58C48 58.5304 47.7893 59.0391 47.4142 59.4142C47.0391 59.7893 46.5304 60 46 60Z" fill="#0455BF"/>
<path d="M14 56V48H12V58C12 58.5304 12.2107 59.0391 12.5858 59.4142C12.9609 59.7893 13.4696 60 14 60H46C46.5304 60 47.0391 59.7893 47.4142 59.4142C47.7893 59.0391 48 58.5304 48 58H16C15.4696 58 14.9609 57.7893 14.5858 57.4142C14.2107 57.0391 14 56.5304 14 56Z" fill="#004787"/>
<path d="M30 57C29.4067 57 28.8266 56.8241 28.3333 56.4944C27.8399 56.1648 27.4554 55.6962 27.2284 55.148C27.0013 54.5999 26.9419 53.9967 27.0576 53.4147C27.1734 52.8328 27.4591 52.2982 27.8787 51.8787C28.2982 51.4591 28.8328 51.1734 29.4147 51.0576C29.9967 50.9419 30.5999 51.0013 31.148 51.2284C31.6962 51.4554 32.1648 51.8399 32.4944 52.3333C32.8241 52.8266 33 53.4067 33 54C33 54.7957 32.6839 55.5587 32.1213 56.1213C31.5587 56.6839 30.7957 57 30 57Z" fill="#FDFEFF"/>
<path d="M48 8H12V2C12 1.46957 12.2107 0.960859 12.5858 0.585786C12.9609 0.210714 13.4696 0 14 0H46C46.5304 0 47.0391 0.210714 47.4142 0.585786C47.7893 0.960859 48 1.46957 48 2V8Z" fill="#0455BF"/>
<path d="M16 0H14C13.4696 0 12.9609 0.210714 12.5858 0.585786C12.2107 0.960859 12 1.46957 12 2V8H14V2C14 1.46957 14.2107 0.960859 14.5858 0.585786C14.9609 0.210714 15.4696 0 16 0Z" fill="#004787"/>
<path d="M32 3H28C27.4477 3 27 3.44772 27 4C27 4.55228 27.4477 5 28 5H32C32.5523 5 33 4.55228 33 4C33 3.44772 32.5523 3 32 3Z" fill="#FDFEFF"/>
<path d="M28 12H14V35H18.586L24.293 40.707C24.4805 40.8946 24.7348 40.9999 25 41C25.1315 41.0004 25.2617 40.9746 25.383 40.924C25.5657 40.8483 25.7218 40.72 25.8316 40.5556C25.9415 40.3911 26 40.1978 26 40V35H28C28.2652 35 28.5196 34.8946 28.7071 34.7071C28.8946 34.5196 29 34.2652 29 34V13C29 12.7348 28.8946 12.4804 28.7071 12.2929C28.5196 12.1054 28.2652 12 28 12Z" fill="#DFEAEF"/>
<path d="M23 39C22.7348 38.9999 22.4805 38.8946 22.293 38.707L16.586 33H1C0.734784 33 0.48043 32.8946 0.292893 32.7071C0.105357 32.5196 0 32.2652 0 32V11C0 10.7348 0.105357 10.4804 0.292893 10.2929C0.48043 10.1054 0.734784 10 1 10H26C26.2652 10 26.5196 10.1054 26.7071 10.2929C26.8946 10.4804 27 10.7348 27 11V32C27 32.2652 26.8946 32.5196 26.7071 32.7071C26.5196 32.8946 26.2652 33 26 33H24V38C24 38.1978 23.9415 38.3911 23.8316 38.5556C23.7218 38.72 23.5657 38.8483 23.383 38.924C23.2617 38.9746 23.1315 39.0004 23 39Z" fill="#F74E0C"/>
<path d="M20.2068 27.793L18.1448 25.73C19.3474 24.4225 20.0101 22.7081 19.9997 20.9317C19.9893 19.1553 19.3064 17.4487 18.0886 16.1555C16.8707 14.8622 15.2082 14.0782 13.4356 13.9612C11.6631 13.8442 9.91196 14.4029 8.53468 15.5249C7.1574 16.6468 6.25617 18.2488 6.01233 20.0084C5.7685 21.768 6.20016 23.5547 7.22045 25.0089C8.24074 26.4631 9.77395 27.4769 11.5115 27.8463C13.2491 28.2157 15.0622 27.9133 16.5858 27L18.7928 29.207L20.2068 27.793ZM7.9998 21C7.9998 20.0111 8.29305 19.0444 8.84246 18.2221C9.39186 17.3999 10.1728 16.759 11.0864 16.3806C12 16.0021 13.0054 15.9031 13.9753 16.096C14.9452 16.289 15.8361 16.7652 16.5353 17.4644C17.2346 18.1637 17.7108 19.0546 17.9037 20.0245C18.0967 20.9944 17.9976 21.9998 17.6192 22.9134C17.2408 23.827 16.5999 24.6079 15.7777 25.1573C14.9554 25.7067 13.9887 26 12.9998 26C11.6742 25.9984 10.4034 25.4711 9.46602 24.5337C8.52869 23.5964 8.00139 22.3256 7.9998 21ZM46.9998 22C45.6742 22.0016 44.4034 22.5288 43.466 23.4662C42.5287 24.4035 42.0014 25.6744 41.9998 27V35H43.9998V31H49.9998V35H51.9998V27C51.9982 25.6744 51.4709 24.4035 50.5336 23.4662C49.5962 22.5288 48.3254 22.0016 46.9998 22ZM43.9998 29V27C43.9998 26.2043 44.3159 25.4413 44.8785 24.8786C45.4411 24.316 46.2042 24 46.9998 24C47.7955 24 48.5585 24.316 49.1211 24.8786C49.6837 25.4413 49.9998 26.2043 49.9998 27V29H43.9998Z" fill="#FEBC00"/>
</svg>
