<svg width="72" height="60" viewBox="0 0 72 60" fill="none" xmlns="http://www.w3.org/2000/svg">
<path d="M68.3985 50.3986H3.60036C3.28211 50.3986 2.97689 50.2722 2.75185 50.0471C2.52682 49.8221 2.40039 49.5169 2.40039 49.1986V1.19997C2.40039 0.881715 2.52682 0.5765 2.75185 0.351462C2.97689 0.126425 3.28211 0 3.60036 0H68.3985C68.7168 0 69.022 0.126425 69.247 0.351462C69.4721 0.5765 69.5985 0.881715 69.5985 1.19997V49.1986C69.5985 49.5169 69.4721 49.8221 69.247 50.0471C69.022 50.2722 68.7168 50.3986 68.3985 50.3986Z" fill="#0455BF"/>
<path d="M52.799 47.9987C40.0689 47.9987 27.8603 42.9417 18.8588 33.9402C9.85731 24.9387 4.80032 12.73 4.80032 0H3.60036C3.28211 0 2.97689 0.126425 2.75185 0.351462C2.52682 0.5765 2.40039 0.881715 2.40039 1.19997V49.1986C2.40039 49.5169 2.52682 49.8221 2.75185 50.0471C2.97689 50.2722 3.28211 50.3986 3.60036 50.3986H68.3985C68.7168 50.3986 69.022 50.2722 69.247 50.0471C69.4721 49.8221 69.5985 49.5169 69.5985 49.1986V47.9987H52.799Z" fill="#004787"/>
<path d="M63.5981 45.5982H8.39967C8.08142 45.5982 7.77621 45.4717 7.55117 45.2467C7.32613 45.0217 7.19971 44.7164 7.19971 44.3982V5.99928C7.19971 5.68103 7.32613 5.37582 7.55117 5.15078C7.77621 4.92574 8.08142 4.79932 8.39967 4.79932H63.5981C63.9164 4.79932 64.2216 4.92574 64.4466 5.15078C64.6717 5.37582 64.7981 5.68103 64.7981 5.99928V44.3982C64.7981 44.7164 64.6717 45.0217 64.4466 45.2467C64.2216 45.4717 63.9164 45.5982 63.5981 45.5982Z" fill="#FDFEFF"/>
<path d="M47.9986 43.1982C37.8145 43.1982 28.0476 39.1526 20.8464 31.9515C13.6452 24.7503 9.59964 14.9833 9.59964 4.79932H8.39967C8.08142 4.79932 7.77621 4.92574 7.55117 5.15078C7.32613 5.37582 7.19971 5.68103 7.19971 5.99928V44.3982C7.19971 44.7164 7.32613 45.0217 7.55117 45.2467C7.77621 45.4717 8.08142 45.5982 8.39967 45.5982H63.5981C63.9164 45.5982 64.2216 45.4717 64.4466 45.2467C64.6717 45.0217 64.7981 44.7164 64.7981 44.3982V43.1982H47.9986Z" fill="#DFEAEF"/>
<path d="M51.5967 18.0015H53.9966V34.801H51.5967V18.0015Z" fill="#0455BF"/>
<path d="M51.5967 19.1973H52.7966V35.9968H51.5967V19.1973Z" fill="#004787"/>
<path d="M55.1971 43.2002H50.3972C50.079 43.2002 49.7738 43.0738 49.5487 42.8487C49.3237 42.6237 49.1973 42.3185 49.1973 42.0002V33.6005C49.1973 33.2822 49.3237 32.977 49.5487 32.752C49.7738 32.5269 50.079 32.4005 50.3972 32.4005H55.1971C55.5153 32.4005 55.8206 32.5269 56.0456 32.752C56.2706 32.977 56.3971 33.2822 56.3971 33.6005V42.0002C56.3971 42.3185 56.2706 42.6237 56.0456 42.8487C55.8206 43.0738 55.5153 43.2002 55.1971 43.2002Z" fill="#F74E0C"/>
<path d="M52.7972 40.8003C52.4789 40.8003 52.1737 40.6739 51.9487 40.4488C51.7236 40.2238 51.5972 39.9186 51.5972 39.6003V32.4005H50.3972C50.079 32.4005 49.7738 32.5269 49.5487 32.752C49.3237 32.977 49.1973 33.2822 49.1973 33.6005V42.0002C49.1973 42.3185 49.3237 42.6237 49.5487 42.8487C49.7738 43.0738 50.079 43.2002 50.3972 43.2002H55.1971C55.5153 43.2002 55.8206 43.0738 56.0456 42.8487C56.2706 42.6237 56.3971 42.3185 56.3971 42.0002V40.8003H52.7972Z" fill="#CC2600"/>
<path d="M46.8001 20.4016H22.8008V31.2013C22.8009 31.3638 22.834 31.5247 22.8982 31.674C22.9623 31.8233 23.0562 31.9581 23.174 32.0701C26.6323 35.3634 31.2249 37.2002 36.0004 37.2002C40.7759 37.2002 45.3685 35.3634 48.8268 32.0701C48.9446 31.9581 49.0385 31.8233 49.1026 31.674C49.1668 31.5247 49.1999 31.3638 49.2 31.2013V20.4016H46.8001Z" fill="#0455BF"/>
<path d="M46.8001 20.4016H22.8008V31.2013C22.8009 31.3638 22.834 31.5247 22.8982 31.674C22.9623 31.8233 23.0562 31.9581 23.174 32.0701C26.6323 35.3634 31.2249 37.2002 36.0004 37.2002C40.7759 37.2002 45.3685 35.3634 48.8268 32.0701C48.9446 31.9581 49.0385 31.8233 49.1026 31.674C49.1668 31.5247 49.1999 31.3638 49.2 31.2013V20.4016H46.8001Z" fill="#0455BF"/>
<path d="M49.2 19.1973H22.8008V22.5152L34.6336 27.357C35.508 27.7151 36.488 27.7151 37.3624 27.357L49.2 22.5152V19.1973Z" fill="#004787"/>
<path d="M35.999 26.4257C35.8434 26.4258 35.6892 26.3952 35.5454 26.3357L17.8795 19.1119C17.6587 19.0219 17.4697 18.8681 17.3366 18.6702C17.2036 18.4723 17.1325 18.2392 17.1325 18.0008C17.1325 17.7623 17.2036 17.5292 17.3366 17.3313C17.4697 17.1334 17.6587 16.9796 17.8795 16.8896L35.5514 9.66581C35.8419 9.5458 36.1681 9.5458 36.4586 9.66581L54.1305 16.8896C54.3513 16.9796 54.5403 17.1334 54.6733 17.3313C54.8064 17.5292 54.8774 17.7623 54.8774 18.0008C54.8774 18.2392 54.8064 18.4723 54.6733 18.6702C54.5403 18.8681 54.3513 19.0219 54.1305 19.1119L36.4586 26.3357C36.3129 26.396 36.1566 26.4266 35.999 26.4257ZM61.1983 59.9996H10.7997C7.93641 59.9964 5.19131 58.8576 3.16667 56.8329C1.14202 54.8083 0.00317613 52.0632 0 49.1999C0 48.8816 0.126425 48.5764 0.351462 48.3514C0.576499 48.1264 0.881715 47.9999 1.19997 47.9999H70.798C71.1163 47.9999 71.4215 48.1264 71.6465 48.3514C71.8716 48.5764 71.998 48.8816 71.998 49.1999C71.9948 52.0632 70.856 54.8083 68.8313 56.8329C66.8067 58.8576 64.0616 59.9964 61.1983 59.9996Z" fill="#0455BF"/>
<path d="M63.5982 57.5992H13.1996C10.5446 57.5956 7.98366 56.6152 6.00502 54.8448C4.02638 53.0744 2.76835 50.6378 2.47073 47.9995H1.19997C0.881715 47.9995 0.576499 48.1259 0.351462 48.351C0.126425 48.576 0 48.8812 0 49.1995C0.00317613 52.0628 1.14202 54.8079 3.16667 56.8325C5.19131 58.8572 7.93641 59.996 10.7997 59.9992H61.1983C62.9033 59.9978 64.5836 59.5921 66.1014 58.8153C67.6191 58.0384 68.931 56.9127 69.9292 55.5305C68.0917 56.8742 65.8746 57.5987 63.5982 57.5992Z" fill="#004787"/>
<path d="M44.4006 51.5994H27.6011L25.2012 47.9995H46.8006L44.4006 51.5994Z" fill="#FEBC00"/>
<path d="M27.2015 47.9995H25.2012L27.6011 51.5994H44.4006L45.201 50.3994H31.681C30.7946 50.3986 29.922 50.1791 29.1407 49.7605C28.3593 49.3419 27.6933 48.737 27.2015 47.9995Z" fill="#EDAA03"/>
</svg>
