<svg width="68" height="186" viewBox="0 0 68 186" fill="none" xmlns="http://www.w3.org/2000/svg">
<circle cx="2.99927" cy="3" r="3" fill="#EB5757"/>
<circle cx="20.9993" cy="3" r="3" fill="#EB5757"/>
<circle cx="38.9993" cy="3" r="3" fill="#EB5757"/>
<circle cx="56.9993" cy="3" r="3" fill="#EB5757"/>
<circle cx="2.99927" cy="21" r="3" fill="#EB5757"/>
<circle cx="20.9993" cy="21" r="3" fill="#EB5757"/>
<circle cx="38.9993" cy="21" r="3" fill="#EB5757"/>
<circle cx="56.9993" cy="21" r="3" fill="#EB5757"/>
<circle cx="2.99927" cy="39" r="3" fill="#EB5757"/>
<circle cx="20.9993" cy="39" r="3" fill="#EB5757"/>
<circle cx="38.9993" cy="39" r="3" fill="#EB5757"/>
<circle cx="56.9993" cy="39" r="3" fill="#EB5757"/>
<circle cx="2.99927" cy="57" r="3" fill="#EB5757"/>
<circle cx="20.9993" cy="57" r="3" fill="#EB5757"/>
<circle cx="38.9993" cy="57" r="3" fill="#EB5757"/>
<circle cx="56.9993" cy="57" r="3" fill="#EB5757"/>
<circle cx="2.99927" cy="75" r="3" fill="#EB5757"/>
<circle cx="20.9993" cy="75" r="3" fill="#EB5757"/>
<circle cx="38.9993" cy="75" r="3" fill="#EB5757"/>
<circle cx="56.9993" cy="75" r="3" fill="#EB5757"/>
<circle cx="2.99927" cy="93" r="3" fill="#EB5757"/>
<circle cx="20.9993" cy="93" r="3" fill="#EB5757"/>
<circle cx="38.9993" cy="93" r="3" fill="#EB5757"/>
<circle cx="56.9993" cy="93" r="3" fill="#EB5757"/>
<circle cx="2.99927" cy="111" r="3" fill="#EB5757"/>
<circle cx="20.9993" cy="111" r="3" fill="#EB5757"/>
<circle cx="38.9993" cy="111" r="3" fill="#EB5757"/>
<circle cx="56.9993" cy="111" r="3" fill="#EB5757"/>
<circle cx="2.99927" cy="129" r="3" fill="#EB5757"/>
<circle cx="20.9993" cy="129" r="3" fill="#EB5757"/>
<circle cx="38.9993" cy="129" r="3" fill="#EB5757"/>
<circle cx="56.9993" cy="129" r="3" fill="#EB5757"/>
<circle cx="2.99927" cy="147" r="3" fill="#EB5757"/>
<circle cx="20.9993" cy="147" r="3" fill="#EB5757"/>
<circle cx="38.9993" cy="147" r="3" fill="#EB5757"/>
<circle cx="56.9993" cy="147" r="3" fill="#EB5757"/>
<circle cx="2.99927" cy="165" r="3" fill="#EB5757"/>
<circle cx="20.9993" cy="165" r="3" fill="#EB5757"/>
<circle cx="38.9993" cy="165" r="3" fill="#EB5757"/>
<circle cx="56.9993" cy="165" r="3" fill="#EB5757"/>
<circle cx="2.99927" cy="183" r="3" fill="#EB5757"/>
<circle cx="20.9993" cy="183" r="3" fill="#EB5757"/>
<circle cx="38.9993" cy="183" r="3" fill="#EB5757"/>
<circle cx="56.9993" cy="183" r="3" fill="#EB5757"/>
</svg>
