<svg width="60" height="60" viewBox="0 0 60 60" fill="none" xmlns="http://www.w3.org/2000/svg">
<path d="M45.7851 31.7648H36.8356L35.6592 30.0001L36.8356 28.2354H45.7851L46.9615 29.9412L45.7851 31.7648Z" fill="#FF3D7D"/>
<path d="M14.2155 31.7648H23.1649L24.3414 30.0785L23.1649 28.2354H14.2155L13.0391 30.1962L14.2155 31.7648Z" fill="#FF6B6B"/>
<path d="M24.7061 7.67529V5.29412C24.7061 2.37518 27.0813 0 30.0002 0L31.1766 3.83765L30.0002 7.05882L27.4673 8.53024L24.7061 7.67529Z" fill="#FF6B6B"/>
<path d="M30 7.05882V0C32.9368 0 35.2941 2.37953 35.2941 5.29412V7.67529L32.4388 8.51929L30 7.05882Z" fill="#FF3D7D"/>
<path d="M30.0002 52.9413L31.1766 56.1625L30.0002 60.0002C27.0813 60.0002 24.7061 57.6249 24.7061 54.706V52.3249L27.7632 51.5044L30.0002 52.9413Z" fill="#FF6B6B"/>
<path d="M30 52.9412V60.0001C32.9264 60.0001 35.2941 57.6322 35.2941 54.7059V52.3248L32.2324 51.5049L30 52.9412Z" fill="#FF3D7D"/>
<path d="M42.0361 10.4766L43.7255 8.78715C45.7943 6.71844 49.1432 6.71773 51.2126 8.78715C51.7126 9.28715 52.101 9.86832 52.3632 10.5037C53.1461 12.3956 52.793 14.6939 51.2126 16.2743L49.5233 17.9636L45.8819 15.4988L42.0361 10.4766Z" fill="#FF3D7D"/>
<path d="M17.9637 49.5237L16.2743 51.2131C14.203 53.2845 10.8511 53.2796 8.78723 51.2131C6.71829 49.1441 6.71782 45.7953 8.78723 43.7259L10.4766 42.0366L14.1181 44.5014L17.9637 49.5237Z" fill="#FF6B6B"/>
<path d="M52.3249 35.2943H54.7061C57.6324 35.2943 60.0002 32.9264 60.0002 30.0002C60.0002 27.0812 57.6249 24.7061 54.7061 24.7061H52.3249L51.1484 30.3531L52.3249 35.2943Z" fill="#FF3D7D"/>
<path d="M7.67529 35.2943H5.29412C2.36776 35.2943 0 32.9264 0 30.0002C0 27.0812 2.37529 24.7061 5.29412 24.7061H7.67529L8.85176 30.0002L7.67529 35.2943Z" fill="#FF6B6B"/>
<path d="M49.5233 42.0366L51.2126 43.7259C53.2815 45.7949 53.282 49.1437 51.2126 51.2131C49.1506 53.2777 45.7988 53.2864 43.7255 51.2131L42.0361 49.5237L46.162 44.2213L49.5233 42.0366Z" fill="#FF3D7D"/>
<path d="M10.4766 17.9634L8.78723 16.2741C6.71829 14.2052 6.71782 10.8564 8.78723 8.78697C10.8508 6.72238 14.2096 6.72238 16.2743 8.78697L17.9637 10.4764L14.3225 15.2941L10.4766 17.9634Z" fill="#FF6B6B"/>
<path d="M30.0001 14.1176L31.1765 18.6099L30.0001 22.9412L29.2159 24.217L28.2354 23.1647V14.2153L29.1177 12.99L30.0001 14.1176Z" fill="#FF6B6B"/>
<path d="M30 14.1176V22.9412L30.8824 24.2294L31.7647 23.1647V14.2153L30.8824 12.99L30 14.1176Z" fill="#FF3D7D"/>
<path d="M30.0001 45.8823L31.1765 41.9225L30.0001 37.0588L29.1248 35.7715L28.2354 36.8352V45.7847L29.1177 47.0099L30.0001 45.8823Z" fill="#FF6B6B"/>
<path d="M30 45.8823V37.0587L30.8824 35.7705L31.7647 36.8352V45.7846L30.6451 47.023L30 45.8823Z" fill="#FF3D7D"/>
<path d="M14.1174 30C14.1174 21.2425 21.2421 14.1177 29.9998 14.1177L31.1762 10.1177L29.9998 7.05884C17.35 7.05884 7.05859 17.3503 7.05859 30C7.05859 42.6498 17.35 52.9412 29.9998 52.9412L31.1762 49.1188L29.9998 45.8824C21.2421 45.8824 14.1174 38.7575 14.1174 30Z" fill="#FEE05B"/>
<path d="M30 7.05884V14.1177C38.7575 14.1177 45.8824 21.2425 45.8824 30C45.8824 38.7575 38.7575 45.8824 30 45.8824V52.9412C42.6498 52.9412 52.9412 42.6498 52.9412 30C52.9412 17.3503 42.6498 7.05884 30 7.05884Z" fill="#FEC258"/>
<path d="M22.9414 30C22.9414 33.8922 26.108 37.0588 30.0002 37.0588L31.1767 30.0009L30.0002 22.9412C26.108 22.9412 22.9414 26.1078 22.9414 30Z" fill="#FEE05B"/>
<path d="M30 22.9412V37.0588C33.8922 37.0588 37.0588 33.8922 37.0588 30C37.0588 26.1078 33.8922 22.9412 30 22.9412Z" fill="#FEC258"/>
</svg>
