<svg width="60" height="60" viewBox="0 0 60 60" fill="none" xmlns="http://www.w3.org/2000/svg">
<path d="M41.5879 1.46769L44.6768 6.92659L50.0517 9.9295L54.825 6.34291L59.1087 0.874768C58.4435 0.818463 50.9431 -1.40767 41.5879 1.46769Z" fill="#FF6B6B"/>
<path d="M59.1087 0.874756L50.0518 9.92949L52.8975 15.1453L58.5157 18.3914C61.4246 8.93211 59.17 1.60021 59.1087 0.874756Z" fill="#FF3D7D"/>
<path d="M12.3633 12.444L19.5043 19.5832L21.1787 18.2901L21.7547 16.8431L19.3732 12.0915L14.8589 9.94897L12.3633 12.444Z" fill="#FF3D7D"/>
<path d="M29.7077 8.03123L19.3638 5.4458L14.8594 9.94905L21.7552 16.8432L25.6423 14.8429L29.7077 8.03123Z" fill="#FF6B6B"/>
<path d="M47.5764 47.648L50.072 45.1531L47.3118 41.2079L43.1493 38.2319L41.2577 39.002L40.4355 40.5087L47.5764 47.648Z" fill="#C1126B"/>
<path d="M54.5766 40.6496L51.9907 30.3081L45.3029 34.4984L43.1494 38.2319L50.0721 45.153L54.5766 40.6496Z" fill="#FF3D7D"/>
<path d="M15.5922 31.8471L18.1107 29.3291L11.4902 35.948L17.778 42.2345L21.0059 40.6839L21.8802 38.1334L20.0622 33.9452L15.5922 31.8471Z" fill="#613D5C"/>
<path d="M22.3815 31.3463L18.1114 29.3291L15.5928 31.8471L21.8808 38.1334L23.2235 37.6841L24.3992 35.6156L22.3815 31.3463Z" fill="#FF6B6B"/>
<path d="M17.7773 42.2352L24.0653 48.5217L28.1678 44.4202L25.9215 39.8036L21.88 38.1338L17.7773 42.2352Z" fill="#4B2746"/>
<path d="M28.9345 37.8984L24.3986 35.6157L21.8799 38.1339L28.1677 44.4203L30.6865 41.902L28.9345 37.8984Z" fill="#FF3D7D"/>
<path d="M41.5884 1.46777C35.1903 3.43479 29.5299 7.27576 25.3379 12.509L14.4307 25.6492L24.3797 35.596L39.1823 23.1678L50.0524 9.92947L41.5884 1.46777Z" fill="#F2F2FC"/>
<path d="M24.3799 35.5957L34.3291 45.5424L47.4726 34.6379C52.6977 30.4548 56.5453 24.7999 58.5166 18.3911L50.0526 9.9292L24.3799 35.5957Z" fill="#E2D9FB"/>
<path d="M0 47.4268L8.96851 38.4583L11.4829 40.9727L2.51441 49.9412L0 47.4268Z" fill="#E2D9FB"/>
<path d="M10.0576 57.4858L19.0272 48.5184L21.5419 51.0326L12.5724 60L10.0576 57.4858Z" fill="#C7C1DC"/>
<path d="M14.0047 43.4927L2.51855 54.9761L3.77607 56.2333L10.2558 51.0125L15.2623 44.7499L14.0047 43.4927Z" fill="#E2D9FB"/>
<path d="M3.77148 56.2261L15.2546 44.743L16.5117 46.0002L5.02865 57.4832L3.77148 56.2261Z" fill="#C7C1DC"/>
<path d="M32.4466 17.4731C29.6665 20.2526 29.666 24.7514 32.4465 27.5313L38.9755 23.3746L42.5072 17.4731C39.7268 14.6939 35.2272 14.6932 32.4466 17.4731Z" fill="#613D5C"/>
<path d="M42.5071 17.4731L32.4463 27.5313L32.4464 27.5314C35.2263 30.3107 39.7264 30.3114 42.5071 27.5314C45.2809 24.7584 45.2809 20.2462 42.5071 17.4731Z" fill="#613D5C"/>
<path d="M34.9607 19.9878C33.5705 21.3777 33.5704 23.6269 34.9606 25.0169L38.6187 23.7303L39.9908 19.9877C38.6004 18.5978 36.3507 18.5978 34.9607 19.9878Z" fill="#7ED8F6"/>
<path d="M39.9923 19.9878L34.9619 25.017H34.962C36.3519 26.4067 38.6019 26.4072 39.9924 25.017V25.0171C41.3792 23.6306 41.3792 21.3746 39.9924 19.9879L39.9923 19.9878Z" fill="#6AA9FF"/>
</svg>
