<svg width="60" height="60" viewBox="0 0 60 60" fill="none" xmlns="http://www.w3.org/2000/svg">
<path d="M28.2351 28.2352V41.5048L21.748 46.6944L21.9989 48.63L23.6444 49.6973L29.9998 44.6128L31.1763 36.902L29.9998 28.2353L29.1469 27.0588L28.2351 28.2352Z" fill="#F2F2FC"/>
<path d="M31.7647 41.5048V28.2352L30.9706 27.0588L30 28.2353V44.6128L36.3553 49.6971L38.3053 48.7886L38.2516 46.6942L31.7647 41.5048Z" fill="#E2D9FB"/>
<path d="M24.7419 11.7636C20.5522 13.7422 17.6465 18.0087 17.6465 22.941V24.7057L23.6171 25.9704L29.9994 24.7057L31.1759 21.1763L29.9994 14.1175L27.3514 11.7554L24.7419 11.7636Z" fill="#FEE05B"/>
<path d="M30 14.1176V24.7058L35.7059 25.6764L42.3529 24.7058V22.9411C42.3529 18.0099 39.4485 13.7442 35.2604 11.765L32.7398 11.7158L30 14.1176Z" fill="#FEC258"/>
<path d="M22.9414 7.05882C22.9414 10.9511 26.108 14.1176 30.0002 14.1176L31.7649 7.05882L30.0002 0C26.108 0 22.9414 3.16659 22.9414 7.05882Z" fill="#FECEC1"/>
<path d="M30 0V14.1176C33.8922 14.1176 37.0588 10.9511 37.0588 7.05882C37.0588 3.16659 33.8922 0 30 0Z" fill="#F7AD9E"/>
<path d="M7.09553 43.5285C2.90577 45.5072 0 49.7736 0 54.706V56.4707L6.76471 57.8531L12.3529 56.4707L13.5294 52.9413L12.3529 45.8825L9.70494 43.5205L7.09553 43.5285Z" fill="#BEE75E"/>
<path d="M12.3535 45.8822V56.4705L17.6476 57.7058L24.7065 56.4705V54.7058C24.7065 49.7745 21.802 45.5088 17.6139 43.5296L15.0933 43.4805L12.3535 45.8822Z" fill="#5BC980"/>
<path d="M5.29395 38.8235C5.29395 42.7157 8.46053 45.8823 12.3528 45.8823L14.1175 38.8235L12.3528 31.7646C8.46053 31.7646 5.29395 34.9312 5.29395 38.8235Z" fill="#FEDFD0"/>
<path d="M12.3535 31.7646V45.8823C16.2458 45.8823 19.4123 42.7157 19.4123 38.8235C19.4123 34.9312 16.2458 31.7646 12.3535 31.7646Z" fill="#FECEC1"/>
<path d="M42.3894 43.5285C38.1997 45.5072 35.2939 49.7736 35.2939 54.706V56.4707L42.3136 57.4904L47.6469 56.4707L48.8234 52.9413L47.6469 45.8825L44.9989 43.5205L42.3894 43.5285Z" fill="#7ED8F6"/>
<path d="M47.6465 45.8822V56.4705L52.9994 57.7058L59.9994 56.4705V54.7058C59.9994 49.7745 57.095 45.5088 52.9068 43.5296L50.3863 43.4805L47.6465 45.8822Z" fill="#6AA9FF"/>
<path d="M40.5879 38.8235C40.5879 42.7157 43.7545 45.8823 47.6467 45.8823L49.4114 38.8235L47.6467 31.7646C43.7545 31.7646 40.5879 34.9312 40.5879 38.8235Z" fill="#FEDFD0"/>
<path d="M47.6465 31.7646V45.8823C51.5387 45.8823 54.7053 42.7157 54.7053 38.8235C54.7053 34.9312 51.5387 31.7646 47.6465 31.7646Z" fill="#FECEC1"/>
<path d="M0 56.4707V60.0001H12.3529L13.5294 58.2354L12.3529 56.4707H0Z" fill="#5BC980"/>
<path d="M12.3535 56.4707H24.7065V60.0001H12.3535V56.4707Z" fill="#00A78E"/>
<path d="M35.2939 56.4707V60.0001H47.6469L48.8234 58.2354L47.6469 56.4707H35.2939Z" fill="#6AA9FF"/>
<path d="M47.6465 56.4707H59.9994V60.0001H47.6465V56.4707Z" fill="#4987EA"/>
<path d="M17.6465 24.7061V28.2355H29.9994L31.1759 26.4708L29.9994 24.7061H17.6465Z" fill="#FEC258"/>
<path d="M30 24.7061H42.3529V28.2355H30V24.7061Z" fill="#FD996B"/>
</svg>
