<svg width="14" height="13" viewBox="0 0 14 13" fill="none" xmlns="http://www.w3.org/2000/svg">
<path d="M8.12101 0.412344C7.93354 0.602953 7.82822 0.861441 7.82822 1.13096C7.82822 1.40048 7.93354 1.65897 8.12101 1.84958L11.413 5.1967L1 5.20381C0.734784 5.20381 0.48043 5.3109 0.292894 5.50152C0.105357 5.69213 0 5.95067 0 6.22024C0 6.48982 0.105357 6.74835 0.292894 6.93897C0.48043 7.12959 0.734784 7.23668 1 7.23668L11.414 7.22956L8.12101 10.5767C8.0255 10.6704 7.94932 10.7826 7.89691 10.9066C7.8445 11.0306 7.81691 11.164 7.81576 11.299C7.81461 11.4339 7.83991 11.5678 7.89019 11.6927C7.94047 11.8176 8.01472 11.9311 8.10862 12.0265C8.20251 12.1219 8.31416 12.1974 8.43706 12.2485C8.55995 12.2996 8.69163 12.3254 8.82441 12.3242C8.95719 12.323 9.08841 12.295 9.21042 12.2417C9.33242 12.1884 9.44277 12.111 9.53501 12.0139L13.121 8.37C13.3996 8.08684 13.6207 7.75066 13.7715 7.38067C13.9223 7.01068 13.9999 6.61412 13.9999 6.21364C13.9999 5.81315 13.9223 5.41659 13.7715 5.0466C13.6207 4.67661 13.3996 4.34043 13.121 4.05727L9.53501 0.412344C9.34748 0.221792 9.09318 0.114746 8.82801 0.114746C8.56285 0.114746 8.30854 0.221792 8.12101 0.412344Z" fill="#FD4C5C"/>
</svg>
