<svg width="20" height="20" viewBox="0 0 20 20" fill="none" xmlns="http://www.w3.org/2000/svg">
<path d="M8.15302 3.55678C8.20302 3.65978 8.23702 3.77078 8.25302 3.88478L8.53102 8.02478L8.66902 10.1058C8.67002 10.3198 8.70402 10.5328 8.76902 10.7368C8.93602 11.1338 9.33702 11.3858 9.77402 11.3678L16.431 10.9328C16.72 10.9278 16.998 11.0358 17.205 11.2328C17.378 11.3958 17.489 11.6108 17.525 11.8408L17.536 11.9808C17.261 15.7958 14.459 18.9778 10.652 19.7988C6.84602 20.6198 2.94202 18.8848 1.06102 15.5358C0.51927 14.5654 0.180092 13.4951 0.0640156 12.3898C0.016026 12.0634 -0.005045 11.7336 0.00101567 11.4038C-0.00498433 7.31378 2.90702 3.77778 6.98402 2.92578C7.47502 2.84878 7.95602 3.10878 8.15302 3.55578V3.55678Z" fill="#00BB98"/>
<path opacity="0.4" d="M10.87 0.000840864C15.43 0.117841 19.262 3.39684 20 7.81284L19.993 7.84584L19.973 7.89284L19.976 8.02284C19.9651 8.1969 19.8977 8.36264 19.784 8.49484C19.6645 8.63429 19.5019 8.72999 19.322 8.76684L19.212 8.78184L11.532 9.27984C11.406 9.2924 11.2787 9.27871 11.1582 9.23964C11.0377 9.20057 10.9267 9.13697 10.832 9.05284C10.675 8.91379 10.5726 8.72345 10.543 8.51584L10.028 0.845841C10.019 0.819932 10.019 0.79175 10.028 0.765841C10.0316 0.660768 10.0563 0.557499 10.1007 0.462161C10.145 0.366823 10.208 0.281359 10.286 0.210841C10.4453 0.066562 10.6552 -0.00891667 10.87 0.000840864Z" fill="#00BB98"/>
</svg>
