<svg width="224" height="224" viewBox="0 0 224 224" fill="none" xmlns="http://www.w3.org/2000/svg">
<mask id="mask0" mask-type="alpha" maskUnits="userSpaceOnUse" x="0" y="0" width="224" height="224">
<rect width="224" height="224" transform="matrix(-1 0 0 1 224 0)" fill="url(#paint0_linear)"/>
</mask>
<g mask="url(#mask0)">
<circle r="3" transform="matrix(-1 0 0 1 212 22)" fill="#EB5757"/>
<circle r="3" transform="matrix(-1 0 0 1 194 22)" fill="#EB5757"/>
<circle r="3" transform="matrix(-1 0 0 1 176 22)" fill="#EB5757"/>
<circle r="3" transform="matrix(-1 0 0 1 158 22)" fill="#EB5757"/>
<circle r="3" transform="matrix(-1 0 0 1 140 22)" fill="#EB5757"/>
<circle r="3" transform="matrix(-1 0 0 1 122 22)" fill="#EB5757"/>
<circle r="3" transform="matrix(-1 0 0 1 104 22)" fill="#EB5757"/>
<circle r="3" transform="matrix(-1 0 0 1 86 22)" fill="#EB5757"/>
<circle r="3" transform="matrix(-1 0 0 1 68 22)" fill="#EB5757"/>
<circle r="3" transform="matrix(-1 0 0 1 50 22)" fill="#EB5757"/>
<circle r="3" transform="matrix(-1 0 0 1 32 22)" fill="#EB5757"/>
<circle r="3" transform="matrix(-1 0 0 1 14 22)" fill="#EB5757"/>
<circle r="3" transform="matrix(-1 0 0 1 212 40)" fill="#EB5757"/>
<circle r="3" transform="matrix(-1 0 0 1 194 40)" fill="#EB5757"/>
<circle r="3" transform="matrix(-1 0 0 1 176 40)" fill="#EB5757"/>
<circle r="3" transform="matrix(-1 0 0 1 158 40)" fill="#EB5757"/>
<circle r="3" transform="matrix(-1 0 0 1 140 40)" fill="#EB5757"/>
<circle r="3" transform="matrix(-1 0 0 1 122 40)" fill="#EB5757"/>
<circle r="3" transform="matrix(-1 0 0 1 104 40)" fill="#EB5757"/>
<circle r="3" transform="matrix(-1 0 0 1 86 40)" fill="#EB5757"/>
<circle r="3" transform="matrix(-1 0 0 1 68 40)" fill="#EB5757"/>
<circle r="3" transform="matrix(-1 0 0 1 50 40)" fill="#EB5757"/>
<circle r="3" transform="matrix(-1 0 0 1 32 40)" fill="#EB5757"/>
<circle r="3" transform="matrix(-1 0 0 1 14 40)" fill="#EB5757"/>
<circle r="3" transform="matrix(-1 0 0 1 212 58)" fill="#EB5757"/>
<circle r="3" transform="matrix(-1 0 0 1 194 58)" fill="#EB5757"/>
<circle r="3" transform="matrix(-1 0 0 1 176 58)" fill="#EB5757"/>
<circle r="3" transform="matrix(-1 0 0 1 158 58)" fill="#EB5757"/>
<circle r="3" transform="matrix(-1 0 0 1 140 58)" fill="#EB5757"/>
<circle r="3" transform="matrix(-1 0 0 1 122 58)" fill="#EB5757"/>
<circle r="3" transform="matrix(-1 0 0 1 104 58)" fill="#EB5757"/>
<circle r="3" transform="matrix(-1 0 0 1 86 58)" fill="#EB5757"/>
<circle r="3" transform="matrix(-1 0 0 1 68 58)" fill="#EB5757"/>
<circle r="3" transform="matrix(-1 0 0 1 50 58)" fill="#EB5757"/>
<circle r="3" transform="matrix(-1 0 0 1 32 58)" fill="#EB5757"/>
<circle r="3" transform="matrix(-1 0 0 1 14 58)" fill="#EB5757"/>
<circle r="3" transform="matrix(-1 0 0 1 212 76)" fill="#EB5757"/>
<circle r="3" transform="matrix(-1 0 0 1 194 76)" fill="#EB5757"/>
<circle r="3" transform="matrix(-1 0 0 1 176 76)" fill="#EB5757"/>
<circle r="3" transform="matrix(-1 0 0 1 158 76)" fill="#EB5757"/>
<circle r="3" transform="matrix(-1 0 0 1 140 76)" fill="#EB5757"/>
<circle r="3" transform="matrix(-1 0 0 1 122 76)" fill="#EB5757"/>
<circle r="3" transform="matrix(-1 0 0 1 104 76)" fill="#EB5757"/>
<circle r="3" transform="matrix(-1 0 0 1 86 76)" fill="#EB5757"/>
<circle r="3" transform="matrix(-1 0 0 1 68 76)" fill="#EB5757"/>
<circle r="3" transform="matrix(-1 0 0 1 50 76)" fill="#EB5757"/>
<circle r="3" transform="matrix(-1 0 0 1 32 76)" fill="#EB5757"/>
<circle r="3" transform="matrix(-1 0 0 1 14 76)" fill="#EB5757"/>
<circle r="3" transform="matrix(-1 0 0 1 212 94)" fill="#EB5757"/>
<circle r="3" transform="matrix(-1 0 0 1 194 94)" fill="#EB5757"/>
<circle r="3" transform="matrix(-1 0 0 1 176 94)" fill="#EB5757"/>
<circle r="3" transform="matrix(-1 0 0 1 158 94)" fill="#EB5757"/>
<circle r="3" transform="matrix(-1 0 0 1 140 94)" fill="#EB5757"/>
<circle r="3" transform="matrix(-1 0 0 1 122 94)" fill="#EB5757"/>
<circle r="3" transform="matrix(-1 0 0 1 104 94)" fill="#EB5757"/>
<circle r="3" transform="matrix(-1 0 0 1 86 94)" fill="#EB5757"/>
<circle r="3" transform="matrix(-1 0 0 1 68 94)" fill="#EB5757"/>
<circle r="3" transform="matrix(-1 0 0 1 50 94)" fill="#EB5757"/>
<circle r="3" transform="matrix(-1 0 0 1 32 94)" fill="#EB5757"/>
<circle r="3" transform="matrix(-1 0 0 1 14 94)" fill="#EB5757"/>
<circle r="3" transform="matrix(-1 0 0 1 212 112)" fill="#EB5757"/>
<circle r="3" transform="matrix(-1 0 0 1 194 112)" fill="#EB5757"/>
<circle r="3" transform="matrix(-1 0 0 1 176 112)" fill="#EB5757"/>
<circle r="3" transform="matrix(-1 0 0 1 158 112)" fill="#EB5757"/>
<circle r="3" transform="matrix(-1 0 0 1 140 112)" fill="#EB5757"/>
<circle r="3" transform="matrix(-1 0 0 1 122 112)" fill="#EB5757"/>
<circle r="3" transform="matrix(-1 0 0 1 104 112)" fill="#EB5757"/>
<circle r="3" transform="matrix(-1 0 0 1 86 112)" fill="#EB5757"/>
<circle r="3" transform="matrix(-1 0 0 1 68 112)" fill="#EB5757"/>
<circle r="3" transform="matrix(-1 0 0 1 50 112)" fill="#EB5757"/>
<circle r="3" transform="matrix(-1 0 0 1 32 112)" fill="#EB5757"/>
<circle r="3" transform="matrix(-1 0 0 1 14 112)" fill="#EB5757"/>
<circle r="3" transform="matrix(-1 0 0 1 212 130)" fill="#EB5757"/>
<circle r="3" transform="matrix(-1 0 0 1 194 130)" fill="#EB5757"/>
<circle r="3" transform="matrix(-1 0 0 1 176 130)" fill="#EB5757"/>
<circle r="3" transform="matrix(-1 0 0 1 158 130)" fill="#EB5757"/>
<circle r="3" transform="matrix(-1 0 0 1 140 130)" fill="#EB5757"/>
<circle r="3" transform="matrix(-1 0 0 1 122 130)" fill="#EB5757"/>
<circle r="3" transform="matrix(-1 0 0 1 104 130)" fill="#EB5757"/>
<circle r="3" transform="matrix(-1 0 0 1 86 130)" fill="#EB5757"/>
<circle r="3" transform="matrix(-1 0 0 1 68 130)" fill="#EB5757"/>
<circle r="3" transform="matrix(-1 0 0 1 50 130)" fill="#EB5757"/>
<circle r="3" transform="matrix(-1 0 0 1 32 130)" fill="#EB5757"/>
<circle r="3" transform="matrix(-1 0 0 1 14 130)" fill="#EB5757"/>
<circle r="3" transform="matrix(-1 0 0 1 212 148)" fill="#EB5757"/>
<circle r="3" transform="matrix(-1 0 0 1 194 148)" fill="#EB5757"/>
<circle r="3" transform="matrix(-1 0 0 1 176 148)" fill="#EB5757"/>
<circle r="3" transform="matrix(-1 0 0 1 158 148)" fill="#EB5757"/>
<circle r="3" transform="matrix(-1 0 0 1 140 148)" fill="#EB5757"/>
<circle r="3" transform="matrix(-1 0 0 1 122 148)" fill="#EB5757"/>
<circle r="3" transform="matrix(-1 0 0 1 104 148)" fill="#EB5757"/>
<circle r="3" transform="matrix(-1 0 0 1 86 148)" fill="#EB5757"/>
<circle r="3" transform="matrix(-1 0 0 1 68 148)" fill="#EB5757"/>
<circle r="3" transform="matrix(-1 0 0 1 50 148)" fill="#EB5757"/>
<circle r="3" transform="matrix(-1 0 0 1 32 148)" fill="#EB5757"/>
<circle r="3" transform="matrix(-1 0 0 1 14 148)" fill="#EB5757"/>
<circle r="3" transform="matrix(-1 0 0 1 212 166)" fill="#EB5757"/>
<circle r="3" transform="matrix(-1 0 0 1 194 166)" fill="#EB5757"/>
<circle r="3" transform="matrix(-1 0 0 1 176 166)" fill="#EB5757"/>
<circle r="3" transform="matrix(-1 0 0 1 158 166)" fill="#EB5757"/>
<circle r="3" transform="matrix(-1 0 0 1 140 166)" fill="#EB5757"/>
<circle r="3" transform="matrix(-1 0 0 1 122 166)" fill="#EB5757"/>
<circle r="3" transform="matrix(-1 0 0 1 104 166)" fill="#EB5757"/>
<circle r="3" transform="matrix(-1 0 0 1 86 166)" fill="#EB5757"/>
<circle r="3" transform="matrix(-1 0 0 1 68 166)" fill="#EB5757"/>
<circle r="3" transform="matrix(-1 0 0 1 50 166)" fill="#EB5757"/>
<circle r="3" transform="matrix(-1 0 0 1 32 166)" fill="#EB5757"/>
<circle r="3" transform="matrix(-1 0 0 1 14 166)" fill="#EB5757"/>
<circle r="3" transform="matrix(-1 0 0 1 212 184)" fill="#EB5757"/>
<circle r="3" transform="matrix(-1 0 0 1 194 184)" fill="#EB5757"/>
<circle r="3" transform="matrix(-1 0 0 1 176 184)" fill="#EB5757"/>
<circle r="3" transform="matrix(-1 0 0 1 158 184)" fill="#EB5757"/>
<circle r="3" transform="matrix(-1 0 0 1 140 184)" fill="#EB5757"/>
<circle r="3" transform="matrix(-1 0 0 1 122 184)" fill="#EB5757"/>
<circle r="3" transform="matrix(-1 0 0 1 104 184)" fill="#EB5757"/>
<circle r="3" transform="matrix(-1 0 0 1 86 184)" fill="#EB5757"/>
<circle r="3" transform="matrix(-1 0 0 1 68 184)" fill="#EB5757"/>
<circle r="3" transform="matrix(-1 0 0 1 50 184)" fill="#EB5757"/>
<circle r="3" transform="matrix(-1 0 0 1 32 184)" fill="#EB5757"/>
<circle r="3" transform="matrix(-1 0 0 1 14 184)" fill="#EB5757"/>
<circle r="3" transform="matrix(-1 0 0 1 212 202)" fill="#EB5757"/>
<circle r="3" transform="matrix(-1 0 0 1 194 202)" fill="#EB5757"/>
<circle r="3" transform="matrix(-1 0 0 1 176 202)" fill="#EB5757"/>
<circle r="3" transform="matrix(-1 0 0 1 158 202)" fill="#EB5757"/>
<circle r="3" transform="matrix(-1 0 0 1 140 202)" fill="#EB5757"/>
<circle r="3" transform="matrix(-1 0 0 1 122 202)" fill="#EB5757"/>
<circle r="3" transform="matrix(-1 0 0 1 104 202)" fill="#EB5757"/>
<circle r="3" transform="matrix(-1 0 0 1 86 202)" fill="#EB5757"/>
<circle r="3" transform="matrix(-1 0 0 1 68 202)" fill="#EB5757"/>
<circle r="3" transform="matrix(-1 0 0 1 50 202)" fill="#EB5757"/>
<circle r="3" transform="matrix(-1 0 0 1 32 202)" fill="#EB5757"/>
<circle r="3" transform="matrix(-1 0 0 1 14 202)" fill="#EB5757"/>
</g>
<defs>
<linearGradient id="paint0_linear" x1="0" y1="112" x2="224" y2="112" gradientUnits="userSpaceOnUse">
<stop stop-color="#FD4C5C"/>
<stop offset="1" stop-color="#FD4C5C" stop-opacity="0.06"/>
</linearGradient>
</defs>
</svg>
