<svg width="180" height="180" viewBox="0 0 180 180" fill="none" xmlns="http://www.w3.org/2000/svg">
<path d="M174.982 90C177.754 90 180.015 92.2482 179.86 95.015C178.965 111.054 173.791 126.594 164.832 140.001C154.943 154.802 140.887 166.337 124.442 173.149C107.996 179.961 89.9002 181.743 72.4419 178.271C54.9836 174.798 38.9471 166.226 26.3604 153.64C13.7737 141.053 5.20199 125.016 1.72932 107.558C-1.74335 90.0998 0.0389552 72.0038 6.85084 55.5585C13.6627 39.1131 25.1983 25.0571 39.9987 15.1677C53.4057 6.20944 68.9464 1.03474 84.985 0.139796C87.7518 -0.014589 90 2.24641 90 5.0175C90 7.78859 87.7512 10.0186 84.9855 10.1923C70.9331 11.0752 57.3302 15.6561 45.5738 23.5115C32.4237 32.2982 22.1743 44.787 16.122 59.3987C10.0696 74.0104 8.48604 90.0887 11.5715 105.6C14.657 121.112 22.2729 135.36 33.4562 146.544C44.6395 157.727 58.8879 165.343 74.3996 168.428C89.9113 171.514 105.99 169.93 120.601 163.878C135.213 157.826 147.702 147.576 156.488 134.426C164.344 122.67 168.925 109.067 169.808 95.0145C169.981 92.2488 172.211 90 174.982 90Z" fill="#00BB98"/>
<path d="M66.9841 31.8313C66.1284 29.6846 67.1719 27.2371 69.3685 26.5191C80.4005 22.9134 92.2147 22.2732 103.615 24.7002C116.382 27.4182 128.057 33.8613 137.163 43.2145C146.268 52.5677 152.396 64.411 154.771 77.2467C157.145 90.0825 155.661 103.334 150.504 115.326C145.347 127.318 136.75 137.511 125.801 144.617C114.851 151.723 102.039 155.423 88.987 155.248C75.9346 155.073 63.2273 151.031 52.4718 143.634C42.8683 137.029 35.2061 128.014 30.2343 117.526C29.2444 115.438 30.303 112.997 32.4498 112.141C34.5965 111.286 37.0167 112.341 38.0258 114.42C42.3718 123.373 48.9747 131.072 57.2142 136.739C66.6058 143.198 77.7019 146.727 89.0992 146.88C100.497 147.032 111.683 143.802 121.245 137.597C130.806 131.392 138.313 122.491 142.816 112.02C147.319 101.549 148.615 89.9773 146.542 78.7692C144.468 67.561 139.117 57.2194 131.166 49.0522C123.215 40.885 113.021 35.259 101.872 32.8856C92.0913 30.8033 81.9615 31.3066 72.4733 34.3113C70.2702 35.009 67.8398 33.9781 66.9841 31.8313Z" fill="#FD4C5C"/>
</svg>
