<svg width="224" height="224" viewBox="0 0 224 224" fill="none" xmlns="http://www.w3.org/2000/svg">
<mask id="mask0" mask-type="alpha" maskUnits="userSpaceOnUse" x="0" y="0" width="224" height="224">
<rect width="224" height="224" fill="url(#paint0_linear)"/>
</mask>
<g mask="url(#mask0)">
<circle cx="12" cy="22" r="3" fill="#EB5757"/>
<circle cx="30" cy="22" r="3" fill="#EB5757"/>
<circle cx="48" cy="22" r="3" fill="#EB5757"/>
<circle cx="66" cy="22" r="3" fill="#EB5757"/>
<circle cx="84" cy="22" r="3" fill="#EB5757"/>
<circle cx="102" cy="22" r="3" fill="#EB5757"/>
<circle cx="120" cy="22" r="3" fill="#EB5757"/>
<circle cx="138" cy="22" r="3" fill="#EB5757"/>
<circle cx="156" cy="22" r="3" fill="#EB5757"/>
<circle cx="174" cy="22" r="3" fill="#EB5757"/>
<circle cx="192" cy="22" r="3" fill="#EB5757"/>
<circle cx="210" cy="22" r="3" fill="#EB5757"/>
<circle cx="12" cy="40" r="3" fill="#EB5757"/>
<circle cx="30" cy="40" r="3" fill="#EB5757"/>
<circle cx="48" cy="40" r="3" fill="#EB5757"/>
<circle cx="66" cy="40" r="3" fill="#EB5757"/>
<circle cx="84" cy="40" r="3" fill="#EB5757"/>
<circle cx="102" cy="40" r="3" fill="#EB5757"/>
<circle cx="120" cy="40" r="3" fill="#EB5757"/>
<circle cx="138" cy="40" r="3" fill="#EB5757"/>
<circle cx="156" cy="40" r="3" fill="#EB5757"/>
<circle cx="174" cy="40" r="3" fill="#EB5757"/>
<circle cx="192" cy="40" r="3" fill="#EB5757"/>
<circle cx="210" cy="40" r="3" fill="#EB5757"/>
<circle cx="12" cy="58" r="3" fill="#EB5757"/>
<circle cx="30" cy="58" r="3" fill="#EB5757"/>
<circle cx="48" cy="58" r="3" fill="#EB5757"/>
<circle cx="66" cy="58" r="3" fill="#EB5757"/>
<circle cx="84" cy="58" r="3" fill="#EB5757"/>
<circle cx="102" cy="58" r="3" fill="#EB5757"/>
<circle cx="120" cy="58" r="3" fill="#EB5757"/>
<circle cx="138" cy="58" r="3" fill="#EB5757"/>
<circle cx="156" cy="58" r="3" fill="#EB5757"/>
<circle cx="174" cy="58" r="3" fill="#EB5757"/>
<circle cx="192" cy="58" r="3" fill="#EB5757"/>
<circle cx="210" cy="58" r="3" fill="#EB5757"/>
<circle cx="12" cy="76" r="3" fill="#EB5757"/>
<circle cx="30" cy="76" r="3" fill="#EB5757"/>
<circle cx="48" cy="76" r="3" fill="#EB5757"/>
<circle cx="66" cy="76" r="3" fill="#EB5757"/>
<circle cx="84" cy="76" r="3" fill="#EB5757"/>
<circle cx="102" cy="76" r="3" fill="#EB5757"/>
<circle cx="120" cy="76" r="3" fill="#EB5757"/>
<circle cx="138" cy="76" r="3" fill="#EB5757"/>
<circle cx="156" cy="76" r="3" fill="#EB5757"/>
<circle cx="174" cy="76" r="3" fill="#EB5757"/>
<circle cx="192" cy="76" r="3" fill="#EB5757"/>
<circle cx="210" cy="76" r="3" fill="#EB5757"/>
<circle cx="12" cy="94" r="3" fill="#EB5757"/>
<circle cx="30" cy="94" r="3" fill="#EB5757"/>
<circle cx="48" cy="94" r="3" fill="#EB5757"/>
<circle cx="66" cy="94" r="3" fill="#EB5757"/>
<circle cx="84" cy="94" r="3" fill="#EB5757"/>
<circle cx="102" cy="94" r="3" fill="#EB5757"/>
<circle cx="120" cy="94" r="3" fill="#EB5757"/>
<circle cx="138" cy="94" r="3" fill="#EB5757"/>
<circle cx="156" cy="94" r="3" fill="#EB5757"/>
<circle cx="174" cy="94" r="3" fill="#EB5757"/>
<circle cx="192" cy="94" r="3" fill="#EB5757"/>
<circle cx="210" cy="94" r="3" fill="#EB5757"/>
<circle cx="12" cy="112" r="3" fill="#EB5757"/>
<circle cx="30" cy="112" r="3" fill="#EB5757"/>
<circle cx="48" cy="112" r="3" fill="#EB5757"/>
<circle cx="66" cy="112" r="3" fill="#EB5757"/>
<circle cx="84" cy="112" r="3" fill="#EB5757"/>
<circle cx="102" cy="112" r="3" fill="#EB5757"/>
<circle cx="120" cy="112" r="3" fill="#EB5757"/>
<circle cx="138" cy="112" r="3" fill="#EB5757"/>
<circle cx="156" cy="112" r="3" fill="#EB5757"/>
<circle cx="174" cy="112" r="3" fill="#EB5757"/>
<circle cx="192" cy="112" r="3" fill="#EB5757"/>
<circle cx="210" cy="112" r="3" fill="#EB5757"/>
<circle cx="12" cy="130" r="3" fill="#EB5757"/>
<circle cx="30" cy="130" r="3" fill="#EB5757"/>
<circle cx="48" cy="130" r="3" fill="#EB5757"/>
<circle cx="66" cy="130" r="3" fill="#EB5757"/>
<circle cx="84" cy="130" r="3" fill="#EB5757"/>
<circle cx="102" cy="130" r="3" fill="#EB5757"/>
<circle cx="120" cy="130" r="3" fill="#EB5757"/>
<circle cx="138" cy="130" r="3" fill="#EB5757"/>
<circle cx="156" cy="130" r="3" fill="#EB5757"/>
<circle cx="174" cy="130" r="3" fill="#EB5757"/>
<circle cx="192" cy="130" r="3" fill="#EB5757"/>
<circle cx="210" cy="130" r="3" fill="#EB5757"/>
<circle cx="12" cy="148" r="3" fill="#EB5757"/>
<circle cx="30" cy="148" r="3" fill="#EB5757"/>
<circle cx="48" cy="148" r="3" fill="#EB5757"/>
<circle cx="66" cy="148" r="3" fill="#EB5757"/>
<circle cx="84" cy="148" r="3" fill="#EB5757"/>
<circle cx="102" cy="148" r="3" fill="#EB5757"/>
<circle cx="120" cy="148" r="3" fill="#EB5757"/>
<circle cx="138" cy="148" r="3" fill="#EB5757"/>
<circle cx="156" cy="148" r="3" fill="#EB5757"/>
<circle cx="174" cy="148" r="3" fill="#EB5757"/>
<circle cx="192" cy="148" r="3" fill="#EB5757"/>
<circle cx="210" cy="148" r="3" fill="#EB5757"/>
<circle cx="12" cy="166" r="3" fill="#EB5757"/>
<circle cx="30" cy="166" r="3" fill="#EB5757"/>
<circle cx="48" cy="166" r="3" fill="#EB5757"/>
<circle cx="66" cy="166" r="3" fill="#EB5757"/>
<circle cx="84" cy="166" r="3" fill="#EB5757"/>
<circle cx="102" cy="166" r="3" fill="#EB5757"/>
<circle cx="120" cy="166" r="3" fill="#EB5757"/>
<circle cx="138" cy="166" r="3" fill="#EB5757"/>
<circle cx="156" cy="166" r="3" fill="#EB5757"/>
<circle cx="174" cy="166" r="3" fill="#EB5757"/>
<circle cx="192" cy="166" r="3" fill="#EB5757"/>
<circle cx="210" cy="166" r="3" fill="#EB5757"/>
<circle cx="12" cy="184" r="3" fill="#EB5757"/>
<circle cx="30" cy="184" r="3" fill="#EB5757"/>
<circle cx="48" cy="184" r="3" fill="#EB5757"/>
<circle cx="66" cy="184" r="3" fill="#EB5757"/>
<circle cx="84" cy="184" r="3" fill="#EB5757"/>
<circle cx="102" cy="184" r="3" fill="#EB5757"/>
<circle cx="120" cy="184" r="3" fill="#EB5757"/>
<circle cx="138" cy="184" r="3" fill="#EB5757"/>
<circle cx="156" cy="184" r="3" fill="#EB5757"/>
<circle cx="174" cy="184" r="3" fill="#EB5757"/>
<circle cx="192" cy="184" r="3" fill="#EB5757"/>
<circle cx="210" cy="184" r="3" fill="#EB5757"/>
<circle cx="12" cy="202" r="3" fill="#EB5757"/>
<circle cx="30" cy="202" r="3" fill="#EB5757"/>
<circle cx="48" cy="202" r="3" fill="#EB5757"/>
<circle cx="66" cy="202" r="3" fill="#EB5757"/>
<circle cx="84" cy="202" r="3" fill="#EB5757"/>
<circle cx="102" cy="202" r="3" fill="#EB5757"/>
<circle cx="120" cy="202" r="3" fill="#EB5757"/>
<circle cx="138" cy="202" r="3" fill="#EB5757"/>
<circle cx="156" cy="202" r="3" fill="#EB5757"/>
<circle cx="174" cy="202" r="3" fill="#EB5757"/>
<circle cx="192" cy="202" r="3" fill="#EB5757"/>
<circle cx="210" cy="202" r="3" fill="#EB5757"/>
</g>
<defs>
<linearGradient id="paint0_linear" x1="0" y1="112" x2="224" y2="112" gradientUnits="userSpaceOnUse">
<stop stop-color="#FD4C5C"/>
<stop offset="0.942708" stop-color="#FD4C5C" stop-opacity="0.06"/>
</linearGradient>
</defs>
</svg>
