<svg width="177" height="177" viewBox="0 0 177 177" fill="none" xmlns="http://www.w3.org/2000/svg">
<path d="M172.066 88.5C174.791 88.5 177.014 90.7107 176.863 93.4314C175.982 109.203 170.894 124.484 162.085 137.668C152.361 152.222 138.539 163.565 122.367 170.263C106.196 176.962 88.4018 178.714 71.2345 175.299C54.0672 171.885 38.298 163.456 25.921 151.079C13.5441 138.702 5.11529 122.933 1.7005 105.765C-1.71429 88.5982 0.038306 70.8038 6.73666 54.6325C13.435 38.4613 24.7783 24.6394 39.332 14.9149C52.5156 6.10595 67.7973 1.0175 83.5686 0.137466C86.2893 -0.0143457 88.5 2.20897 88.5 4.93388C88.5 7.65878 86.2887 9.85162 83.5691 10.0225C69.7509 10.8906 56.3747 15.3952 44.8143 23.1197C31.8833 31.7599 21.8048 44.0406 15.8533 58.4087C9.90179 72.7769 8.34461 88.5872 11.3786 103.84C14.4127 119.094 21.9017 133.104 32.8986 144.101C43.8955 155.098 57.9064 162.587 73.1596 165.621C88.4128 168.655 104.223 167.098 118.591 161.147C132.959 155.195 145.24 145.117 153.88 132.186C161.605 120.625 166.109 107.249 166.978 93.4309C167.148 90.7114 169.341 88.5 172.066 88.5Z" fill="#00BB98"/>
<path d="M65.6094 31.0712C64.7536 28.9242 65.7972 26.4763 67.9941 25.7583C79.0275 22.1521 90.8431 21.5118 102.245 23.9391C115.014 26.6575 126.69 33.1014 135.797 42.4557C144.904 51.8101 151.032 63.6549 153.407 76.4923C155.782 89.3296 154.297 102.583 149.14 114.576C143.982 126.57 135.384 136.764 124.433 143.871C113.482 150.978 100.669 154.678 87.6151 154.503C74.5611 154.328 61.8521 150.286 51.0953 142.888C41.4905 136.282 33.8274 127.266 28.855 116.777C27.8649 114.688 28.9237 112.247 31.0707 111.391C33.2177 110.536 35.6382 111.591 36.6475 113.67C40.994 122.624 47.5977 130.324 55.8382 135.992C65.2311 142.451 76.3285 145.981 87.7273 146.134C99.1261 146.287 110.314 143.056 119.877 136.85C129.44 130.645 136.947 121.743 141.451 111.27C145.954 100.797 147.251 89.2245 145.177 78.0149C143.103 66.8053 137.752 56.4625 129.8 48.2942C121.847 40.126 111.652 34.4992 100.502 32.1255C90.7198 30.043 80.5887 30.5464 71.0993 33.5515C68.8959 34.2493 66.4652 33.2182 65.6094 31.0712Z" fill="#FD4C5C"/>
</svg>
