<svg width="338" height="324" viewBox="0 0 338 324" fill="none" xmlns="http://www.w3.org/2000/svg">
<path d="M203.317 287.183C204.437 291.266 202.038 295.506 197.899 296.397C173.907 301.56 148.919 300.216 125.545 292.435C99.7423 283.846 77.0659 267.798 60.3836 246.321C43.7013 224.844 33.7623 198.902 31.8235 171.776C29.8847 144.651 36.0331 117.559 49.4913 93.9278C62.9495 70.2964 83.1129 51.1865 107.432 39.0147C131.751 26.8429 159.133 22.1559 186.116 25.5463C213.099 28.9367 238.47 40.2522 259.022 58.0621C277.639 74.1952 291.543 95.001 299.343 118.27C300.689 122.284 298.266 126.51 294.183 127.63C290.101 128.75 285.906 126.338 284.533 122.333C277.553 101.986 265.306 83.7951 248.981 69.6482C230.721 53.8242 208.179 43.7703 184.204 40.7579C160.23 37.7455 135.901 41.91 114.294 52.7246C92.6864 63.5393 74.7712 80.5184 62.8136 101.515C50.856 122.511 45.3931 146.582 47.1157 170.683C48.8384 194.785 57.6692 217.834 72.4914 236.916C87.3136 255.998 107.462 270.257 130.387 277.889C150.883 284.711 172.777 285.964 193.838 281.585C197.983 280.724 202.197 283.101 203.317 287.183Z" fill="#FFC83E"/>
<path d="M244.005 106.054C246.799 103.943 250.793 104.487 252.723 107.409C262.413 122.083 268.083 139.089 269.106 156.72C270.251 176.465 265.516 196.106 255.499 213.159C245.481 230.213 230.632 243.913 212.828 252.528C195.025 261.142 175.066 264.283 155.477 261.555C135.888 258.826 117.549 250.35 102.777 237.198C88.0051 224.046 77.4652 206.809 72.4897 187.667C67.5143 168.525 68.3269 148.338 74.8247 129.657C80.6267 112.978 90.7287 98.1685 104.06 86.7006C106.715 84.4172 110.706 84.9858 112.816 87.7797C114.927 90.5735 114.356 94.5326 111.722 96.8403C100.381 106.779 91.7787 119.513 86.8009 133.823C81.1269 150.135 80.4174 167.763 84.7619 184.477C89.1065 201.192 98.31 216.243 111.209 227.728C124.107 239.212 140.122 246.613 157.227 248.996C174.332 251.379 191.76 248.635 207.306 241.114C222.852 233.592 235.818 221.629 244.565 206.737C253.313 191.846 257.447 174.695 256.447 157.454C255.57 142.328 250.774 127.728 242.581 115.068C240.679 112.129 241.211 108.164 244.005 106.054Z" fill="#00BB98"/>
</svg>
