<svg width="29" height="24" viewBox="0 0 29 24" fill="none" xmlns="http://www.w3.org/2000/svg">
<path d="M18.8749 1H1V16.4916H18.8749V1Z" stroke="#00BB98" stroke-width="2" stroke-linecap="round" stroke-linejoin="round"/>
<path d="M18.8748 6.95947H23.6414L27.2164 10.5345V16.4928H18.8748V6.95947Z" stroke="#00BB98" stroke-width="2" stroke-linecap="round" stroke-linejoin="round"/>
<path d="M6.36221 22.4498C8.00755 22.4498 9.34136 21.116 9.34136 19.4706C9.34136 17.8253 8.00755 16.4915 6.36221 16.4915C4.71687 16.4915 3.38306 17.8253 3.38306 19.4706C3.38306 21.116 4.71687 22.4498 6.36221 22.4498Z" stroke="#00BB98" stroke-width="2" stroke-linecap="round" stroke-linejoin="round"/>
<path d="M21.8539 22.4498C23.4993 22.4498 24.8331 21.116 24.8331 19.4706C24.8331 17.8253 23.4993 16.4915 21.8539 16.4915C20.2086 16.4915 18.8748 17.8253 18.8748 19.4706C18.8748 21.116 20.2086 22.4498 21.8539 22.4498Z" stroke="#00BB98" stroke-width="2" stroke-linecap="round" stroke-linejoin="round"/>
</svg>
