<svg width="27" height="31" viewBox="0 0 27 31" fill="none" xmlns="http://www.w3.org/2000/svg">
<path d="M22.4673 1H24.6397C24.7786 1 24.9117 1.05515 25.0099 1.15332C25.108 1.25149 25.1632 1.38464 25.1632 1.52347V12.7624C25.1632 13.7911 24.7545 14.7777 24.0271 15.5052C23.2997 16.2326 22.313 16.6413 21.2843 16.6413H16.6411C15.6124 16.6413 14.6257 16.2326 13.8983 15.5052C13.1709 14.7777 12.7622 13.7911 12.7622 12.7624V1.52347C12.7622 1.38464 12.8174 1.25149 12.9155 1.15332C13.0137 1.05515 13.1468 1 13.2857 1H15.4581" stroke="#2B59FF" stroke-width="2" stroke-linecap="round" stroke-linejoin="round"/>
<path d="M3.87964 16.9704V22.4563C3.87964 24.4569 4.67437 26.3755 6.08899 27.7902C7.50361 29.2048 9.42225 29.9995 11.4228 29.9995C13.4234 29.9995 15.342 29.2048 16.7567 27.7902C18.1713 26.3755 18.966 24.4569 18.966 22.4563V19.6872M12.7629 12.2068V12.7617C12.7629 13.7904 13.1716 14.777 13.899 15.5045C14.6265 16.2319 15.6131 16.6406 16.6418 16.6406H21.285C22.3137 16.6406 23.3004 16.2319 24.0278 15.5045C24.7552 14.777 25.1639 13.7904 25.1639 12.7617V12.2068H12.7629Z" stroke="#2B59FF" stroke-width="2" stroke-linecap="round" stroke-linejoin="round"/>
<path d="M3.87908 16.9698C5.46915 16.9698 6.75816 15.6808 6.75816 14.0908C6.75816 12.5007 5.46915 11.2117 3.87908 11.2117C2.28901 11.2117 1 12.5007 1 14.0908C1 15.6808 2.28901 16.9698 3.87908 16.9698Z" stroke="#2B59FF" stroke-width="2" stroke-linecap="round" stroke-linejoin="round"/>
<path d="M18.9658 19.6887C18.4899 19.6893 18.029 19.5215 17.6649 19.2149C17.3008 18.9083 17.057 18.4827 16.9767 18.0136L16.7463 16.6421H21.1958L20.9341 18.0345C20.8509 18.4967 20.6085 18.9153 20.249 19.2174C19.8895 19.5196 19.4355 19.6863 18.9658 19.6887V19.6887Z" stroke="#2B59FF" stroke-width="2" stroke-linecap="round" stroke-linejoin="round"/>
</svg>
