<svg width="382" height="382" viewBox="0 0 382 382" fill="none" xmlns="http://www.w3.org/2000/svg">
<path d="M229.388 331.905C230.651 336.512 227.945 341.295 223.275 342.3C196.206 348.125 168.014 346.609 141.643 337.83C112.532 328.14 86.9477 310.034 68.1263 285.803C49.3049 261.572 38.0914 232.304 35.904 201.7C33.7166 171.096 40.6534 140.531 55.8373 113.869C71.0212 87.2078 93.7701 65.6476 121.207 51.915C148.645 38.1825 179.538 32.8944 209.981 36.7195C240.423 40.5447 269.048 53.3112 292.235 73.4047C313.239 91.6066 328.927 115.08 337.727 141.333C339.245 145.862 336.512 150.63 331.905 151.893C327.299 153.157 322.567 150.435 321.017 145.917C313.142 122.961 299.325 102.437 280.907 86.4765C260.306 68.6234 234.872 57.2804 207.824 53.8817C180.776 50.4831 153.327 55.1815 128.949 67.3829C104.571 79.5843 84.3587 98.7405 70.8678 122.429C57.377 146.118 51.2136 173.275 53.1571 200.467C55.1006 227.659 65.0638 253.663 81.7866 275.193C98.5095 296.722 121.241 312.809 147.106 321.419C170.231 329.116 194.931 330.529 218.693 325.59C223.369 324.617 228.124 327.299 229.388 331.905Z" fill="#FFC83E" class="round-1"/>
<path d="M247.021 96.5117C250.233 94.0844 254.827 94.7097 257.046 98.0699C268.19 114.946 274.71 134.503 275.887 154.778C277.204 177.484 271.758 200.072 260.238 219.683C248.718 239.295 231.641 255.05 211.167 264.957C190.693 274.863 167.741 278.476 145.214 275.338C122.686 272.2 101.596 262.452 84.6081 247.328C67.6206 232.203 55.4996 212.381 49.7779 190.367C44.0561 168.354 44.9906 145.138 52.4631 123.656C59.1354 104.474 70.7527 87.4438 86.0841 74.2557C89.1368 71.6298 93.7264 72.2837 96.1537 75.4966C98.5809 78.7095 97.9239 83.2624 94.8955 85.9164C81.8534 97.3458 71.9602 111.989 66.2357 128.447C59.7107 147.205 58.8947 167.477 63.8909 186.699C68.8872 205.921 79.4712 223.23 94.3046 236.437C109.138 249.644 127.555 258.155 147.226 260.895C166.896 263.635 186.938 260.481 204.816 251.831C222.694 243.18 237.606 229.423 247.665 212.298C257.724 195.173 262.479 175.45 261.329 155.622C260.32 138.227 254.805 121.437 245.383 106.879C243.195 103.498 243.808 98.9389 247.021 96.5117Z" class="fill-secondary round-2"/>
</svg>
