<svg width="385" height="385" viewBox="0 0 385 385" fill="none" xmlns="http://www.w3.org/2000/svg">
<path d="M230.345 334.003C231.567 338.617 228.821 343.372 224.147 344.336C197.051 349.92 168.897 348.159 142.626 339.158C113.625 329.222 88.2212 310.91 69.6277 286.536C51.0342 262.162 40.0858 232.822 38.1672 202.226C36.2485 171.63 43.4457 141.152 58.8486 114.647C74.2516 88.1412 97.1684 66.7983 124.701 53.3171C152.234 39.8359 183.146 34.8219 213.529 38.9091C243.911 42.9963 272.399 56.0011 295.39 76.2791C316.217 94.648 331.686 118.238 340.25 144.544C341.727 149.082 338.955 153.822 334.341 155.044C329.728 156.266 325.024 153.506 323.515 148.978C315.847 125.973 302.221 105.348 283.959 89.2406C263.531 71.2236 238.219 59.6688 211.224 56.0373C184.23 52.4058 156.764 56.8608 132.301 68.8388C107.838 80.8169 87.4768 99.78 73.7913 123.33C60.1058 146.88 53.7111 173.96 55.4158 201.145C57.1205 228.329 66.8481 254.398 83.3685 276.054C99.8888 297.71 122.46 313.981 148.228 322.809C171.264 330.701 195.931 332.328 219.714 327.6C224.395 326.669 229.122 329.39 230.345 334.003Z" fill="#FFC83E" class="round-1"/>
<path d="M295.049 157.747C298.861 156.45 303.027 158.485 304.08 162.371C309.367 181.891 309.424 202.506 304.181 222.127C298.309 244.101 286.053 263.84 268.963 278.848C251.872 293.856 230.715 303.46 208.167 306.444C185.619 309.428 162.692 305.658 142.286 295.612C121.88 285.566 104.911 269.695 93.5254 250.005C82.1397 230.315 76.8485 207.691 78.3208 184.993C79.7931 162.296 87.9628 140.545 101.797 122.491C114.149 106.371 130.523 93.8443 149.217 86.131C152.939 84.5952 157.092 86.6559 158.389 90.468V90.468C159.686 94.2801 157.634 98.3972 153.926 99.9672C137.957 106.729 123.969 117.53 113.372 131.361C101.292 147.125 94.1578 166.118 92.8722 185.937C91.5866 205.757 96.2069 225.512 106.149 242.705C116.091 259.898 130.908 273.757 148.727 282.53C166.545 291.302 186.565 294.593 206.254 291.988C225.943 289.382 244.417 280.996 259.341 267.891C274.264 254.786 284.966 237.55 290.093 218.362C294.592 201.529 294.622 183.856 290.242 167.077C289.225 163.181 291.237 159.044 295.049 157.747V157.747Z" fill="#00BB98" class="round-2"/>
</svg>
