<svg width="40" height="40" viewBox="0 0 40 40" fill="none" xmlns="http://www.w3.org/2000/svg">
<path d="M9.00952 16.3215C9.84699 16.6988 10.7564 16.8898 11.675 16.8812C13.0441 16.8616 14.3814 16.465 15.5399 15.7351C15.7359 15.601 15.8925 15.4171 15.9935 15.2022C16.0946 14.9873 16.1364 14.7494 16.1147 14.5129C16.0929 14.2765 16.0084 14.0501 15.8699 13.8573C15.7313 13.6645 15.5438 13.5122 15.3266 13.4161C14.801 13.1976 14.3302 12.8657 13.9477 12.4441C13.5653 12.0225 13.2807 11.5216 13.1143 10.9772C13.0418 10.6238 12.8319 10.3136 12.5308 10.1149C12.2296 9.91618 11.8618 9.84526 11.5084 9.91772C11.1549 9.99018 10.8447 10.2001 10.646 10.5013C10.4473 10.8024 10.3764 11.1702 10.4489 11.5237C10.7077 12.5176 11.2065 13.4328 11.9015 14.1891C11.2799 14.2408 10.6554 14.1306 10.089 13.8692C9.9289 13.7982 9.75635 13.7595 9.58125 13.7553C9.40614 13.751 9.23192 13.7813 9.06853 13.8444C8.90515 13.9075 8.75581 14.0023 8.62905 14.1231C8.5023 14.244 8.40062 14.3887 8.32983 14.5489C8.25675 14.7098 8.21638 14.8835 8.21106 15.0601C8.20573 15.2366 8.23556 15.4125 8.2988 15.5774C8.36204 15.7423 8.45744 15.8931 8.57946 16.0208C8.70147 16.1485 8.84765 16.2507 9.00952 16.3215Z" fill="#00BB98"/>
<path d="M14.5402 29.2484C14.6657 29.4158 14.8288 29.5512 15.0163 29.6438C15.2038 29.7364 15.4105 29.7836 15.6197 29.7815C15.8649 29.7797 16.1049 29.7102 16.3133 29.5808C16.5216 29.4513 16.6901 29.2669 16.8004 29.0478C16.9106 28.8287 16.9582 28.5835 16.938 28.339C16.9178 28.0946 16.8306 27.8605 16.6859 27.6625C15.9795 26.6896 16.1528 24.4773 16.4726 23.0912C16.4726 22.9313 16.5526 22.7847 16.5792 22.6381C16.6186 22.4675 16.624 22.2908 16.5951 22.118C16.5662 21.9453 16.5035 21.78 16.4107 21.6315C16.3179 21.483 16.1967 21.3542 16.0541 21.2525C15.9116 21.1508 15.7503 21.0782 15.5797 21.0389C15.4091 20.9995 15.2323 20.9941 15.0596 21.023C14.8869 21.0519 14.7216 21.1146 14.5731 21.2074C14.4245 21.3002 14.2958 21.4214 14.1941 21.564C14.0924 21.7065 14.0198 21.8678 13.9804 22.0384L13.9005 22.3449C13.6687 23.2196 13.1471 23.9899 12.4208 24.5297C11.6946 25.0696 10.8067 25.3471 9.9023 25.3169C9.54884 25.3169 9.20986 25.4573 8.95993 25.7072C8.70999 25.9572 8.56958 26.2962 8.56958 26.6496C8.56958 27.0031 8.70999 27.3421 8.95993 27.592C9.20986 27.8419 9.54884 27.9823 9.9023 27.9823C11.2184 27.9915 12.5093 27.6214 13.6206 26.9162C13.745 27.7536 14.0596 28.5514 14.5402 29.2484Z" fill="#00BB98"/>
<path d="M39.9817 19.4269C39.9756 18.5056 39.7877 17.5945 39.4286 16.746C39.0695 15.8976 38.5464 15.1283 37.8893 14.4825C38.0764 13.8509 38.1707 13.1955 38.1692 12.5368C38.1682 10.7964 37.5124 9.12004 36.3321 7.841C35.1518 6.56195 33.5335 5.77382 31.7988 5.63325C31.748 5.38486 31.6812 5.14002 31.5989 4.90025C31.2473 3.74565 30.5993 2.70339 29.7193 1.87739C28.8393 1.0514 27.7581 0.470546 26.5836 0.19276C25.409 -0.0850264 24.1822 -0.0500375 23.0254 0.294237C21.8686 0.638511 20.8223 1.28004 19.9908 2.15484C19.1631 1.28281 18.1223 0.641614 16.9711 0.294503C15.8199 -0.0526073 14.5982 -0.0936442 13.4263 0.17544C12.2544 0.444525 11.173 1.01444 10.2885 1.82896C9.4041 2.64349 8.74727 3.67449 8.38283 4.82029C8.29879 5.06764 8.23636 5.32181 8.19625 5.57994C6.44994 5.71802 4.82071 6.5123 3.63634 7.803C2.45196 9.0937 1.80032 10.785 1.8125 12.5368C1.81101 13.1955 1.90529 13.8509 2.09237 14.4825C1.43524 15.1283 0.912132 15.8976 0.553065 16.746C0.193998 17.5945 0.00604639 18.5056 0 19.4269C0.000910784 20.3459 0.185275 21.2554 0.542282 22.1021C0.89929 22.9489 1.42176 23.7158 2.07905 24.358C1.90465 24.9783 1.81499 25.6194 1.8125 26.2638C1.81382 27.9844 2.45395 29.6433 3.60879 30.9188C4.76364 32.1943 6.35093 32.9956 8.06297 33.1673C8.07382 33.8237 8.1816 34.4749 8.38283 35.0998C8.73435 36.2543 9.38242 37.2966 10.2624 38.1226C11.1424 38.9486 12.2236 39.5295 13.3981 39.8072C14.5726 40.085 15.7995 40.05 16.9563 39.7058C18.113 39.3615 19.1593 38.72 19.9908 37.8452C20.8186 38.7172 21.8594 39.3584 23.0106 39.7055C24.1618 40.0526 25.3835 40.0936 26.5554 39.8246C27.7272 39.5555 28.8087 38.9856 29.6932 38.171C30.5776 37.3565 31.2344 36.3255 31.5989 35.1797C31.8256 34.5315 31.9558 33.8534 31.9853 33.1673C33.6974 32.9956 35.2847 32.1943 36.4395 30.9188C37.5944 29.6433 38.2345 27.9844 38.2358 26.2638C38.2333 25.6194 38.1437 24.9783 37.9693 24.358C38.6145 23.7103 39.1247 22.9408 39.4701 22.0943C39.8156 21.2479 39.9895 20.3412 39.9817 19.4269ZM14.9931 37.3254C14.0802 37.3336 13.1896 37.044 12.4561 36.5005C11.7226 35.957 11.1862 35.1892 10.9283 34.3134C10.7954 33.9092 10.728 33.4862 10.7284 33.0607C10.7281 32.7415 10.7684 32.4235 10.8484 32.1144C10.9057 31.8957 10.9065 31.6658 10.8505 31.4467C10.7946 31.2275 10.6838 31.0262 10.5285 30.8617C10.4042 30.7277 10.2538 30.6207 10.0864 30.5473C9.91903 30.474 9.73836 30.4358 9.55562 30.4352H9.30241C9.1163 30.454 8.92877 30.454 8.74266 30.4352C7.61159 30.4352 6.52684 29.9859 5.72705 29.1861C4.92727 28.3863 4.47795 27.3016 4.47795 26.1705C4.48151 25.5549 4.61313 24.9467 4.86444 24.3847C4.98953 24.1044 5.01408 23.7896 4.93396 23.4934C4.85383 23.1972 4.67393 22.9377 4.42464 22.7587C3.8936 22.3774 3.45832 21.878 3.15305 21.2998C2.84779 20.7217 2.68088 20.0805 2.66545 19.4269C2.67365 18.756 2.83957 18.0963 3.14979 17.5014C3.46002 16.9064 3.90586 16.3927 4.45129 16.0018C4.6991 15.8185 4.87571 15.555 4.95104 15.2561C5.02637 14.9572 4.99576 14.6414 4.86444 14.3626C4.55939 13.7104 4.42388 12.9917 4.47047 12.2732C4.51706 11.5547 4.74425 10.8596 5.13098 10.2523C5.51771 9.64495 6.05147 9.14504 6.68281 8.79889C7.31415 8.45273 8.02265 8.27152 8.74266 8.27204C8.88459 8.26065 9.0272 8.26065 9.16913 8.27204C9.35765 8.30795 9.5517 8.30273 9.73801 8.25673C9.92432 8.21073 10.0985 8.12503 10.2486 8.0055C10.4026 7.87734 10.5257 7.71613 10.6087 7.53385C10.6918 7.35157 10.7327 7.15291 10.7284 6.95265C10.7251 6.5007 10.7926 6.05101 10.9283 5.61992C11.1815 4.83863 11.6549 4.14707 12.2916 3.62831C12.9283 3.10956 13.7013 2.78569 14.5176 2.69561C15.3339 2.60553 16.1589 2.75308 16.8934 3.12053C17.6279 3.48797 18.2407 4.05969 18.6581 4.76698V35.2197C18.287 35.8625 17.7525 36.3959 17.1089 36.7656C16.4653 37.1354 15.7354 37.3285 14.9931 37.3254ZM35.557 22.852C35.3078 23.031 35.1279 23.2905 35.0477 23.5867C34.9676 23.8829 34.9922 24.1977 35.1172 24.478C35.3686 25.04 35.5002 25.6482 35.5037 26.2638C35.5037 27.3949 35.0544 28.4796 34.2546 29.2794C33.4548 30.0792 32.3701 30.5285 31.239 30.5285C31.0529 30.5473 30.8654 30.5473 30.6793 30.5285C30.4578 30.486 30.2291 30.5003 30.0146 30.5702C29.8002 30.6402 29.607 30.7634 29.4532 30.9283C29.2979 31.0928 29.1871 31.2942 29.1312 31.5133C29.0752 31.7325 29.0759 31.9623 29.1333 32.1811C29.2133 32.4901 29.2536 32.8081 29.2533 33.1273C29.2566 33.5793 29.1891 34.029 29.0534 34.46C28.8081 35.2471 28.3393 35.9459 27.704 36.4713C27.0686 36.9967 26.2943 37.3261 25.4752 37.4193C24.656 37.5125 23.8275 37.3656 23.0904 36.9963C22.3533 36.6271 21.7394 36.0515 21.3236 35.3396V4.76698C21.7426 4.05585 22.3595 3.48207 23.0991 3.11566C23.8387 2.74926 24.669 2.60607 25.4886 2.70357C26.3082 2.80108 27.0818 3.13506 27.7148 3.66476C28.3478 4.19446 28.8129 4.89697 29.0534 5.68656C29.1918 6.11703 29.2593 6.56714 29.2533 7.01928C29.2565 7.21388 29.3023 7.4054 29.3875 7.58038C29.4727 7.75536 29.5952 7.90957 29.7464 8.03215C29.8959 8.1582 30.0713 8.24981 30.2601 8.30048C30.449 8.35116 30.6467 8.35964 30.8392 8.32535C30.9722 8.31234 31.1061 8.31234 31.239 8.32535C31.9537 8.32791 32.6564 8.5095 33.2829 8.85353C33.9094 9.19756 34.4397 9.69307 34.8254 10.2948C35.2111 10.8965 35.4399 11.5853 35.4908 12.2982C35.5418 13.0111 35.4134 13.7254 35.1172 14.3759C34.9894 14.6532 34.9607 14.9661 35.0359 15.262C35.1111 15.558 35.2857 15.8192 35.5304 16.0018C36.0758 16.3927 36.5217 16.9064 36.8319 17.5014C37.1421 18.0963 37.308 18.756 37.3162 19.4269C37.3154 20.0964 37.1554 20.756 36.8495 21.3515C36.5437 21.947 36.1007 22.4613 35.557 22.852Z" fill="#00BB98"/>
<path d="M26.9078 10.9914C26.7389 11.5329 26.4532 12.0307 26.071 12.4498C25.6888 12.8689 25.2192 13.199 24.6955 13.4169C24.4784 13.513 24.2908 13.6653 24.1523 13.8581C24.0137 14.0509 23.9292 14.2773 23.9075 14.5137C23.8857 14.7502 23.9275 14.9881 24.0286 15.203C24.1297 15.4179 24.2863 15.6018 24.4823 15.7359C25.6408 16.4658 26.978 16.8624 28.3472 16.882C29.2657 16.8906 30.1752 16.6996 31.0126 16.3223C31.336 16.1773 31.5887 15.9099 31.7149 15.5787C31.8411 15.2476 31.8306 14.8798 31.6857 14.5564C31.5407 14.233 31.2733 13.9804 30.9421 13.8542C30.611 13.728 30.2432 13.7385 29.9198 13.8834C29.353 14.1436 28.7289 14.2537 28.1073 14.2032C28.8045 13.4486 29.3037 12.5328 29.56 11.5378C29.6307 11.1843 29.558 10.8173 29.3581 10.5173C29.1581 10.2174 28.8472 10.0092 28.4938 9.93852C28.1403 9.86783 27.7733 9.94045 27.4733 10.1404C27.1734 10.3403 26.9652 10.6512 26.8945 11.0047L26.9078 10.9914Z" fill="#00BB98"/>
<path d="M30.0932 25.3312C29.1906 25.3621 28.3041 25.0865 27.5781 24.5492C26.8521 24.012 26.3294 23.2448 26.0951 22.3725C26.0951 22.2259 26.0284 22.106 26.0151 22.0527C25.9356 21.6992 25.7189 21.3918 25.4127 21.1981C25.1065 21.0044 24.736 20.9403 24.3825 21.0198C24.0291 21.0993 23.7217 21.316 23.528 21.6222C23.3343 21.9284 23.2701 22.2989 23.3497 22.6524C23.3497 22.799 23.4163 22.9456 23.4563 23.0922C23.7361 24.4249 23.976 26.6772 23.243 27.6768C23.0983 27.8748 23.0111 28.1089 22.9909 28.3533C22.9707 28.5977 23.0183 28.843 23.1285 29.0621C23.2388 29.2812 23.4073 29.4656 23.6156 29.5951C23.824 29.7245 24.064 29.794 24.3092 29.7958C24.5184 29.7979 24.7251 29.7507 24.9126 29.6581C25.1001 29.5655 25.2632 29.43 25.3887 29.2627C25.8646 28.5645 26.1746 27.7668 26.295 26.9304C27.4062 27.6356 28.6971 28.0058 30.0133 27.9966C30.3667 27.9966 30.7057 27.8562 30.9556 27.6063C31.2056 27.3563 31.346 27.0173 31.346 26.6639C31.346 26.3104 31.2056 25.9714 30.9556 25.7215C30.7057 25.4716 30.3667 25.3312 30.0133 25.3312H30.0932Z" fill="#00BB98"/>
</svg>
