<svg width="42" height="30" viewBox="0 0 42 30" fill="none" xmlns="http://www.w3.org/2000/svg">
<path d="M40.9602 14.6045C38.383 6.15 29.8057 0 20.5057 0C11.2057 0 2.62841 6.15 0.0511402 14.6045C-0.0170467 14.8638 -0.0170467 15.1362 0.0511402 15.3955C2.62841 23.85 11.2057 30 20.5057 30C29.8057 30 38.383 23.85 40.9602 15.3955C41.0284 15.1362 41.0284 14.8638 40.9602 14.6045ZM20.5057 27.2727C16.6564 27.2956 12.8941 26.1288 9.73318 23.9321C6.57226 21.7353 4.16709 18.6157 2.84659 15C4.16709 11.3843 6.57226 8.26471 9.73318 6.06793C12.8941 3.87116 16.6564 2.70442 20.5057 2.72727C24.3665 2.6903 28.144 3.85046 31.3185 6.04819C34.493 8.24592 36.9086 11.3732 38.233 15C36.9086 18.6268 34.493 21.7541 31.3185 23.9518C28.144 26.1495 24.3665 27.3097 20.5057 27.2727Z" fill="#781BFF"/>
<path d="M29.9558 10.3776C29.9647 9.60142 29.7819 8.83501 29.4237 8.14636C29.0654 7.4577 28.5428 6.86806 27.9022 6.42972C27.2615 5.99139 26.5226 5.71789 25.751 5.63347C24.9793 5.54906 24.1988 5.65634 23.4785 5.9458C22.5211 5.62072 21.5169 5.45488 20.5058 5.4549C18.6179 5.4549 16.7724 6.01473 15.2026 7.06359C13.6329 8.11246 12.4094 9.60326 11.6869 11.3475C10.9645 13.0917 10.7754 15.0109 11.1437 16.8626C11.5121 18.7142 12.4212 20.415 13.7561 21.75C15.0911 23.085 16.7919 23.9941 18.6436 24.3624C20.4952 24.7307 22.4145 24.5417 24.1587 23.8192C25.9029 23.0967 27.3937 21.8733 28.4425 20.3035C29.4914 18.7338 30.0512 16.8883 30.0512 15.0003C30.0506 14.0372 29.8987 13.0801 29.6012 12.164C29.8374 11.5981 29.958 10.9908 29.9558 10.3776ZM27.2285 10.3776C27.2304 10.722 27.141 11.0608 26.9694 11.3594C26.7909 11.6628 26.5433 11.9198 26.2467 12.1094H26.1649L25.8103 12.2594H25.6876C25.5246 12.2796 25.3597 12.2796 25.1967 12.2594C25.0516 12.2735 24.9054 12.2735 24.7603 12.2594C24.5769 12.2225 24.4014 12.1532 24.2421 12.0549C23.928 11.8725 23.6689 11.6087 23.4921 11.2913C23.3909 11.1748 23.3039 11.0466 23.2331 10.9094C23.219 10.7643 23.219 10.6182 23.2331 10.4731C23.2357 10.3073 23.2586 10.1424 23.3012 9.98217C23.303 9.95037 23.303 9.91851 23.3012 9.88671C23.3508 9.7355 23.4147 9.58939 23.4921 9.45035C23.6799 9.13564 23.9482 8.87673 24.2694 8.70035C24.5584 8.54307 24.8814 8.4588 25.2103 8.45489C25.7275 8.46086 26.2232 8.66251 26.5976 9.01926C26.9721 9.37601 27.1975 9.86136 27.2285 10.3776ZM23.2331 14.714C23.2395 14.8093 23.2395 14.905 23.2331 15.0003C23.2331 15.5398 23.0731 16.067 22.7734 16.5155C22.4738 16.964 22.0478 17.3136 21.5495 17.52C21.0511 17.7264 20.5028 17.7805 19.9737 17.6752C19.4447 17.57 18.9587 17.3102 18.5773 16.9288C18.1959 16.5474 17.9361 16.0615 17.8309 15.5324C17.7257 15.0034 17.7797 14.455 17.9861 13.9567C18.1925 13.4583 18.5421 13.0324 18.9906 12.7327C19.4391 12.433 19.9664 12.2731 20.5058 12.2731C20.6099 12.2597 20.7153 12.2597 20.8194 12.2731C21.0285 12.7368 21.3092 13.1647 21.6512 13.5413L21.7876 13.7049C21.9353 13.8445 22.0901 13.9765 22.2512 14.1003C22.3206 14.1592 22.3935 14.2138 22.4694 14.264C22.6747 14.4121 22.8939 14.54 23.124 14.6458L23.2331 14.714ZM20.5058 21.8185C18.6975 21.8185 16.9633 21.1002 15.6846 19.8215C14.4059 18.5429 13.6876 16.8086 13.6876 15.0003C13.6876 13.1921 14.4059 11.4578 15.6846 10.1792C16.9633 8.90051 18.6975 8.18217 20.5058 8.18217H20.9558C20.9502 8.21831 20.9502 8.25511 20.9558 8.29126C20.8359 8.53754 20.7356 8.79288 20.6558 9.0549C20.6497 9.1366 20.6497 9.21864 20.6558 9.30035C20.5995 9.37816 20.5494 9.46023 20.5058 9.5458C19.4305 9.54593 18.3792 9.86387 17.4841 10.4597C16.5889 11.0555 15.8899 11.9026 15.4747 12.8945C15.0596 13.8865 14.9469 14.979 15.1508 16.0347C15.3548 17.0905 15.8662 18.0625 16.6208 18.8285C17.3755 19.5945 18.3398 20.1203 19.3924 20.3399C20.445 20.5595 21.5391 20.4631 22.5371 20.0628C23.5351 19.6625 24.3925 18.9761 25.0016 18.0899C25.6106 17.2038 25.9442 16.1573 25.9603 15.0822H26.2467H26.4649C26.7374 15.0132 27.0023 14.9173 27.2558 14.7958C27.2809 14.8632 27.3036 14.9314 27.324 15.0003C27.324 16.8086 26.6056 18.5429 25.327 19.8215C24.0483 21.1002 22.3141 21.8185 20.5058 21.8185Z" fill="#781BFF"/>
</svg>
