<svg width="37" height="36" viewBox="0 0 37 36" fill="none" xmlns="http://www.w3.org/2000/svg">
<path d="M35.781 8.75635L27.3777 0.353049C27.2658 0.241119 27.1329 0.152331 26.9867 0.0917543C26.8404 0.0311781 26.6837 0 26.5254 0C26.2057 0 25.8991 0.126995 25.6731 0.353049C25.447 0.579102 25.32 0.885696 25.32 1.20538C25.32 1.52507 25.447 1.83167 25.6731 2.05772L29.0344 5.40704L26.5254 7.91602L23.1761 4.5547C23.0645 4.44218 22.9317 4.35288 22.7854 4.29193C22.6391 4.23098 22.4822 4.1996 22.3237 4.1996C22.1653 4.1996 22.0084 4.23098 21.8621 4.29193C21.7158 4.35288 21.583 4.44218 21.4714 4.5547L4.66479 21.3613C4.55227 21.4729 4.46297 21.6057 4.40202 21.752C4.34107 21.8983 4.3097 22.0552 4.3097 22.2136C4.3097 22.3721 4.34107 22.529 4.40202 22.6753C4.46297 22.8216 4.55227 22.9544 4.66479 23.066L5.86527 24.2665L2.51595 27.6158C2.40343 27.7274 2.31412 27.8601 2.25317 28.0064C2.19223 28.1527 2.16085 28.3096 2.16085 28.4681C2.16085 28.6266 2.19223 28.7835 2.25317 28.9298C2.31412 29.0761 2.40343 29.2088 2.51595 29.3204L3.71642 30.5209L0.355098 33.8702C0.242579 33.9818 0.153271 34.1146 0.0923246 34.2609C0.0313782 34.4072 0 34.5641 0 34.7226C0 34.881 0.0313782 35.038 0.0923246 35.1842C0.153271 35.3305 0.242579 35.4633 0.355098 35.5749C0.466697 35.6874 0.599471 35.7767 0.745759 35.8377C0.892048 35.8986 1.04896 35.93 1.20743 35.93C1.36591 35.93 1.52282 35.8986 1.66911 35.8377C1.8154 35.7767 1.94817 35.6874 2.05977 35.5749L5.40909 32.2136L6.60956 33.4741C6.71005 33.6299 6.84529 33.7604 7.00466 33.8552C7.16403 33.95 7.34321 34.0066 7.52812 34.0206C7.71304 34.0345 7.89868 34.0055 8.07048 33.9356C8.24227 33.8658 8.39556 33.7571 8.51831 33.6181L11.8676 30.2568L13.0681 31.5173C13.1797 31.6298 13.3125 31.7191 13.4588 31.7801C13.605 31.841 13.762 31.8724 13.9204 31.8724C14.0789 31.8724 14.2358 31.841 14.3821 31.7801C14.5284 31.7191 14.6612 31.6298 14.7728 31.5173L31.5794 14.7107C31.6919 14.5991 31.7812 14.4663 31.8422 14.32C31.9031 14.1737 31.9345 14.0168 31.9345 13.8584C31.9345 13.6999 31.9031 13.543 31.8422 13.3967C31.7812 13.2504 31.6919 13.1176 31.5794 13.006L28.2181 9.60869L30.727 7.0997L34.0764 10.461C34.188 10.5735 34.3207 10.6629 34.467 10.7238C34.6133 10.7847 34.7702 10.8161 34.9287 10.8161C35.0872 10.8161 35.2441 10.7847 35.3904 10.7238C35.5367 10.6629 35.6694 10.5735 35.781 10.461C35.8936 10.3494 35.9829 10.2167 36.0438 10.0704C36.1048 9.92407 36.1361 9.76717 36.1361 9.60869C36.1361 9.45021 36.1048 9.2933 36.0438 9.14702C35.9829 9.00073 35.8936 8.86795 35.781 8.75635ZM7.61795 31.0251L5.10897 28.5161L7.61795 26.0071L10.1269 28.5161L7.61795 31.0251ZM25.481 17.3637L22.1197 14.0144C21.89 13.8178 21.5946 13.715 21.2925 13.7267C20.9903 13.7383 20.7037 13.8636 20.4899 14.0774C20.2761 14.2912 20.1509 14.5778 20.1392 14.8799C20.1276 15.182 20.2303 15.4774 20.427 15.7071L23.7763 19.0684L22.3237 20.521L18.9744 17.1597C18.8625 17.0477 18.7296 16.9589 18.5834 16.8984C18.4371 16.8378 18.2804 16.8066 18.1221 16.8066C17.9638 16.8066 17.8071 16.8378 17.6608 16.8984C17.5146 16.9589 17.3817 17.0477 17.2698 17.1597C17.1578 17.2716 17.069 17.4045 17.0085 17.5507C16.9479 17.697 16.9167 17.8537 16.9167 18.012C16.9167 18.3317 17.0437 18.6383 17.2698 18.8643L20.6311 22.2136L19.1785 23.6662L15.8172 20.3169C15.5875 20.1202 15.2921 20.0175 14.99 20.0291C14.6879 20.0408 14.4013 20.1661 14.1875 20.3799C13.9737 20.5936 13.8484 20.8802 13.8367 21.1824C13.8251 21.4845 13.9278 21.7799 14.1245 22.0096L17.4738 25.3709L13.8724 28.9723L12.6719 27.7118L8.51831 23.4621L7.31784 22.2617L22.3237 7.0997L29.0344 13.8103L25.481 17.3637Z" fill="#FFC83E"/>
</svg>
