<svg width="40" height="40" viewBox="0 0 40 40" fill="none" xmlns="http://www.w3.org/2000/svg">
<path d="M39.801 33.715L39.7211 32.6232C39.7211 32.277 39.7211 31.9174 39.6279 31.5712C39.5347 31.225 39.5347 30.6125 39.4815 30.1332C39.4815 29.9601 39.4815 29.7736 39.4149 29.6005C39.335 29.0146 39.2551 28.4421 39.1752 27.8828V27.7763C36.0461 8.30892 24.6879 7.98935 24.0354 7.98935C23.8241 7.99032 23.6162 8.04155 23.4286 8.13879C23.2411 8.23604 23.0794 8.37651 22.9568 8.5486C22.4185 9.31587 22.0092 10.166 21.7451 11.0652C21.4406 9.61547 21.28 8.13914 21.2658 6.65779V1.33156C21.2658 0.978407 21.1255 0.63972 20.8758 0.390004C20.626 0.140289 20.2873 0 19.9342 0C19.581 0 19.2424 0.140289 18.9926 0.390004C18.7429 0.63972 18.6026 0.978407 18.6026 1.33156V6.65779C18.5927 8.1431 18.4366 9.62383 18.1366 11.0786C17.8725 10.1793 17.4632 9.32918 16.9249 8.56192C16.8038 8.38736 16.6427 8.24431 16.4551 8.14471C16.2675 8.0451 16.0587 7.99183 15.8463 7.98935C15.1805 7.98935 3.8623 8.30892 0.733135 27.7763V27.8828C0.653241 28.4421 0.573348 29.0146 0.493454 29.6005C0.493454 29.7736 0.493454 29.9467 0.426876 30.1332C0.426876 30.5992 0.320352 31.0786 0.280405 31.5712C0.240458 32.0639 0.213827 32.277 0.187196 32.6232L0.107302 33.715C0.107302 34.4873 0.0274089 35.2597 0.000777704 36.0453C-0.00966822 36.5657 0.0852104 37.0829 0.279712 37.5657C0.474213 38.0485 0.764321 38.487 1.1326 38.8549C1.84329 39.5532 2.79936 39.9452 3.79572 39.9467H3.9555C4.40823 39.9467 4.90091 39.9467 5.43353 39.8402C7.66138 39.6254 9.80801 38.8921 11.7017 37.699C13.5954 36.506 15.1835 34.8862 16.339 32.9694C16.6053 32.5166 16.845 32.0506 17.0714 31.5712C17.0714 31.4114 17.1779 31.265 17.2445 31.1052C17.311 30.9454 17.5108 30.4527 17.6173 30.1198C17.7238 29.787 17.7238 29.7337 17.7771 29.534C17.8303 29.3342 17.9369 28.9348 18.0034 28.6285C18.07 28.3222 18.0034 28.2024 18.0966 27.9893C18.1899 27.7763 18.1765 27.4168 18.2032 27.1238C18.2298 26.8309 18.2032 26.6711 18.2032 26.4447C18.2032 26.2184 18.2032 25.8855 18.2032 25.6059C18.2032 25.3262 18.2032 25.1398 18.2032 24.9134C18.2032 24.6871 18.2032 24.3542 18.11 24.0746C18.0168 23.7949 18.0168 23.6085 17.9635 23.3822C17.9102 23.1558 17.857 22.8495 17.7771 22.5699C17.6972 22.2903 17.6306 22.1039 17.5507 21.8775C17.4708 21.6511 17.4309 21.4514 17.351 21.2517C17.9539 19.548 18.3474 17.7774 18.5227 15.9787C19.1314 15.5241 19.6166 14.9244 19.9342 14.2344C20.2518 14.9244 20.737 15.5241 21.3457 15.9787C21.5426 17.7988 21.963 19.5877 22.5973 21.3049C22.5174 21.5047 22.4642 21.7177 22.3976 21.9174C22.331 22.1172 22.2245 22.3968 22.1579 22.6365C22.0913 22.8762 22.0381 23.1558 21.9848 23.4221C21.9315 23.6884 21.8783 23.9015 21.8383 24.1411C21.7984 24.3808 21.7718 24.6738 21.7451 24.9401C21.7185 25.2064 21.7451 25.4194 21.7451 25.6591C21.7451 25.8988 21.7451 26.2051 21.7451 26.4714C21.7451 26.7377 21.7451 26.9374 21.7451 27.1771C21.7451 27.4168 21.8117 27.7364 21.8516 28.016C21.8916 28.2956 21.8516 28.4687 21.9449 28.6818C22.0381 28.8948 22.0913 29.2676 22.1712 29.5606C22.2511 29.8535 22.2644 29.9734 22.331 30.1731C22.4311 30.4954 22.5511 30.8112 22.6905 31.1185C22.7571 31.2916 22.8104 31.4647 22.8903 31.6245C23.1033 32.1038 23.3433 32.5706 23.6093 33.0226C24.7648 34.9395 26.3529 36.5592 28.2466 37.7523C30.1403 38.9454 32.2869 39.6787 34.5148 39.8935C35.0474 39.8935 35.5401 39.9734 35.9928 40H36.1526C37.1489 39.9984 38.105 39.6064 38.8157 38.9081C39.1834 38.5307 39.4699 38.082 39.6577 37.5896C39.8455 37.0973 39.9305 36.5717 39.9076 36.0453C39.9076 35.2597 39.9076 34.4873 39.801 33.715ZM15.1406 10.719C16.6586 13.5952 15.6732 17.6431 15.0341 19.5872C12.0151 18.807 8.85623 18.7386 5.80637 19.3875C8.92221 12.4234 13.4096 11.012 15.1406 10.719ZM13.2764 32.7297C12.3043 33.9879 11.0841 35.0331 9.69149 35.8004C8.29887 36.5677 6.7635 37.0408 5.18054 37.1904C4.70118 37.1904 4.24845 37.2703 3.84898 37.2836C3.53946 37.2845 3.24059 37.1706 3.0101 36.964C2.88972 36.8598 2.793 36.731 2.7264 36.5863C2.65981 36.4416 2.62488 36.2844 2.62395 36.1252C2.67674 31.4705 3.37583 26.8458 4.70118 22.3835C7.99686 21.386 11.51 21.3583 14.821 22.3036L14.9808 22.7563C15.0506 22.9433 15.1085 23.1345 15.1539 23.3289C15.2153 23.5344 15.2642 23.7434 15.3004 23.9547C15.3004 24.1411 15.3936 24.3409 15.4202 24.5273C15.4468 24.7137 15.4202 24.9667 15.4868 25.1798C15.5534 25.3928 15.4868 25.5526 15.4868 25.7257C15.4868 25.8988 15.4868 26.1917 15.4868 26.4181C15.4868 26.6445 15.4868 26.7643 15.4868 26.9374C15.4697 27.1743 15.4386 27.41 15.3936 27.6431C15.3936 27.8162 15.3936 27.976 15.3936 28.1491C15.3936 28.3222 15.2737 28.6285 15.2072 28.8815C15.1406 29.1345 15.1406 29.1877 15.0873 29.3342C15.0341 29.4807 14.9009 29.8535 14.7944 30.1198C14.6879 30.3862 14.7012 30.3728 14.6479 30.4927C14.4748 30.8655 14.2751 31.2383 14.062 31.6112C13.8234 31.9998 13.561 32.3734 13.2764 32.7297ZM24.7278 10.719C26.4588 11.012 30.9462 12.4234 34.0487 19.3875C30.9988 18.7386 27.8399 18.807 24.821 19.5872C24.1952 17.6431 23.2098 13.5952 24.7278 10.719ZM36.9116 36.964C36.6824 37.1729 36.3827 37.2871 36.0727 37.2836C35.6599 37.2836 35.2072 37.2836 34.7411 37.1904C32.9311 37.0134 31.1873 36.4169 29.6479 35.4485C28.1085 34.48 26.816 33.1662 25.8729 31.6112C25.6599 31.2383 25.4602 30.8655 25.2871 30.4927C25.2871 30.3728 25.1939 30.253 25.1539 30.1332C25.114 30.0133 24.9275 29.6005 24.8476 29.3342C24.7678 29.0679 24.7678 29.028 24.7278 28.8815C24.6879 28.735 24.5947 28.3888 24.5414 28.1491L24.4615 27.6431C24.4615 27.4035 24.3949 27.1771 24.3816 26.9374C24.3683 26.6977 24.3816 26.5912 24.3816 26.4048C24.3816 26.2184 24.3816 25.9521 24.3816 25.739C24.3816 25.526 24.3816 25.3662 24.3816 25.1798C24.3816 24.9933 24.3816 24.7403 24.4482 24.5273C24.5148 24.3142 24.5281 24.1545 24.5547 23.968C24.5813 23.7816 24.6479 23.5419 24.7012 23.3289C24.7544 23.1158 24.821 22.9694 24.8743 22.783L25.0474 22.3036C28.3584 21.3583 31.8715 21.386 35.1672 22.3835C36.4926 26.8458 37.1917 31.4705 37.2445 36.1252C37.2503 36.2804 37.2237 36.4352 37.1664 36.5797C37.1091 36.7241 37.0223 36.855 36.9116 36.964Z" fill="#FD4C5C"/>
</svg>
