<svg width="40" height="40" viewBox="0 0 40 40" fill="none" xmlns="http://www.w3.org/2000/svg">
<path d="M35.6665 4.38769C33.6757 2.34377 31.1263 0.932316 28.3374 0.329947C25.5485 -0.272422 22.6438 -0.0389599 19.9869 1.00112C18.2931 0.317448 16.4802 -0.0224717 14.6537 0.00115201C12.7233 0.00216562 10.8127 0.390971 9.03542 1.14449C7.25811 1.89802 5.65029 3.0009 4.30737 4.38769C1.54701 7.19332 0 10.9715 0 14.9074C0 18.8433 1.54701 22.6215 4.30737 25.4271L5.44067 26.5871L7.16062 35.8001C7.38608 36.9771 8.01318 38.0393 8.93481 38.8053C9.85644 39.5713 11.0154 39.9936 12.2138 40H13.2271C14.2569 39.9975 15.2622 39.6862 16.1132 39.1062C16.9641 38.5262 17.6215 37.7043 18.0003 36.7468C18.0624 36.6263 18.1159 36.5015 18.1603 36.3734L19.9869 30.4536L21.8269 36.4001C21.8658 36.5196 21.9148 36.6356 21.9735 36.7468C22.3524 37.7043 23.0097 38.5262 23.8607 39.1062C24.7116 39.6862 25.717 39.9975 26.7467 40H27.76C28.9633 39.9987 30.1283 39.5768 31.0534 38.8075C31.9786 38.0381 32.6058 36.9696 32.8265 35.7868L34.5465 26.5871L35.6665 25.4404C38.4309 22.6342 39.9804 18.8532 39.9804 14.9141C39.9804 10.9749 38.4309 7.19391 35.6665 4.38769ZM36.6798 18.8139C36.0896 20.5989 35.0948 22.2234 33.7732 23.5605L32.4399 24.8938C32.3025 25.0072 32.1892 25.1471 32.1067 25.3051C32.0243 25.4632 31.9744 25.6361 31.9599 25.8137L30.1866 35.2801C30.0843 35.8513 29.7859 36.3688 29.343 36.7436C28.9 37.1184 28.3402 37.327 27.76 37.3334H26.7467C26.2432 37.3337 25.7517 37.1791 25.339 36.8905C24.9264 36.6019 24.6125 36.1933 24.4401 35.7201L24.3601 35.5868L21.3202 25.5471C21.2325 25.2803 21.0629 25.0481 20.8354 24.8834C20.608 24.7188 20.3344 24.6301 20.0536 24.6301C19.7728 24.6301 19.4992 24.7188 19.2717 24.8834C19.0443 25.0481 18.8746 25.2803 18.787 25.5471L15.707 35.5068L15.6004 35.7201C15.4242 36.2041 15.1002 36.6204 14.6742 36.91C14.2483 37.1995 13.742 37.3477 13.2271 37.3334H12.2138C11.6351 37.3313 11.0752 37.1279 10.63 36.7581C10.1849 36.3884 9.88219 35.8753 9.77388 35.3068L7.98727 25.8271C7.95815 25.4884 7.80076 25.1736 7.54728 24.9471L6.21399 23.6138C3.93735 21.3038 2.66112 18.1907 2.66112 14.9474C2.66112 11.7041 3.93735 8.59098 6.21399 6.28097C7.30796 5.14533 8.61846 4.24049 10.068 3.61989C11.5176 2.99929 13.0769 2.67553 14.6537 2.66774C16.2932 2.67617 17.9151 3.00688 19.4269 3.64105C19.597 3.71637 19.7809 3.75529 19.9669 3.75529C20.1529 3.75529 20.3368 3.71637 20.5069 3.64105C22.717 2.6739 25.1694 2.40336 27.5372 2.86548C29.9049 3.3276 32.0756 4.50043 33.7599 6.22764C35.3668 7.84783 36.4911 9.88333 37.0067 12.1062C37.5224 14.3292 37.4092 16.6517 36.6798 18.8139Z" fill="#2B59FF"/>
<path d="M29.6668 8.28107C29.4184 8.53088 29.2791 8.86881 29.2791 9.22105C29.2791 9.57328 29.4184 9.91121 29.6668 10.161C30.6451 11.1226 31.4763 12.2233 32.1334 13.4276C32.3102 13.737 32.6026 13.9635 32.9465 14.0573C33.2903 14.151 33.6572 14.1044 33.9666 13.9276C34.2761 13.7508 34.5026 13.4583 34.5963 13.1145C34.6901 12.7707 34.6434 12.4037 34.4666 12.0943C33.6882 10.6848 32.7091 9.39578 31.56 8.26774C31.4352 8.14364 31.2871 8.04549 31.1241 7.97894C30.9612 7.91239 30.7866 7.87877 30.6106 7.88001C30.4346 7.88125 30.2606 7.91733 30.0986 7.98616C29.9366 8.055 29.7898 8.15523 29.6668 8.28107Z" fill="#2B59FF"/>
<path d="M27.987 5.54728C27.2724 5.16505 26.533 4.83098 25.7738 4.54731C25.4514 4.45765 25.107 4.49252 24.8091 4.64498C24.5112 4.79744 24.2815 5.05636 24.1657 5.37032C24.0498 5.68427 24.0563 6.03032 24.1838 6.33974C24.3112 6.64916 24.5504 6.89933 24.8538 7.04057C25.4727 7.28335 26.0741 7.56846 26.6537 7.89388C26.9649 8.07069 27.3336 8.11664 27.6786 8.02162C28.0237 7.92661 28.3169 7.69841 28.4937 7.38723C28.6705 7.07605 28.7164 6.70738 28.6214 6.36233C28.5264 6.01727 28.2982 5.72409 27.987 5.54728Z" fill="#2B59FF"/>
</svg>
