<svg width="36" height="35" viewBox="0 0 36 35" fill="none" xmlns="http://www.w3.org/2000/svg">
<path d="M31.5034 9.29058H27.933C27.6361 6.7323 26.4094 4.37233 24.4862 2.65939C22.563 0.946448 20.0773 0 17.5019 0C14.9264 0 12.4408 0.946448 10.5176 2.65939C8.59433 4.37233 7.36765 6.7323 7.07076 9.29058H3.50038C2.57202 9.29058 1.68168 9.65937 1.02524 10.3158C0.368788 10.9723 0 11.8626 0 12.791V31.4596C0 32.388 0.368788 33.2783 1.02524 33.9348C1.68168 34.5912 2.57202 34.96 3.50038 34.96H31.5034C32.4317 34.96 33.3221 34.5912 33.9785 33.9348C34.635 33.2783 35.0038 32.388 35.0038 31.4596V12.791C35.0038 11.8626 34.635 10.9723 33.9785 10.3158C33.3221 9.65937 32.4317 9.29058 31.5034 9.29058ZM17.5019 2.28983C19.4662 2.28933 21.365 2.99681 22.8501 4.28261C24.3352 5.5684 25.3071 7.34636 25.5877 9.29058H9.41601C9.69663 7.34636 10.6686 5.5684 12.1537 4.28261C13.6388 2.99681 15.5375 2.28933 17.5019 2.28983ZM32.6702 31.4596C32.6702 31.7691 32.5472 32.0659 32.3284 32.2847C32.1096 32.5035 31.8128 32.6264 31.5034 32.6264H3.50038C3.19092 32.6264 2.89414 32.5035 2.67533 32.2847C2.45651 32.0659 2.33358 31.7691 2.33358 31.4596V12.791C2.33358 12.4815 2.45651 12.1847 2.67533 11.9659C2.89414 11.7471 3.19092 11.6242 3.50038 11.6242H31.5034C31.8128 11.6242 32.1096 11.7471 32.3284 11.9659C32.5472 12.1847 32.6702 12.4815 32.6702 12.791V31.4596Z" fill="#001C80"/>
<path d="M19.8353 29.1265H15.1681C14.8587 29.1265 14.5619 29.0036 14.3431 28.7848C14.1243 28.5659 14.0014 28.2692 14.0014 27.9597V25.6261H11.6678C11.3583 25.6261 11.0615 25.5032 10.8427 25.2844C10.6239 25.0656 10.501 24.7688 10.501 24.4593V19.7922C10.501 19.4827 10.6239 19.1859 10.8427 18.9671C11.0615 18.7483 11.3583 18.6254 11.6678 18.6254H14.0014V16.2918C14.0014 15.9823 14.1243 15.6856 14.3431 15.4667C14.5619 15.2479 14.8587 15.125 15.1681 15.125H19.8353C20.1448 15.125 20.4415 15.2479 20.6604 15.4667C20.8792 15.6856 21.0021 15.9823 21.0021 16.2918V18.6254H23.3357C23.6451 18.6254 23.9419 18.7483 24.1607 18.9671C24.3795 19.1859 24.5025 19.4827 24.5025 19.7922V24.4593C24.5025 24.7688 24.3795 25.0656 24.1607 25.2844C23.9419 25.5032 23.6451 25.6261 23.3357 25.6261H21.0021V27.9597C21.0021 28.2692 20.8792 28.5659 20.6604 28.7848C20.4415 29.0036 20.1448 29.1265 19.8353 29.1265ZM16.3349 26.7929H18.6685V24.4593C18.6685 24.1499 18.7914 23.8531 19.0103 23.6343C19.2291 23.4155 19.5259 23.2925 19.8353 23.2925H22.1689V20.959H19.8353C19.5259 20.959 19.2291 20.836 19.0103 20.6172C18.7914 20.3984 18.6685 20.1016 18.6685 19.7922V17.4586H16.3349V19.7922C16.3349 20.1016 16.212 20.3984 15.9932 20.6172C15.7744 20.836 15.4776 20.959 15.1681 20.959H12.8346V23.2925H15.1681C15.4776 23.2925 15.7744 23.4155 15.9932 23.6343C16.212 23.8531 16.3349 24.1499 16.3349 24.4593V26.7929Z" fill="#001C80"/>
</svg>
