<svg width="37" height="54" viewBox="0 0 37 54" fill="none" xmlns="http://www.w3.org/2000/svg">
<path d="M18.3614 0C8.21016 0 0 8.34771 0 18.669C0 32.6708 18.3614 53.34 18.3614 53.34C18.3614 53.34 36.7228 32.6708 36.7228 18.669C36.7228 8.34771 28.5126 0 18.3614 0ZM18.3614 25.3365C16.6222 25.3365 14.9542 24.634 13.7244 23.3836C12.4946 22.1332 11.8037 20.4373 11.8037 18.669C11.8037 16.9007 12.4946 15.2048 13.7244 13.9544C14.9542 12.704 16.6222 12.0015 18.3614 12.0015C20.1006 12.0015 21.7685 12.704 22.9983 13.9544C24.2281 15.2048 24.919 16.9007 24.919 18.669C24.919 20.4373 24.2281 22.1332 22.9983 23.3836C21.7685 24.634 20.1006 25.3365 18.3614 25.3365Z" fill="url(#paint0_linear)"/>
<defs>
<linearGradient id="paint0_linear" x1="-1.38774e-07" y1="28.835" x2="36.7254" y2="28.9567" gradientUnits="userSpaceOnUse">
<stop stop-color="#001C80"/>
<stop offset="0.302083" stop-color="#153ABF"/>
<stop offset="1" stop-color="#2B59FF"/>
</linearGradient>
</defs>
</svg>
