<svg width="17" height="25" viewBox="0 0 17 25" fill="none" xmlns="http://www.w3.org/2000/svg">
<path d="M8.385 0C3.74929 0 0 3.81211 0 8.52548C0 14.9196 8.385 24.3585 8.385 24.3585C8.385 24.3585 16.77 14.9196 16.77 8.52548C16.77 3.81211 13.0207 0 8.385 0ZM8.385 11.5703C7.59077 11.5703 6.82907 11.2495 6.26747 10.6785C5.70586 10.1075 5.39036 9.33301 5.39036 8.52548C5.39036 7.71794 5.70586 6.94348 6.26747 6.37247C6.82907 5.80146 7.59077 5.48066 8.385 5.48066C9.17923 5.48066 9.94093 5.80146 10.5025 6.37247C11.0641 6.94348 11.3796 7.71794 11.3796 8.52548C11.3796 9.33301 11.0641 10.1075 10.5025 10.6785C9.94093 11.2495 9.17923 11.5703 8.385 11.5703Z" fill="#FD4C5C"/>
</svg>
