<svg width="18" height="15" viewBox="0 0 18 15" fill="none" xmlns="http://www.w3.org/2000/svg">
<path fill-rule="evenodd" clip-rule="evenodd" d="M0 7.5C0 7.21589 0.112862 6.94342 0.313758 6.74252C0.514653 6.54163 0.787126 6.42877 1.07124 6.42877H13.4826L8.88268 1.83102C8.68153 1.62987 8.56853 1.35706 8.56853 1.07259C8.56853 0.788121 8.68153 0.515303 8.88268 0.314154C9.08383 0.113005 9.35665 0 9.64112 0C9.92559 0 10.1984 0.113005 10.3996 0.314154L16.827 6.74157C16.9267 6.84107 17.0059 6.95929 17.0599 7.08943C17.1139 7.21958 17.1417 7.3591 17.1417 7.5C17.1417 7.64091 17.1139 7.78042 17.0599 7.91057C17.0059 8.04071 16.9267 8.15893 16.827 8.25844L10.3996 14.6858C10.1984 14.887 9.92559 15 9.64112 15C9.35665 15 9.08383 14.887 8.88268 14.6858C8.68153 14.4847 8.56853 14.2119 8.56853 13.9274C8.56853 13.6429 8.68153 13.3701 8.88268 13.169L13.4826 8.57124H1.07124C0.787126 8.57124 0.514653 8.45837 0.313758 8.25748C0.112862 8.05658 0 7.78411 0 7.5Z" fill=""/>
</svg>
