<svg width="60" height="60" viewBox="0 0 60 60" fill="none" xmlns="http://www.w3.org/2000/svg">
<path d="M34.291 7.1168V50.5488C34.291 54.1524 31.3695 57.0727 27.7672 57.0727H8.43008C4.82656 57.0727 1.90625 54.1524 1.90625 50.5488V7.1168C1.90625 5.57461 3.15547 4.32422 4.69883 4.32422H31.4984C33.0406 4.32422 34.291 5.57461 34.291 7.1168Z" fill="#F0F7FF"/>
<path d="M34.2045 7.29722V50.7293C34.2045 54.3328 31.283 57.2531 27.6807 57.2531H18.0771V4.50464H31.4119C32.9541 4.50464 34.2045 5.75503 34.2045 7.29722Z" fill="#DFE7F4"/>
<path d="M30.6105 0H5.71758C2.57461 0 0 2.5418 0 5.71758V51.593C0 56.2289 3.77109 60 8.40703 60H27.9211C32.557 60 36.3281 56.2289 36.3281 51.593V5.71758C36.3281 2.55234 33.7652 0 30.6105 0V0ZM32.8125 51.593C32.8125 54.2906 30.6187 56.4844 27.9211 56.4844H8.40703C5.70937 56.4844 3.51562 54.2906 3.51562 51.593V6.08086L6.0832 8.67188C7.25391 9.86367 8.88281 10.5469 10.5527 10.5469H25.7754C27.4453 10.5469 29.0742 9.86367 30.2391 8.67773L32.8125 6.08203V51.593Z" fill="#0D527C"/>
<path d="M42.0078 36.9996C41.5579 36.9996 41.1081 36.828 40.7649 36.4848C40.0784 35.7983 40.0784 34.6853 40.7649 33.9989C41.8331 32.9305 42.4215 31.5103 42.4215 29.9999C42.4215 28.4896 41.8331 27.0694 40.7648 26.001C40.0784 25.3146 40.0784 24.2016 40.7648 23.5151C41.4513 22.8288 42.5643 22.8288 43.2507 23.5151C44.9831 25.2475 45.9371 27.5506 45.9371 29.9999C45.9371 32.4493 44.9831 34.7524 43.2508 36.4846C42.9075 36.8279 42.4577 36.9996 42.0078 36.9996Z" fill="#525CDD"/>
<path d="M46.9804 41.9718C46.5307 41.9718 46.081 41.8004 45.7378 41.4573C45.0512 40.771 45.0509 39.658 45.7373 38.9714C48.1334 36.5741 49.4531 33.388 49.4531 30C49.4531 26.612 48.1334 23.4259 45.7372 21.0286C45.0509 20.342 45.0512 19.2289 45.7377 18.5427C46.4244 17.8563 47.5373 17.8566 48.2236 18.5431C51.2836 21.6044 52.9687 25.6732 52.9687 30C52.9687 34.3268 51.2836 38.3955 48.2237 41.4568C47.8804 41.8002 47.4304 41.9718 46.9804 41.9718Z" fill="#525CDD" fill-opacity="0.6"/>
<path d="M51.9512 46.943C51.5012 46.943 51.0513 46.7713 50.708 46.428C50.0217 45.7414 50.0219 44.6285 50.7084 43.9421C54.4329 40.2188 56.484 35.2674 56.484 30.0001C56.484 24.7327 54.4329 19.7813 50.7084 16.058C50.0218 15.3717 50.0217 14.2587 50.708 13.5721C51.3944 12.8855 52.5073 12.8855 53.1939 13.5718C57.5826 17.959 59.9996 23.7935 59.9996 30.0001C59.9996 36.2067 57.5826 42.0411 53.1939 46.4283C52.8507 46.7715 52.4009 46.943 51.9512 46.943Z" fill="#525CDD" fill-opacity="0.2"/>
<path d="M25.267 39.5238V39.5472C25.2775 41.1375 24.6682 42.6363 23.5514 43.7683C22.5682 44.7633 21.2967 45.3691 19.9221 45.5074V48.2144C19.9221 49.1859 19.1346 49.9722 18.1643 49.9722C17.1939 49.9722 16.4064 49.1859 16.4064 48.2144V45.5191C13.4334 45.2086 11.099 42.6972 11.0803 39.6386C11.0732 38.6683 11.8561 37.8761 12.8264 37.8703H12.8381C13.8037 37.8703 14.5889 38.6508 14.5947 39.6176C14.6041 40.9547 15.6939 42.0363 17.0287 42.0363H17.0439L18.1643 42.0293L19.3326 42.0222C19.983 42.0187 20.5924 41.7609 21.0494 41.298C21.5064 40.8351 21.7561 40.2222 21.7514 39.5718V39.5484C21.7455 38.7855 21.3775 38.0613 20.7646 37.6078L18.1643 35.6836L13.4721 32.2113C11.9627 31.0933 11.0615 29.3062 11.0615 27.4289C11.0615 24.3527 13.4088 21.8133 16.4064 21.5097V18.8168C16.4064 17.8453 17.1939 17.059 18.1643 17.059C19.1346 17.059 19.9221 17.8453 19.9221 18.8168V21.5121C22.9127 21.8226 25.2529 24.3574 25.2529 27.4289C25.2529 28.3992 24.4654 29.1867 23.4951 29.1867C22.5236 29.1867 21.7373 28.3992 21.7373 27.4289C21.7373 26.0871 20.6451 24.9949 19.3033 24.9949H17.0111C15.6693 24.9949 14.5771 26.0871 14.5771 27.4289C14.5771 28.1965 14.9463 28.9277 15.5639 29.3847L18.1643 31.309L22.8564 34.7824C24.3529 35.8898 25.2541 37.6617 25.267 39.5238Z" fill="#FABE2C"/>
<path d="M36.3281 5.71758V51.593C36.3281 56.2289 32.557 60 27.9211 60H18.1641V56.4844H27.9211C30.6187 56.4844 32.8125 54.2906 32.8125 51.593V6.08203L30.2391 8.67773C29.0742 9.86367 27.4453 10.5469 25.7754 10.5469H18.1641V0H30.6105C33.7652 0 36.3281 2.55234 36.3281 5.71758Z" fill="#003B60"/>
<path d="M19.3031 24.9949H18.1641V17.059C19.1344 17.059 19.9219 17.8453 19.9219 18.8168V21.5121C22.9125 21.8226 25.2527 24.3574 25.2527 27.4289C25.2527 28.3992 24.4652 29.1867 23.4949 29.1867C22.5234 29.1867 21.7371 28.3992 21.7371 27.4289C21.7371 26.0871 20.6449 24.9949 19.3031 24.9949Z" fill="#FF9100"/>
<path d="M25.2668 39.5239V39.5474C25.2773 41.1376 24.668 42.6364 23.5512 43.7685C22.568 44.7634 21.2965 45.3692 19.9219 45.5075V48.2146C19.9219 49.186 19.1344 49.9724 18.1641 49.9724V42.0294L19.3324 42.0224C19.9828 42.0188 20.5922 41.761 21.0492 41.2981C21.5062 40.8353 21.7559 40.2224 21.7512 39.572V39.5485C21.7453 38.7856 21.3773 38.0614 20.7645 37.6079L18.1641 35.6837V31.3091L22.8562 34.7825C24.3527 35.8899 25.2539 37.6618 25.2668 39.5239Z" fill="#FF9100"/>
</svg>
