<svg width="23" height="23" viewBox="0 0 23 23" fill="none" xmlns="http://www.w3.org/2000/svg">
<path d="M6.40087 21.4039H3.40029C2.86975 21.4039 2.36095 21.1931 1.9858 20.818C1.61066 20.4429 1.3999 19.934 1.3999 19.4035V12.4022C1.3999 11.8716 1.61066 11.3628 1.9858 10.9877C2.36095 10.6125 2.86975 10.4018 3.40029 10.4018H6.40087M13.4022 8.40138V4.40061C13.4022 3.6048 13.0861 2.84159 12.5234 2.27887C11.9607 1.71616 11.1974 1.40002 10.4016 1.40002L6.40087 10.4018V21.4039H17.6831C18.1655 21.4094 18.6336 21.2403 19.0012 20.9278C19.3688 20.6154 19.6111 20.1806 19.6834 19.7036L21.0637 10.7018C21.1072 10.4151 21.0879 10.1224 21.007 9.84391C20.9262 9.56543 20.7858 9.30785 20.5955 9.08903C20.4052 8.8702 20.1696 8.69537 19.9051 8.57663C19.6405 8.45789 19.3533 8.3981 19.0633 8.40138H13.4022Z" stroke="white" stroke-width="2" stroke-linecap="round" stroke-linejoin="round"/>
</svg>
