<svg width="34" height="22" viewBox="0 0 34 22" fill="none" xmlns="http://www.w3.org/2000/svg">
<path d="M16.9098 10.2666C19.7522 10.2666 22.0564 7.96834 22.0564 5.1333C22.0564 2.29826 19.7522 0 16.9098 0C14.0674 0 11.7632 2.29826 11.7632 5.1333C11.7632 7.96834 14.0674 10.2666 16.9098 10.2666Z" fill="#00BB98"/>
<path d="M27.2025 13.1999C29.2327 13.1999 30.8786 11.5583 30.8786 9.5333C30.8786 7.50829 29.2327 5.8667 27.2025 5.8667C25.1722 5.8667 23.5264 7.50829 23.5264 9.5333C23.5264 11.5583 25.1722 13.1999 27.2025 13.1999Z" fill="#00BB98"/>
<path d="M6.72053 13.1999C8.75079 13.1999 10.3966 11.5583 10.3966 9.5333C10.3966 7.50829 8.75079 5.8667 6.72053 5.8667C4.69028 5.8667 3.04443 7.50829 3.04443 9.5333C3.04443 11.5583 4.69028 13.1999 6.72053 13.1999Z" fill="#00BB98"/>
<path d="M16.9095 11.7329C11.6394 11.7329 7.35156 16.0097 7.35156 21.2661C7.35156 21.6709 7.68097 21.9995 8.08681 21.9995H25.7322C26.1381 21.9995 26.4675 21.6709 26.4675 21.2661C26.4675 16.0097 22.1796 11.7329 16.9095 11.7329Z" fill="#00BB98"/>
<path d="M7.98896 14.8249C7.539 14.7295 7.08166 14.6665 6.61703 14.6665C2.96884 14.6665 0 17.6277 0 21.2664C0 21.6712 0.329404 21.9998 0.735248 21.9998H6.01708C5.93471 21.7695 5.88178 21.5246 5.88178 21.2664C5.88178 18.8597 6.66996 16.6377 7.98896 14.8249Z" fill="#00BB98"/>
<path d="M27.203 14.6665C26.7383 14.6665 26.281 14.7295 25.8311 14.8249C27.15 16.6377 27.9382 18.8597 27.9382 21.2664C27.9382 21.5246 27.8853 21.7695 27.8029 21.9998H33.0848C33.4906 21.9998 33.82 21.6712 33.82 21.2664C33.82 17.6277 30.8512 14.6665 27.203 14.6665Z" fill="#00BB98"/>
</svg>
