<svg width="27" height="25" viewBox="0 0 27 25" fill="none" xmlns="http://www.w3.org/2000/svg">
<path d="M26.2182 9.89422L19.9623 15.9763L21.4407 24.561C21.4518 24.6302 21.4437 24.701 21.4172 24.7659C21.3906 24.8307 21.3467 24.8871 21.2902 24.9287C21.2253 24.9745 21.1478 24.9994 21.0683 25C21.0077 25.0002 20.948 24.9847 20.8953 24.955L13.1648 20.9028L5.43434 24.955C5.37256 24.9876 5.30287 25.0025 5.2331 24.9979C5.16333 24.9932 5.09624 24.9693 5.03935 24.9287C4.98288 24.8871 4.93897 24.8307 4.91244 24.7659C4.8859 24.701 4.87775 24.6302 4.88888 24.561L6.36726 15.9763L0.111422 9.89422C0.0617425 9.84513 0.0267662 9.78319 0.0104203 9.71537C-0.00592566 9.64755 -0.00299393 9.57653 0.0188862 9.51028C0.0407663 9.44403 0.0807284 9.38518 0.134286 9.34032C0.187844 9.29547 0.252876 9.2664 0.322082 9.25637L8.96289 8.00318L12.8262 0.191397C12.8613 0.133031 12.9109 0.0847205 12.9702 0.0511763C13.0296 0.0176321 13.0966 0 13.1648 0C13.233 0 13.3 0.0176321 13.3594 0.0511763C13.4187 0.0847205 13.4683 0.133031 13.5034 0.191397L17.3667 8.00318L26.0075 9.25637C26.0767 9.2664 26.1417 9.29547 26.1953 9.34032C26.2489 9.38518 26.2888 9.44403 26.3107 9.51028C26.3326 9.57653 26.3355 9.64755 26.3192 9.71537C26.3028 9.78319 26.2678 9.84513 26.2182 9.89422Z" fill="#2B59FF"/>
</svg>
