<svg width="28" height="26" viewBox="0 0 28 26" fill="none" xmlns="http://www.w3.org/2000/svg">
<path d="M4.65495 9.28564H0.931002C0.416876 9.28564 0 9.70138 0 10.2142V25.0713C0 25.5841 0.416814 25.9999 0.931002 25.9999H4.65489C5.16901 25.9999 5.58589 25.5841 5.58589 25.0713V10.2142C5.58589 9.70138 5.16914 9.28564 4.65495 9.28564Z" fill="#FD4C5C"/>
<path d="M27.9092 11.7471C27.745 10.3067 26.3959 9.28571 24.9424 9.28571H17.6843C18.3011 8.18406 18.6322 5.06817 18.6175 3.79532C18.5932 1.6884 16.8438 0 14.7314 0H13.9632C13.4486 0 13.0322 0.415305 13.0322 0.928596C13.0322 3.07586 12.1939 6.95162 10.6129 8.52856C9.54882 9.58993 8.63912 9.97453 7.44629 10.5691V24.5023C9.27255 25.1094 11.5913 26 15.1256 26H21.2156C23.2222 26 24.785 24.1463 24.0075 22.1878C25.1921 21.8659 26.0658 20.7823 26.0658 19.5C26.0658 19.1382 25.9958 18.7918 25.8694 18.4735C27.8658 17.931 28.6006 15.4723 27.215 13.9286C27.724 13.3613 28.0048 12.5855 27.9092 11.7471Z" fill="#FD4C5C"/>
</svg>
