<svg width="18" height="16" viewBox="0 0 18 16" fill="none" xmlns="http://www.w3.org/2000/svg">
<path fill-rule="evenodd" clip-rule="evenodd" d="M18 8.41308C18 8.69719 17.8871 8.96966 17.6862 9.17056C17.4853 9.37146 17.2129 9.48432 16.9288 9.48432L4.51743 9.48432L9.11731 14.0821C9.31846 14.2832 9.43147 14.556 9.43147 14.8405C9.43147 15.125 9.31846 15.3978 9.11731 15.5989C8.91616 15.8001 8.64335 15.9131 8.35888 15.9131C8.07441 15.9131 7.80159 15.8001 7.60044 15.5989L1.17303 9.17152C1.07327 9.07201 0.994121 8.9538 0.940117 8.82365C0.886112 8.69351 0.858314 8.55399 0.858314 8.41308C0.858314 8.27218 0.886112 8.13266 0.940117 8.00251C0.994121 7.87237 1.07327 7.75416 1.17303 7.65465L7.60044 1.22723C7.80159 1.02608 8.07441 0.913081 8.35888 0.913081C8.64335 0.913081 8.91616 1.02608 9.11731 1.22723C9.31846 1.42838 9.43147 1.7012 9.43147 1.98567C9.43147 2.27014 9.31846 2.54295 9.11731 2.7441L4.51743 7.34185L16.9288 7.34185C17.2129 7.34185 17.4853 7.45471 17.6862 7.6556C17.8871 7.8565 18 8.12897 18 8.41308Z" fill=""/>
</svg>
