<svg width="18" height="16" viewBox="0 0 18 16" fill="none" xmlns="http://www.w3.org/2000/svg">
<path fill-rule="evenodd" clip-rule="evenodd" d="M0 8.41309C0 8.12898 0.112862 7.8565 0.313758 7.65561C0.514653 7.45471 0.787126 7.34185 1.07124 7.34185H13.4826L8.88268 2.74411C8.68153 2.54296 8.56853 2.27014 8.56853 1.98567C8.56853 1.70121 8.68153 1.42839 8.88268 1.22724C9.08383 1.02609 9.35665 0.913086 9.64112 0.913086C9.92559 0.913086 10.1984 1.02609 10.3996 1.22724L16.827 7.65465C16.9267 7.75416 17.0059 7.87237 17.0599 8.00252C17.1139 8.13266 17.1417 8.27218 17.1417 8.41309C17.1417 8.55399 17.1139 8.69351 17.0599 8.82366C17.0059 8.9538 16.9267 9.07201 16.827 9.17152L10.3996 15.5989C10.1984 15.8001 9.92559 15.9131 9.64112 15.9131C9.35665 15.9131 9.08383 15.8001 8.88268 15.5989C8.68153 15.3978 8.56853 15.125 8.56853 14.8405C8.56853 14.556 8.68153 14.2832 8.88268 14.0821L13.4826 9.48432H1.07124C0.787126 9.48432 0.514653 9.37146 0.313758 9.17057C0.112862 8.96967 0 8.6972 0 8.41309Z" fill=""/>
</svg>
