<svg width="20" height="20" viewBox="0 0 20 20" fill="none" xmlns="http://www.w3.org/2000/svg">
<path fill-rule="evenodd" clip-rule="evenodd" d="M18.3333 20C18.3333 20 20 20 20 18.3333C20 16.6667 18.3333 11.6667 10 11.6667C1.66667 11.6667 0 16.6667 0 18.3333C0 20 1.66667 20 1.66667 20H18.3333ZM1.675 18.4267V18.4233V18.4267ZM1.70333 18.3333H18.2967C18.3045 18.3324 18.3123 18.3313 18.32 18.33L18.3333 18.3267C18.3317 17.9167 18.0767 16.6833 16.9467 15.5533C15.86 14.4667 13.815 13.3333 10 13.3333C6.18333 13.3333 4.14 14.4667 3.05333 15.5533C1.92333 16.6833 1.67 17.9167 1.66667 18.3267C1.67886 18.329 1.69109 18.3312 1.70333 18.3333ZM18.3267 18.4267V18.4233V18.4267ZM10 8.33333C10.8841 8.33333 11.7319 7.98214 12.357 7.35702C12.9821 6.7319 13.3333 5.88405 13.3333 5C13.3333 4.11594 12.9821 3.2681 12.357 2.64298C11.7319 2.01786 10.8841 1.66667 10 1.66667C9.11594 1.66667 8.2681 2.01786 7.64298 2.64298C7.01786 3.2681 6.66667 4.11594 6.66667 5C6.66667 5.88405 7.01786 6.7319 7.64298 7.35702C8.2681 7.98214 9.11594 8.33333 10 8.33333ZM15 5C15 6.32608 14.4732 7.59785 13.5355 8.53553C12.5979 9.47322 11.3261 10 10 10C8.67392 10 7.40215 9.47322 6.46447 8.53553C5.52678 7.59785 5 6.32608 5 5C5 3.67392 5.52678 2.40215 6.46447 1.46447C7.40215 0.526784 8.67392 0 10 0C11.3261 0 12.5979 0.526784 13.5355 1.46447C14.4732 2.40215 15 3.67392 15 5Z" fill=""/>
</svg>
