<svg width="24" height="20" viewBox="0 0 24 20" fill="none" xmlns="http://www.w3.org/2000/svg">
<path d="M11.6667 1.66667C9.89583 1.66667 8.24002 1.96832 6.69922 2.57161C5.15842 3.17491 3.93446 3.98872 3.02734 5.01302C2.12023 6.03733 1.66667 7.1441 1.66667 8.33333C1.66667 9.30556 1.977 10.2322 2.59766 11.1133C3.21832 11.9944 4.09288 12.7561 5.22135 13.3984L6.35417 14.0495L6.0026 15.2995C5.79427 16.0894 5.49045 16.8359 5.09115 17.5391C6.41059 16.9922 7.60417 16.25 8.67188 15.3125L9.23177 14.8177L9.97396 14.8958C10.5729 14.9653 11.1372 15 11.6667 15C13.4375 15 15.0933 14.6983 16.6341 14.0951C18.1749 13.4918 19.3989 12.678 20.306 11.6536C21.2131 10.6293 21.6667 9.52257 21.6667 8.33333C21.6667 7.1441 21.2131 6.03733 20.306 5.01302C19.3989 3.98872 18.1749 3.17491 16.6341 2.57161C15.0933 1.96832 13.4375 1.66667 11.6667 1.66667ZM23.3333 8.33333C23.3333 9.84375 22.8125 11.2391 21.7708 12.5195C20.7292 13.7999 19.3142 14.8112 17.526 15.5534C15.7378 16.2956 13.7847 16.6667 11.6667 16.6667C11.059 16.6667 10.4297 16.6319 9.77865 16.5625C8.0599 18.0816 6.06337 19.1319 3.78906 19.7135C3.36372 19.8351 2.86892 19.9306 2.30469 20H2.23958C2.10938 20 1.99219 19.9544 1.88802 19.8633C1.78385 19.7721 1.71441 19.6528 1.67969 19.5052V19.4922C1.65365 19.4575 1.65148 19.4054 1.67318 19.3359C1.69488 19.2665 1.70356 19.2231 1.69922 19.2057C1.69488 19.1884 1.71441 19.1471 1.75781 19.082L1.83594 18.9648L1.92708 18.8542L2.03125 18.737C2.09201 18.6675 2.22656 18.5178 2.4349 18.2878C2.64323 18.0577 2.79297 17.8928 2.88411 17.793C2.97526 17.6931 3.10981 17.5217 3.28776 17.2786C3.46571 17.0356 3.60677 16.8142 3.71094 16.6146C3.8151 16.4149 3.93229 16.1589 4.0625 15.8464C4.19271 15.5339 4.30556 15.204 4.40104 14.8568C3.03819 14.0842 1.96398 13.1293 1.17839 11.9922C0.392795 10.855 0 9.63542 0 8.33333C0 6.82292 0.520833 5.42752 1.5625 4.14714C2.60417 2.86675 4.0191 1.85547 5.80729 1.11328C7.59549 0.371094 9.54861 0 11.6667 0C13.7847 0 15.7378 0.371094 17.526 1.11328C19.3142 1.85547 20.7292 2.86675 21.7708 4.14714C22.8125 5.42752 23.3333 6.82292 23.3333 8.33333Z" fill=""/>
</svg>
